<svg width="103" height="52" viewBox="0 0 103 52" fill="none" xmlns="http://www.w3.org/2000/svg">
<path d="M64.8829 51.3328C83.2019 51.3328 98.0524 50.3383 98.0524 49.1116C98.0524 47.8848 83.2019 46.8904 64.8829 46.8904C46.5639 46.8904 31.7134 47.8848 31.7134 49.1116C31.7134 50.3383 46.5639 51.3328 64.8829 51.3328Z" fill="#E2E2E2"/>
<path d="M12.7849 49.3715C19.8458 49.3715 25.5699 48.9225 25.5699 48.3686C25.5699 47.8147 19.8458 47.3657 12.7849 47.3657C5.72401 47.3657 0 47.8147 0 48.3686C0 48.9225 5.72401 49.3715 12.7849 49.3715Z" fill="#E2E2E2"/>
<path d="M34.4397 41.5119C34.4397 41.5119 34.306 44.0525 34.5734 45.9245C34.8408 47.7966 34.7888 49.8172 35.8734 49.9361C36.958 50.0549 41.5416 50.2258 42.069 49.9361C42.5965 49.6464 42.9085 44.9142 42.8119 44.6022C42.7153 44.2902 40.9919 40.9398 34.4397 41.5119Z" fill="#2D2B2B"/>
<path d="M85.4903 41.4895C85.4903 41.4895 85.6463 44.0524 85.3863 45.9245C85.1263 47.7965 85.1709 49.8171 84.0863 49.936C83.0017 50.0549 78.4181 50.2257 77.8907 49.936C77.3633 49.6463 77.0512 44.9141 77.1478 44.6021C77.2444 44.2901 78.9382 40.91 85.4978 41.482L85.4903 41.4895Z" fill="#2D2B2B"/>
<path d="M85.4605 41.9724C85.3416 43.4582 85.2227 44.7657 83.8559 45.0628C82.8084 45.2931 67.5125 45.308 60.4403 45.3005H60.4181C53.8733 45.3005 37.166 45.3005 36.0665 45.0628C34.6996 44.7657 34.5808 43.4582 34.4619 41.9724C34.343 40.4867 34.343 32.9465 34.8779 31.171C35.4128 29.3881 39.2683 26.424 40.4569 25.1165C41.6455 23.8091 45.9171 15.4368 45.9171 15.4368C45.9171 15.4368 47.2691 12.2573 48.2571 11.9156C48.4652 11.8413 49.1115 11.7893 50.0103 11.7447C53.4053 11.5887 60.3438 11.611 60.3438 11.611C60.3438 11.611 66.2645 11.5367 69.496 11.6333C70.5286 11.663 71.2789 11.7076 71.4869 11.7819C72.3413 12.079 73.9979 15.4368 73.9979 15.4368C73.9979 15.4368 78.2694 23.8091 79.458 25.1165C80.6466 26.424 84.5022 29.3881 85.037 31.171C85.5719 32.9539 85.5719 40.4941 85.453 41.9724H85.4605Z" fill="#C2D1D5"/>
<path d="M47.0537 15.1472H72.7425L77.118 23.9503C77.118 23.9503 75.2162 23.3337 59.6975 23.5046C44.1788 23.6829 42.7153 24.6115 42.7153 24.6115L47.0463 15.1472H47.0537Z" fill="#2D2B2B"/>
<path d="M69.5035 11.6333C69.1023 12.131 68.4783 12.8739 68.248 12.9854C67.936 13.1339 51.8304 13.2008 51.4739 13.1562C51.2287 13.1265 50.471 12.2796 50.0178 11.7447C53.4128 11.5887 60.3512 11.611 60.3512 11.611C60.3512 11.611 66.272 11.5367 69.5035 11.6333Z" fill="#607C78"/>
<path d="M52.0979 40.9399H43.5474V41.9205H52.0979V40.9399Z" fill="#607C78"/>
<path d="M44.3944 41.2221L42.8864 39.4763H36.4605C36.4605 39.4763 35.8364 40.3975 35.8216 41.4301C35.8067 42.6558 36.3565 43.5473 36.3565 43.5473H43.2206L44.3944 41.2221Z" fill="#607C78"/>
<path d="M67.416 41.9204H75.9666V40.9398H67.416V41.9204Z" fill="#607C78"/>
<path d="M75.1272 41.2221L76.6352 39.4763H83.0611C83.0611 39.4763 83.6852 40.3975 83.7 41.4301C83.7149 42.6558 83.1651 43.5473 83.1651 43.5473H76.3009L75.1272 41.2221Z" fill="#607C78"/>
<path d="M59.7645 38.0724C59.7645 38.0724 48.235 38.2656 46.2293 37.9164C44.2235 37.5673 43.488 35.3535 43.488 35.3535H76.0261C76.0261 35.3535 75.2906 37.5673 73.2849 37.9164C71.2791 38.2656 59.7496 38.0724 59.7496 38.0724H59.7645Z" fill="#607C78"/>
<path d="M34.8706 33.8231C34.8706 33.8231 34.8706 37.1883 36.3564 37.8495C37.8421 38.5107 43.0423 37.9832 43.0423 37.9832C43.0423 37.9832 42.2177 36.5643 40.9622 35.7843C39.7067 35.0043 36.8615 34.774 35.9255 34.2763C34.9895 33.7711 34.8706 33.4517 34.8706 33.4517V33.8157V33.8231Z" fill="#FCB755"/>
<path d="M38.1244 36.3118C38.1244 36.8393 37.6935 37.2701 37.1661 37.2701C36.6386 37.2701 36.2078 36.8393 36.2078 36.3118C36.2078 35.7844 36.6386 35.3535 37.1661 35.3535C37.6935 35.3535 38.1244 35.7844 38.1244 36.3118Z" fill="white"/>
<path d="M40.3605 36.7128C40.3605 37.0397 40.1005 37.2997 39.7736 37.2997C39.4468 37.2997 39.1868 37.0397 39.1868 36.7128C39.1868 36.386 39.4468 36.126 39.7736 36.126C40.1005 36.126 40.3605 36.386 40.3605 36.7128Z" fill="white"/>
<path d="M84.9109 33.8231C84.9109 33.8231 84.9109 37.1883 83.4252 37.8495C81.9394 38.5107 76.7393 37.9832 76.7393 37.9832C76.7393 37.9832 77.5638 36.5643 78.8193 35.7843C80.0748 35.0043 82.92 34.774 83.856 34.2763C84.792 33.7711 84.9109 33.4517 84.9109 33.4517V33.8157V33.8231Z" fill="#FCB755"/>
<path d="M81.6572 36.3118C81.6572 36.8393 82.0881 37.2701 82.6155 37.2701C83.143 37.2701 83.5739 36.8393 83.5739 36.3118C83.5739 35.7844 83.143 35.3535 82.6155 35.3535C82.0881 35.3535 81.6572 35.7844 81.6572 36.3118Z" fill="white"/>
<path d="M79.4211 36.7128C79.4211 37.0397 79.6811 37.2997 80.008 37.2997C80.3349 37.2997 80.5949 37.0397 80.5949 36.7128C80.5949 36.386 80.3349 36.126 80.008 36.126C79.6811 36.126 79.4211 36.386 79.4211 36.7128Z" fill="white"/>
<path d="M66.5691 42.9456H52.7665C51.8825 42.9456 51.1619 42.225 51.1619 41.3409C51.1619 40.4569 51.8825 39.7363 52.7665 39.7363H66.5691C67.4532 39.7363 68.1738 40.4569 68.1738 41.3409C68.1738 42.225 67.4532 42.9456 66.5691 42.9456Z" fill="#2D2B2B"/>
<path d="M42.1434 23.5937C42.1434 23.5937 40.2862 23.9503 39.4021 23.5937C38.5181 23.2371 38.429 22.8434 38.5181 22.3977C38.6073 21.952 38.7707 20.8079 38.4884 20.6296C38.2061 20.4513 36.5272 20.4068 35.3312 21.6028C34.1351 22.7988 33.9568 23.0143 34.0014 23.2817C34.046 23.5491 35.242 24.344 35.7249 24.6115C36.2078 24.8789 41.2965 25.0126 41.2965 25.0126L42.1359 23.6011L42.1434 23.5937Z" fill="#C2D1D5"/>
<path d="M37.7084 24.1807C38.0649 23.7201 38.3101 23.1852 38.4587 22.6281C38.5404 22.3384 38.5924 22.0486 38.6295 21.7515C38.6592 21.4618 38.6741 21.1572 38.6221 20.8749C38.6147 20.8303 38.585 20.8229 38.5775 20.8749C38.5478 21.1423 38.5478 21.4098 38.5181 21.6846C38.4884 21.9669 38.429 22.2418 38.3547 22.5092C38.1987 23.0515 37.9609 23.5715 37.6712 24.0544C37.6564 24.0841 37.6712 24.2327 37.7084 24.1807Z" fill="#607C78"/>
<path d="M77.5859 23.5937C77.5859 23.5937 79.4431 23.9503 80.3272 23.5937C81.2112 23.2371 81.3003 22.8434 81.2112 22.3977C81.122 21.952 80.9586 20.8079 81.2409 20.6296C81.5232 20.4513 83.2021 20.4068 84.3981 21.6028C85.5942 22.7988 85.7724 23.0143 85.7279 23.2817C85.6833 23.5491 84.4873 24.344 84.0044 24.6115C83.5215 24.8789 78.4328 25.0126 78.4328 25.0126L77.5934 23.6011L77.5859 23.5937Z" fill="#C2D1D5"/>
<path d="M82.058 24.0617C81.7682 23.5714 81.5231 23.0514 81.3671 22.5016C81.2928 22.2342 81.2408 21.9668 81.2037 21.6919C81.1739 21.417 81.1665 21.1422 81.1442 20.8747C81.1442 20.845 81.1145 20.8153 81.0997 20.8599C81.0402 21.1422 81.0625 21.4393 81.0848 21.7216C81.1145 22.0262 81.1739 22.3234 81.2557 22.6131C81.4117 23.1777 81.6568 23.72 82.0134 24.1806C82.0505 24.2326 82.0654 24.0914 82.0505 24.0617H82.058Z" fill="#607C78"/>
<path d="M38.065 30.8887C38.3919 31.847 39.3502 32.2705 40.2788 32.4562C40.8508 32.5676 41.4377 32.5973 42.0171 32.6271C42.7897 32.6716 43.5697 32.7162 44.3423 32.7533C47.4401 32.9019 50.5454 32.9985 53.6506 33.0431C56.7558 33.0876 59.861 33.0951 62.9588 33.0431C66.0641 32.9836 69.1619 32.8796 72.2671 32.7236C73.8197 32.6493 75.3649 32.5602 76.9175 32.4562C78.017 32.3819 79.2947 32.3596 80.2159 31.6613C80.4165 31.5127 80.5873 31.327 80.7285 31.119C80.7879 31.0373 80.7285 30.6584 80.6468 30.7699C79.9856 31.7207 78.7301 31.9065 77.653 31.9956C76.1672 32.1145 74.674 32.1888 73.1883 32.263C70.1573 32.4265 67.1264 32.5379 64.0954 32.6048C61.0645 32.6716 58.0336 32.7013 54.9952 32.6791C51.9494 32.6568 48.9036 32.5899 45.8578 32.471C44.3646 32.4116 42.8714 32.3596 41.3782 32.2705C40.4125 32.2185 39.261 32.0922 38.5256 31.3864C38.3473 31.2156 38.2062 31.015 38.1096 30.7847C38.0724 30.7104 38.0501 30.8516 38.0576 30.8813L38.065 30.8887Z" fill="#607C78"/>
<path d="M45.8281 35.3682C45.7093 35.7545 45.6944 36.1928 45.7241 36.594C45.739 36.8094 45.7613 37.0174 45.8058 37.2254C45.8281 37.3294 45.8504 37.4334 45.8801 37.53C45.9098 37.634 45.9321 37.7454 45.9915 37.8346C46.0138 37.8717 46.051 37.8494 46.0658 37.8197C46.0955 37.7752 46.0956 37.7009 46.0881 37.6563C46.0584 37.4706 45.9841 37.2923 45.9395 37.1066C45.9024 36.9283 45.8727 36.7426 45.8578 36.5643C45.8281 36.1854 45.8578 35.8214 45.895 35.4425C45.895 35.4128 45.8578 35.2791 45.8355 35.3608L45.8281 35.3682Z" fill="#2D2B2B"/>
<path d="M47.6259 35.3906C47.5071 35.814 47.4996 36.282 47.5219 36.7203C47.5368 36.9432 47.5591 37.1661 47.6036 37.3889C47.6259 37.5004 47.6482 37.6192 47.6779 37.7306C47.7076 37.8421 47.7299 37.9609 47.7893 38.0575C47.8116 38.0947 47.8488 38.0724 47.8636 38.0427C47.8933 37.9981 47.8859 37.9312 47.8859 37.8792C47.8636 37.6786 47.7819 37.4855 47.7448 37.2849C47.7076 37.0843 47.6779 36.8912 47.6631 36.6906C47.6333 36.2746 47.6631 35.8735 47.7002 35.4574C47.7002 35.4129 47.6631 35.294 47.6333 35.3906H47.6259Z" fill="#2D2B2B"/>
<path d="M49.4235 35.3906C49.3047 35.814 49.2972 36.282 49.3195 36.7203C49.3344 36.9432 49.3567 37.1661 49.4012 37.3889C49.4235 37.5004 49.4458 37.6192 49.4755 37.7306C49.5052 37.8421 49.5275 37.9609 49.587 38.0575C49.6092 38.0947 49.6464 38.0724 49.6612 38.0427C49.691 37.9981 49.6835 37.9312 49.6835 37.8792C49.6612 37.6786 49.5795 37.4855 49.5424 37.2849C49.5052 37.0843 49.4755 36.8912 49.4607 36.6906C49.4309 36.2746 49.4607 35.8735 49.4978 35.4574C49.4978 35.4129 49.4607 35.294 49.4309 35.3906H49.4235Z" fill="#2D2B2B"/>
<path d="M51.2214 35.3906C51.1025 35.814 51.0951 36.282 51.1174 36.7203C51.1322 36.9432 51.1545 37.1661 51.1991 37.3889C51.2214 37.5004 51.2437 37.6192 51.2734 37.7306C51.3031 37.8421 51.3254 37.9609 51.3848 38.0575C51.4071 38.0947 51.4442 38.0724 51.4591 38.0427C51.4888 37.9981 51.4814 37.9312 51.4814 37.8792C51.4591 37.6786 51.3774 37.4855 51.3402 37.2849C51.3031 37.0843 51.2734 36.8912 51.2585 36.6906C51.2288 36.2746 51.2585 35.8735 51.2957 35.4574C51.2957 35.4129 51.2585 35.294 51.2288 35.3906H51.2214Z" fill="#2D2B2B"/>
<path d="M53.0265 35.3906C52.9077 35.814 52.9003 36.282 52.9225 36.7203C52.9374 36.9432 52.9597 37.1661 53.0043 37.3889C53.0265 37.5004 53.0488 37.6192 53.0785 37.7306C53.1083 37.8421 53.1305 37.9609 53.19 38.0575C53.2123 38.0947 53.2494 38.0724 53.2643 38.0427C53.294 37.9981 53.2866 37.9312 53.2866 37.8792C53.2643 37.6786 53.1826 37.4855 53.1454 37.2849C53.1083 37.0843 53.0785 36.8912 53.0637 36.6906C53.034 36.2746 53.0637 35.8735 53.1008 35.4574C53.1008 35.4129 53.0637 35.294 53.034 35.3906H53.0265Z" fill="#2D2B2B"/>
<path d="M54.8244 35.3906C54.7055 35.814 54.6981 36.282 54.7204 36.7203C54.7353 36.9432 54.7575 37.1661 54.8021 37.3889C54.8244 37.5004 54.8467 37.6192 54.8764 37.7306C54.9061 37.8421 54.9284 37.9609 54.9878 38.0575C55.0101 38.0947 55.0473 38.0724 55.0621 38.0427C55.0918 37.9981 55.0844 37.9312 55.0844 37.8792C55.0621 37.6786 54.9804 37.4855 54.9433 37.2849C54.9061 37.0843 54.8764 36.8912 54.8615 36.6906C54.8318 36.2746 54.8615 35.8735 54.8987 35.4574C54.8987 35.4129 54.8615 35.294 54.8318 35.3906H54.8244Z" fill="#2D2B2B"/>
<path d="M56.622 35.3906C56.5031 35.814 56.4957 36.282 56.518 36.7203C56.5329 36.9432 56.5551 37.1661 56.5997 37.3889C56.622 37.5004 56.6443 37.6192 56.674 37.7306C56.7037 37.8421 56.726 37.9609 56.7854 38.0575C56.8077 38.0947 56.8449 38.0724 56.8597 38.0427C56.8894 37.9981 56.882 37.9312 56.882 37.8792C56.8597 37.6786 56.778 37.4855 56.7409 37.2849C56.7037 37.0843 56.674 36.8912 56.6591 36.6906C56.6294 36.2746 56.6591 35.8735 56.6963 35.4574C56.6963 35.4129 56.6592 35.294 56.6294 35.3906H56.622Z" fill="#2D2B2B"/>
<path d="M58.4274 35.3906C58.3086 35.814 58.3011 36.282 58.3234 36.7203C58.3383 36.9432 58.3606 37.1661 58.4051 37.3889C58.4274 37.5004 58.4497 37.6192 58.4794 37.7306C58.5091 37.8421 58.5314 37.9609 58.5909 38.0575C58.6131 38.0947 58.6503 38.0724 58.6651 38.0427C58.6949 37.9981 58.6874 37.9312 58.6874 37.8792C58.6651 37.6786 58.5834 37.4855 58.5463 37.2849C58.5091 37.0843 58.4794 36.8912 58.4646 36.6906C58.4349 36.2746 58.4646 35.8735 58.5017 35.4574C58.5017 35.4129 58.4646 35.294 58.4349 35.3906H58.4274Z" fill="#2D2B2B"/>
<path d="M73.8716 35.4499C73.9087 35.8213 73.9384 36.1853 73.9087 36.5568C73.8938 36.735 73.8641 36.9133 73.827 37.0842C73.7898 37.2699 73.7081 37.4482 73.6858 37.6265C73.6784 37.6859 73.671 37.7602 73.7007 37.8197C73.7156 37.8494 73.7527 37.8865 73.7824 37.8419C73.8344 37.7602 73.8567 37.6562 73.879 37.5671C73.9087 37.4631 73.931 37.3591 73.9533 37.2476C73.9979 37.0396 74.0201 36.8316 74.035 36.6162C74.0573 36.2076 74.0499 35.7767 73.931 35.383C73.9013 35.2864 73.8641 35.4053 73.8716 35.4499Z" fill="#2D2B2B"/>
<path d="M72.0738 35.4499C72.1109 35.8585 72.1406 36.2671 72.1109 36.6757C72.096 36.8688 72.0663 37.062 72.0292 37.2551C71.9846 37.4631 71.9103 37.6637 71.8806 37.8717C71.8806 37.9088 71.9178 38.1466 71.9846 38.0426C72.044 37.9534 72.0589 37.8346 72.0886 37.738C72.1183 37.6266 72.1406 37.5151 72.1629 37.4037C72.2075 37.1808 72.2298 36.9505 72.2446 36.7202C72.2669 36.2745 72.2595 35.8139 72.1406 35.3831C72.1109 35.2791 72.0738 35.4054 72.0812 35.4499H72.0738Z" fill="#2D2B2B"/>
<path d="M70.2686 35.4499C70.3057 35.8585 70.3354 36.2671 70.3057 36.6757C70.2909 36.8688 70.2612 37.062 70.224 37.2551C70.1794 37.4631 70.1052 37.6637 70.0754 37.8717C70.0754 37.9088 70.1126 38.1466 70.1794 38.0426C70.2389 37.9534 70.2537 37.8346 70.2834 37.738C70.3132 37.6266 70.3354 37.5151 70.3577 37.4037C70.4023 37.1808 70.4246 36.9505 70.4394 36.7202C70.4617 36.2745 70.4543 35.8139 70.3354 35.3831C70.3057 35.2791 70.2686 35.4054 70.276 35.4499H70.2686Z" fill="#2D2B2B"/>
<path d="M68.4707 35.4499C68.5079 35.8585 68.5376 36.2671 68.5079 36.6757C68.493 36.8688 68.4633 37.062 68.4262 37.2551C68.3816 37.4631 68.3073 37.6637 68.2776 37.8717C68.2776 37.9088 68.3147 38.1466 68.3816 38.0426C68.441 37.9534 68.4559 37.8346 68.4856 37.738C68.5153 37.6266 68.5376 37.5151 68.5599 37.4037C68.6045 37.1808 68.6267 36.9505 68.6416 36.7202C68.6639 36.2745 68.6565 35.8139 68.5376 35.3831C68.5079 35.2791 68.4707 35.4054 68.4782 35.4499H68.4707Z" fill="#2D2B2B"/>
<path d="M66.6656 35.4499C66.7027 35.8585 66.7324 36.2671 66.7027 36.6757C66.6878 36.8688 66.6581 37.062 66.621 37.2551C66.5764 37.4631 66.5021 37.6637 66.4724 37.8717C66.4724 37.9088 66.5096 38.1466 66.5764 38.0426C66.6358 37.9534 66.6507 37.8346 66.6804 37.738C66.7101 37.6266 66.7324 37.5151 66.7547 37.4037C66.7993 37.1808 66.8216 36.9505 66.8364 36.7202C66.8587 36.2745 66.8513 35.8139 66.7324 35.3831C66.7027 35.2791 66.6656 35.4054 66.673 35.4499H66.6656Z" fill="#2D2B2B"/>
<path d="M64.868 35.4499C64.9051 35.8585 64.9348 36.2671 64.9051 36.6757C64.8902 36.8688 64.8605 37.062 64.8234 37.2551C64.7788 37.4631 64.7045 37.6637 64.6748 37.8717C64.6748 37.9088 64.7119 38.1466 64.7788 38.0426C64.8382 37.9534 64.8531 37.8346 64.8828 37.738C64.9125 37.6266 64.9348 37.5151 64.9571 37.4037C65.0017 37.1808 65.024 36.9505 65.0388 36.7202C65.0611 36.2745 65.0537 35.8139 64.9348 35.3831C64.9051 35.2791 64.868 35.4054 64.8754 35.4499H64.868Z" fill="#2D2B2B"/>
<path d="M63.0701 35.4499C63.1072 35.8585 63.137 36.2671 63.1072 36.6757C63.0924 36.8688 63.0627 37.062 63.0255 37.2551C62.981 37.4631 62.9067 37.6637 62.877 37.8717C62.877 37.9088 62.9141 38.1466 62.981 38.0426C63.0404 37.9534 63.0552 37.8346 63.085 37.738C63.1147 37.6266 63.137 37.5151 63.1592 37.4037C63.2038 37.1808 63.2261 36.9505 63.241 36.7202C63.2632 36.2745 63.2558 35.8139 63.137 35.3831C63.1072 35.2791 63.0701 35.4054 63.0775 35.4499H63.0701Z" fill="#2D2B2B"/>
<path d="M61.2649 35.4499C61.3021 35.8585 61.3318 36.2671 61.3021 36.6757C61.2872 36.8688 61.2575 37.062 61.2204 37.2551C61.1758 37.4631 61.1015 37.6637 61.0718 37.8717C61.0718 37.9088 61.1089 38.1466 61.1758 38.0426C61.2352 37.9534 61.2501 37.8346 61.2798 37.738C61.3095 37.6266 61.3318 37.5151 61.3541 37.4037C61.3986 37.1808 61.4209 36.9505 61.4358 36.7202C61.4581 36.2745 61.4506 35.8139 61.3318 35.3831C61.3021 35.2791 61.2649 35.4054 61.2724 35.4499H61.2649Z" fill="#2D2B2B"/>
<path d="M59.8313 35.4055C59.8313 35.8438 59.809 36.2895 59.7942 36.7278C59.7942 36.9432 59.7793 37.1587 59.7793 37.3741C59.7793 37.4855 59.7793 37.5969 59.7793 37.701C59.7793 37.7975 59.7793 37.909 59.8239 37.9981C59.8462 38.0278 59.8684 37.9981 59.8833 37.9832C59.9279 37.8941 59.9056 37.7827 59.9056 37.6861C59.9056 37.5747 59.9056 37.4632 59.9056 37.3592C59.9056 37.1364 59.9056 36.9209 59.9056 36.6981C59.913 36.2598 59.913 35.8289 59.8759 35.398C59.8759 35.3312 59.8313 35.3609 59.8313 35.4129V35.4055Z" fill="#2D2B2B"/>
<path d="M36.7353 39.521C36.349 40.5462 36.1484 41.6977 36.4381 42.7749C36.4753 42.9234 36.5273 43.0646 36.5867 43.1983C36.6164 43.2652 36.6536 43.3172 36.6981 43.3766C36.7353 43.4286 36.7724 43.4806 36.8244 43.5177C36.8616 43.54 36.869 43.4509 36.8616 43.436C36.7873 43.1166 36.6387 42.8194 36.557 42.5C36.4827 42.2028 36.453 41.8908 36.4604 41.5862C36.4604 40.9399 36.6164 40.2936 36.8096 39.6771C36.8244 39.625 36.8319 39.5582 36.8096 39.5136C36.7873 39.4765 36.7576 39.469 36.7353 39.5136V39.521Z" fill="#2D2B2B"/>
<path d="M37.716 39.521C37.3297 40.5462 37.1291 41.6977 37.4188 42.7749C37.456 42.9234 37.508 43.0646 37.5674 43.1983C37.5971 43.2652 37.6343 43.3172 37.6788 43.3766C37.716 43.4286 37.7531 43.4806 37.8051 43.5177C37.8423 43.54 37.8497 43.4509 37.8423 43.436C37.768 43.1166 37.6194 42.8194 37.5377 42.5C37.4634 42.2028 37.4337 41.8908 37.4411 41.5862C37.4411 40.9399 37.5971 40.2936 37.7903 39.6771C37.8051 39.625 37.8126 39.5582 37.7903 39.5136C37.768 39.4765 37.7383 39.469 37.716 39.5136V39.521Z" fill="#2D2B2B"/>
<path d="M38.6965 39.521C38.3102 40.5462 38.1096 41.6977 38.3993 42.7749C38.4365 42.9234 38.4885 43.0646 38.5479 43.1983C38.5776 43.2652 38.6147 43.3172 38.6593 43.3766C38.6965 43.4286 38.7336 43.4806 38.7856 43.5177C38.8228 43.54 38.8302 43.4509 38.8227 43.436C38.7485 43.1166 38.5925 42.8194 38.5182 42.5C38.4439 42.2028 38.4142 41.8908 38.4216 41.5862C38.4216 40.9399 38.5776 40.2936 38.7707 39.6771C38.7856 39.625 38.793 39.5582 38.7707 39.5136C38.7485 39.4765 38.7187 39.469 38.6965 39.5136V39.521Z" fill="#2D2B2B"/>
<path d="M39.6772 39.521C39.2909 40.5462 39.0903 41.6977 39.38 42.7749C39.4172 42.9234 39.4692 43.0646 39.5286 43.1983C39.5583 43.2652 39.5955 43.3172 39.64 43.3766C39.6772 43.4286 39.7143 43.4806 39.7663 43.5177C39.8035 43.54 39.8109 43.4509 39.8035 43.436C39.7292 43.1166 39.5806 42.8194 39.4989 42.5C39.4246 42.2028 39.3949 41.8908 39.4023 41.5862C39.4023 40.9399 39.5583 40.2936 39.7515 39.6771C39.7663 39.625 39.7737 39.5582 39.7515 39.5136C39.7292 39.4765 39.6995 39.469 39.6772 39.5136V39.521Z" fill="#2D2B2B"/>
<path d="M40.6576 39.521C40.2713 40.5462 40.0708 41.6977 40.3605 42.7749C40.3976 42.9234 40.4496 43.0646 40.5091 43.1983C40.5388 43.2652 40.5759 43.3172 40.6205 43.3766C40.6576 43.4286 40.6948 43.4806 40.7468 43.5177C40.7839 43.54 40.7914 43.4509 40.7839 43.436C40.7096 43.1166 40.5611 42.8194 40.4794 42.5C40.4051 42.2028 40.3753 41.8908 40.3828 41.5862C40.3828 40.9399 40.5388 40.2936 40.7319 39.6771C40.7468 39.625 40.7542 39.5582 40.7319 39.5136C40.7096 39.4765 40.6799 39.469 40.6576 39.5136V39.521Z" fill="#2D2B2B"/>
<path d="M41.6384 39.521C41.2521 40.5462 41.0515 41.6977 41.3412 42.7749C41.3783 42.9234 41.4303 43.0646 41.4898 43.1983C41.5195 43.2652 41.5566 43.3172 41.6012 43.3766C41.6384 43.4286 41.6755 43.4806 41.7275 43.5177C41.7646 43.54 41.7721 43.4509 41.7646 43.436C41.6904 43.1166 41.5418 42.8194 41.4601 42.5C41.3858 42.2028 41.3561 41.8908 41.3635 41.5862C41.3635 40.9399 41.5195 40.2936 41.7126 39.6771C41.7275 39.625 41.7349 39.5582 41.7126 39.5136C41.6904 39.4765 41.6606 39.469 41.6384 39.5136V39.521Z" fill="#2D2B2B"/>
<path d="M42.6188 39.521C42.2325 40.5462 42.032 41.6977 42.3217 42.7749C42.3588 42.9234 42.4108 43.0646 42.4702 43.1983C42.5 43.2652 42.5371 43.3172 42.5817 43.3766C42.6188 43.4286 42.656 43.4806 42.708 43.5177C42.7451 43.54 42.7525 43.4509 42.7451 43.436C42.6708 43.1166 42.5223 42.8194 42.4405 42.5C42.3662 42.2028 42.3365 41.8908 42.344 41.5862C42.344 40.9399 42.5 40.2936 42.6931 39.6771C42.708 39.625 42.7154 39.5582 42.6931 39.5136C42.6708 39.4765 42.6411 39.469 42.6188 39.5136V39.521Z" fill="#2D2B2B"/>
<path d="M82.7416 39.6621C82.9422 40.2787 83.0907 40.9175 83.0982 41.5638C83.0982 41.8684 83.0685 42.1804 83.0016 42.4776C82.9645 42.6262 82.9199 42.7673 82.8679 42.9085C82.801 43.0719 82.7342 43.2502 82.697 43.421C82.697 43.4433 82.697 43.5399 82.7342 43.5176C82.8159 43.473 82.8976 43.3468 82.9422 43.265C83.009 43.1462 83.0462 43.005 83.0907 42.8713C83.1725 42.6113 83.2245 42.3364 83.2393 42.0616C83.2839 41.5044 83.217 40.9398 83.0907 40.3975C83.0165 40.093 82.9273 39.8032 82.8159 39.5135C82.801 39.4689 82.7713 39.4764 82.749 39.5061C82.7193 39.5432 82.7267 39.6175 82.7416 39.6547V39.6621Z" fill="#2D2B2B"/>
<path d="M81.7611 39.6621C81.9617 40.2787 82.1103 40.9175 82.1177 41.5638C82.1177 41.8684 82.088 42.1804 82.0211 42.4776C81.984 42.6262 81.9394 42.7673 81.8874 42.9085C81.8206 43.0719 81.7537 43.2502 81.7166 43.421C81.7166 43.4433 81.7166 43.5399 81.7537 43.5176C81.8354 43.473 81.9171 43.3468 81.9617 43.265C82.0286 43.1462 82.0657 43.005 82.1103 42.8713C82.192 42.6113 82.244 42.3364 82.2589 42.0616C82.3034 41.5044 82.2366 40.9398 82.1103 40.3975C82.036 40.093 81.9468 39.8032 81.8354 39.5135C81.8206 39.4689 81.7908 39.4764 81.7686 39.5061C81.7388 39.5432 81.7463 39.6175 81.7611 39.6547V39.6621Z" fill="#2D2B2B"/>
<path d="M80.7804 39.6621C80.981 40.2787 81.1296 40.9175 81.137 41.5638C81.137 41.8684 81.1073 42.1804 81.0404 42.4776C81.0033 42.6262 80.9587 42.7673 80.9067 42.9085C80.8398 43.0719 80.773 43.2502 80.7358 43.421C80.7358 43.4433 80.7358 43.5399 80.773 43.5176C80.8547 43.473 80.9364 43.3468 80.981 43.265C81.0478 43.1462 81.085 43.005 81.1296 42.8713C81.2113 42.6113 81.2633 42.3364 81.2781 42.0616C81.3227 41.5044 81.2559 40.9398 81.1296 40.3975C81.0553 40.093 80.9661 39.8032 80.8547 39.5135C80.8398 39.4689 80.8101 39.4764 80.7878 39.5061C80.7581 39.5432 80.7656 39.6175 80.7804 39.6547V39.6621Z" fill="#2D2B2B"/>
<path d="M79.7999 39.6621C80.0005 40.2787 80.1491 40.9175 80.1565 41.5638C80.1565 41.8684 80.1268 42.1804 80.0599 42.4776C80.0228 42.6262 79.9782 42.7673 79.9262 42.9085C79.8594 43.0719 79.7925 43.2502 79.7554 43.421C79.7554 43.4433 79.7554 43.5399 79.7925 43.5176C79.8742 43.473 79.9559 43.3468 80.0005 43.265C80.0674 43.1462 80.1045 43.005 80.1491 42.8713C80.2308 42.6113 80.2828 42.3364 80.2977 42.0616C80.3422 41.5044 80.2754 40.9398 80.1491 40.3975C80.0748 40.093 79.9857 39.8032 79.8742 39.5135C79.8594 39.4689 79.8297 39.4764 79.8074 39.5061C79.7777 39.5432 79.7851 39.6175 79.7999 39.6547V39.6621Z" fill="#2D2B2B"/>
<path d="M78.8192 39.6621C79.0198 40.2787 79.1684 40.9175 79.1758 41.5638C79.1758 41.8684 79.1461 42.1804 79.0792 42.4776C79.0421 42.6262 78.9975 42.7673 78.9455 42.9085C78.8787 43.0719 78.8118 43.2502 78.7747 43.421C78.7747 43.4433 78.7747 43.5399 78.8118 43.5176C78.8935 43.473 78.9752 43.3468 79.0198 43.265C79.0867 43.1462 79.1238 43.005 79.1684 42.8713C79.2501 42.6113 79.3021 42.3364 79.317 42.0616C79.3615 41.5044 79.2947 40.9398 79.1684 40.3975C79.0941 40.093 79.0049 39.8032 78.8935 39.5135C78.8787 39.4689 78.8489 39.4764 78.8267 39.5061C78.7969 39.5432 78.8044 39.6175 78.8192 39.6547V39.6621Z" fill="#2D2B2B"/>
<path d="M77.8388 39.6621C78.0393 40.2787 78.1879 40.9175 78.1953 41.5638C78.1953 41.8684 78.1656 42.1804 78.0988 42.4776C78.0616 42.6262 78.017 42.7673 77.965 42.9085C77.8982 43.0719 77.8313 43.2502 77.7942 43.421C77.7942 43.4433 77.7942 43.5399 77.8313 43.5176C77.913 43.473 77.9948 43.3468 78.0393 43.265C78.1062 43.1462 78.1433 43.005 78.1879 42.8713C78.2696 42.6113 78.3216 42.3364 78.3365 42.0616C78.3811 41.5044 78.3142 40.9398 78.1879 40.3975C78.1136 40.093 78.0245 39.8032 77.913 39.5135C77.8982 39.4689 77.8685 39.4764 77.8462 39.5061C77.8165 39.5432 77.8239 39.6175 77.8388 39.6547V39.6621Z" fill="#2D2B2B"/>
<path d="M76.858 39.6621C77.0586 40.2787 77.2072 40.9175 77.2146 41.5638C77.2146 41.8684 77.1849 42.1804 77.1181 42.4776C77.0809 42.6262 77.0363 42.7673 76.9843 42.9085C76.9175 43.0719 76.8506 43.2502 76.8135 43.421C76.8135 43.4433 76.8135 43.5399 76.8506 43.5176C76.9323 43.473 77.0141 43.3468 77.0586 43.265C77.1255 43.1462 77.1626 43.005 77.2072 42.8713C77.2889 42.6113 77.3409 42.3364 77.3558 42.0616C77.4003 41.5044 77.3335 40.9398 77.2072 40.3975C77.1329 40.093 77.0438 39.8032 76.9323 39.5135C76.9175 39.4689 76.8878 39.4764 76.8655 39.5061C76.8358 39.5432 76.8432 39.6175 76.858 39.6547V39.6621Z" fill="#2D2B2B"/>
<path opacity="0.8" d="M72.2968 25.0051C72.2968 25.0051 72.2597 25.4434 72.6089 25.5548C72.2003 26.3571 72.1334 26.8029 72.4528 26.9143C72.7723 27.0257 73.2254 26.1714 73.4706 25.9634C73.7157 25.7554 74.102 26.0005 74.5478 25.8074C74.9935 25.6143 74.9712 25.2948 75.2981 25.0125C75.6249 24.7302 75.6026 24.8045 76.457 24.5445C77.3113 24.2845 77.133 23.8313 77.497 23.8462C77.7644 23.8536 78.017 23.8091 77.9799 23.6011C77.861 22.9845 72.2894 25.0125 72.2894 25.0125L72.2968 25.0051Z" fill="white"/>
<path opacity="0.8" d="M73.7974 26.164C73.6859 26.1937 73.5819 26.2531 73.5225 26.3497C73.4631 26.4463 73.4556 26.58 73.5299 26.6691C73.5894 26.7434 73.6934 26.7657 73.7825 26.7731C73.9014 26.7806 74.0351 26.7657 74.1391 26.6988C74.2431 26.632 74.3174 26.5131 74.31 26.3943C74.3025 26.1045 73.9979 26.112 73.7974 26.164Z" fill="white"/>
<path opacity="0.8" d="M74.8524 25.956C74.6964 25.9486 74.5404 26.0303 74.533 26.1195C74.5256 26.216 74.6667 26.3052 74.8227 26.3052C74.9787 26.3052 75.1199 26.216 75.1199 26.1195C75.1199 26.0229 74.9713 25.9412 74.8153 25.9412H74.8599L74.8524 25.956Z" fill="white"/>
<path opacity="0.8" d="M74.8227 26.7954C74.7781 26.8697 74.6815 26.8846 74.6072 26.84C74.533 26.7954 74.5181 26.6989 74.5627 26.6246C74.6072 26.5503 74.7038 26.5354 74.7781 26.58C74.8524 26.6246 74.8672 26.7212 74.8227 26.7954Z" fill="white"/>
<path d="M28.8386 34.2019L29.2843 37.4854C29.3141 37.738 29.4106 37.9832 29.5666 38.1837L31.0078 40.0929C31.0078 40.0929 31.4684 39.6843 31.7136 38.9415C31.9587 38.1986 31.7136 37.5151 31.7136 37.5151C31.7136 37.5151 32.6719 37.7677 32.813 37.7083C32.9467 37.6489 32.7313 36.7871 32.1964 36.5345C31.6616 36.282 31.409 35.9997 31.2233 35.6728C31.0375 35.3534 30.7775 34.6773 30.3764 34.4619C29.9752 34.2465 28.8461 34.2019 28.8461 34.2019H28.8386Z" fill="#607C78"/>
<path d="M27.2563 32.6121C27.2563 32.6121 30.6215 33.7709 30.8073 33.8898C30.993 34.0087 31.9513 35.799 32.0033 35.8659C32.0553 35.9327 31.2084 35.9996 30.9558 35.747C30.7107 35.5019 30.213 34.6847 29.9678 34.551C29.7227 34.4173 29.0392 34.2167 29.0838 34.4173C29.1284 34.6178 29.5147 34.9893 29.7152 35.3013C29.9158 35.6133 29.9975 35.9624 29.8787 35.9624C29.7598 35.9624 28.9946 35.6356 28.6975 35.2121C28.4301 34.8333 27.9026 34.0978 27.6352 33.9715C27.3677 33.8378 26.7734 33.6372 26.7734 33.6372L26.3574 33.4738C26.3574 33.4738 26.5877 32.7904 27.2563 32.6121Z" fill="#FCC5B6"/>
<path d="M29.9827 35.658C30.0495 36.2969 30.3244 36.8763 30.8073 37.3072C31.045 37.5226 31.3273 37.6935 31.6319 37.8123C31.7804 37.8718 31.9439 37.9163 32.0999 37.9386C32.2484 37.9609 32.4416 37.9981 32.5753 37.9015C32.6422 37.8569 32.6347 37.6935 32.5753 37.6489C32.449 37.5598 32.2707 37.582 32.1296 37.5598C31.9736 37.5375 31.825 37.5078 31.6764 37.4558C31.3941 37.3592 31.1341 37.218 30.9038 37.0323C30.4804 36.6906 30.1461 36.1557 30.0272 35.6208C30.0198 35.5688 29.9975 35.6283 29.9975 35.6506L29.9827 35.658Z" fill="#C2D1D5"/>
<path d="M28.1774 29.6704C28.1774 29.6704 29.2322 28.8013 29.4625 28.7121C29.6928 28.623 30.3466 28.4818 30.6808 28.4967C31.0151 28.5115 31.0003 28.8756 30.7403 28.935C30.4728 28.9944 30.2426 29.0018 30.2426 29.0018C30.2426 29.0018 29.0019 29.9453 28.1699 29.6779L28.1774 29.6704Z" fill="#FCC5B6"/>
<path d="M29.7895 27.2783L28.4746 33.7859C28.4746 33.7859 29.2249 34.2019 30.5918 34.2019C31.9587 34.2019 32.293 33.9642 32.293 33.9642L31.357 28.1995L32.7016 28.0657L32.813 27.9097H33.0953V27.3897L32.8724 27.3674L32.8353 27.2114L29.8044 27.2857L29.7895 27.2783Z" fill="#C2D1D5"/>
<path d="M20.0131 44.3942L19.8794 45.9171C19.8794 45.9171 20.2211 46.4668 21.016 46.4891C21.8109 46.5188 22.316 45.8725 22.316 45.8725L21.8629 44.3496L20.0131 44.3942Z" fill="#FCC5B6"/>
<path d="M8.30536 36.2967C8.30536 36.2967 15.3107 34.0458 16.8559 33.3995C18.4011 32.7532 21.6697 32.144 22.0709 32.2183C22.4646 32.2852 23.6755 32.7532 23.7944 33.1172C23.9132 33.4812 22.7915 44.2232 22.7543 44.5129C22.7172 44.8027 22.1675 45.189 21.0309 45.1593C19.8942 45.1295 19.0994 44.3718 19.0994 44.3718L19.8868 36.6607C19.8868 36.6607 18.6982 37.3665 16.4176 38.0128C14.1369 38.6591 7.07218 39.3202 8.32021 36.3116L8.30536 36.2967Z" fill="#2E93B9"/>
<path d="M15.3999 28.3702C15.3999 28.3702 20.1469 32.1514 21.2241 32.508C22.2938 32.8646 22.7915 31.8394 22.0784 30.4354C21.3652 29.0314 17.5394 26.1267 17.5394 26.1267L15.3999 28.3628V28.3702Z" fill="#2E93B9"/>
<path d="M20.7264 30.064C20.7264 30.064 20.7189 29.6331 23.0961 30.4949C25.4808 31.3566 28.0214 32.5898 28.0214 32.5898C28.0214 32.5898 27.9768 33.1618 27.5683 33.7338C27.1671 34.3058 26.9294 34.4693 26.9294 34.4693C26.9294 34.4693 21.7812 32.8052 21.2167 32.5155C20.6521 32.2332 19.7829 31.4978 20.7264 30.064Z" fill="#2E93B9"/>
<path d="M16.165 21.573C16.165 21.573 15.9347 21.5358 15.853 20.9267C15.7713 20.3175 15.2958 18.4678 15.4296 18.0889C15.5633 17.71 16.217 16.6626 16.7296 16.4471C17.2422 16.2317 19.716 16.2317 20.2731 16.1351C20.8303 16.0386 20.9491 15.6597 21.224 15.7934C21.5063 15.9271 21.6697 16.5957 21.4246 16.9894C21.1794 17.3832 20.8154 17.7769 20.028 17.8735C19.2405 17.97 17.9108 18.022 17.9108 18.022C17.9108 18.022 17.9628 19.6341 17.9405 19.8272C17.9182 20.0204 16.633 21.5433 16.1724 21.573H16.165Z" fill="#5F2929"/>
<path d="M21.7737 21.4913C21.7737 21.6027 21.4097 21.8256 21.2759 21.8627C21.1645 21.8924 21.1274 21.885 21.1051 21.9296C21.0828 21.9667 21.0828 22.0782 21.0828 22.1153C21.0828 22.1822 21.0828 22.2713 21.0085 22.3456C21.0085 22.3902 20.9862 22.4793 20.9565 22.5536V22.5684C20.9342 22.613 20.9194 22.6502 20.9119 22.665V22.6799C20.9119 22.6799 20.8971 22.7096 20.8822 22.7319C20.8079 22.9027 20.6073 23.3336 20.5033 23.3559C20.3771 23.3782 18.6833 23.2445 18.2747 22.9919C17.8736 22.7319 17.7027 21.989 17.3833 21.157C16.9895 21.0976 16.4175 20.3844 16.4027 20.1764C16.3878 19.9684 16.3581 19.2626 16.8187 19.1735C17.2867 19.0918 17.6284 19.7604 17.6284 19.7604C17.6284 19.7604 17.6433 18.074 17.7398 17.8809C17.8364 17.6877 18.4976 17.1974 19.4262 17.2197C20.3548 17.242 20.4885 17.4797 20.8079 17.8437C21.1274 18.2078 21.3354 18.9655 21.3205 19.0026C21.3056 19.0398 21.1496 20.1615 21.1571 20.4067C21.1719 20.6518 21.7737 21.4021 21.7737 21.4913Z" fill="#FCC5B6"/>
<path d="M17.4651 20.3398C17.4651 20.3398 16.6257 21.2684 15.9719 21.6993C15.3182 22.1302 14.2039 22.6873 14.2039 22.6873C14.2039 22.6873 13.8102 23.6754 14.5233 24.2697C15.2365 24.864 16.4919 24.6783 16.8857 24.4108C17.2794 24.1508 18.2303 23.4822 18.3789 23.4674C18.5274 23.4525 20.5035 23.3485 20.5035 23.3485C20.5035 23.3485 18.4903 23.1776 18.26 22.5388C18.0297 21.8999 17.4651 20.3398 17.4651 20.3398Z" fill="#FCC5B6"/>
<path d="M12.369 42.6782L9.6946 42.8119C9.6946 42.8119 9.2043 43.3022 9.27116 44.06C9.33802 44.8103 9.95461 45.3749 10.7346 45.1669C11.5146 44.9589 12.6661 44.4017 12.6661 44.4017L12.3615 42.6782H12.369Z" fill="#FCC5B6"/>
<path d="M17.636 19.7604L17.688 20.1393C17.688 20.1393 17.9183 20.2879 18.0075 19.7604C18.0966 19.2256 18.0818 18.1558 18.0818 18.1558C18.0818 18.1558 19.5898 18.1558 20.199 17.9998C20.8081 17.8438 21.2241 17.3461 21.3653 17.0638C21.499 16.7815 18.9509 16.7592 18.2155 16.8038C17.48 16.8483 17.532 18.1707 17.5469 18.4752C17.5543 18.7798 17.6435 19.7604 17.6435 19.7604H17.636Z" fill="#5F2929"/>
<path d="M19.7458 19.5523C19.8275 19.4928 19.9018 19.426 19.9909 19.374C20.0429 19.3443 20.0949 19.3294 20.1469 19.3145C20.2064 19.2997 20.2584 19.3071 20.3178 19.3071C20.4441 19.3071 20.5778 19.3145 20.7041 19.3071C20.771 19.3071 20.8304 19.3071 20.8972 19.2997C20.9641 19.2997 21.031 19.2923 21.0755 19.2403C21.1052 19.2105 21.1127 19.1511 21.1127 19.1065C21.1127 19.0694 21.1127 18.9951 21.0681 18.9802C21.0087 18.9505 20.9418 18.9802 20.875 18.9802C20.8081 18.9802 20.7338 18.9802 20.6669 18.9877C20.5332 18.9877 20.3921 18.9951 20.2658 19.0471C20.2138 19.0694 20.1544 19.0991 20.1024 19.1288C20.0504 19.1585 19.9984 19.1883 19.9464 19.218C19.8424 19.2923 19.7681 19.3665 19.7161 19.4854C19.7161 19.4928 19.7161 19.5671 19.7309 19.5523H19.7458Z" fill="#5F2929"/>
<path d="M21.1944 19.0324V19.0547C21.1944 19.0695 21.1944 19.0769 21.1944 19.0918C21.1944 19.0992 21.1944 19.0769 21.1944 19.0844V19.0992V19.0918V19.1067V19.1215H21.1869C21.1869 19.1215 21.1869 19.1364 21.1869 19.1289C21.1869 19.1364 21.1795 19.1512 21.1721 19.1587V19.1884C21.1721 19.1884 21.1572 19.2255 21.1572 19.2404C21.1572 19.2478 21.1572 19.2627 21.1721 19.2701H21.1869C21.1944 19.2701 21.2018 19.2701 21.2092 19.2552C21.2092 19.2552 21.2241 19.2404 21.2241 19.2329C21.2241 19.2255 21.2315 19.2107 21.2389 19.2032C21.2464 19.1809 21.2538 19.1587 21.2538 19.1289C21.2538 19.1067 21.2538 19.0918 21.2538 19.0695C21.2538 19.0547 21.2538 19.0398 21.2389 19.0249C21.2389 19.0175 21.2315 19.0027 21.2167 19.0101C21.2092 19.0101 21.2018 19.0324 21.2018 19.0398L21.1944 19.0324Z" fill="#5F2929"/>
<path d="M19.8943 19.9313C19.9909 19.8793 20.08 19.7975 20.1766 19.7455C20.288 19.6861 20.3995 19.6415 20.5258 19.6341C20.7338 19.6192 20.9789 19.7158 21.0384 19.9313C21.0384 19.9535 21.0606 19.9758 21.0755 19.9535C21.0978 19.9313 21.0904 19.8793 21.0829 19.8495C21.0161 19.6267 20.8006 19.4855 20.5703 19.493C20.4441 19.493 20.3178 19.545 20.1989 19.6044C20.08 19.6712 19.9612 19.753 19.872 19.857C19.872 19.8644 19.8646 19.9238 19.8869 19.9164L19.8943 19.9313Z" fill="#2D2B2B"/>
<path d="M20.8748 19.8124C20.8748 19.9535 20.8079 20.065 20.7262 20.065C20.6445 20.065 20.5776 19.9535 20.5776 19.8124C20.5776 19.6712 20.6445 19.5598 20.7262 19.5598C20.8079 19.5598 20.8748 19.6712 20.8748 19.8124Z" fill="#2D2B2B"/>
<path d="M16.5513 19.9165C16.6256 19.6639 16.8559 19.4782 17.1308 19.545C17.2571 19.5822 17.3759 19.6713 17.4205 19.7976C17.4651 19.9165 17.4205 20.0428 17.3462 20.1319L17.3908 20.2953C17.4354 20.2359 17.4354 20.1393 17.4056 20.0725C17.3834 20.013 17.3314 19.9833 17.2719 19.9685C17.1605 19.9388 17.0119 19.9685 16.9451 20.0799C16.8708 20.1913 16.8633 20.3696 16.9451 20.4885C17.0045 20.5776 17.1754 20.6222 17.2199 20.5033C17.2348 20.4588 17.2422 20.3696 17.1976 20.3325C17.1754 20.3176 17.1456 20.3325 17.1234 20.3325C17.0936 20.3325 17.0714 20.3325 17.0491 20.3176C17.0268 20.3102 17.0119 20.2953 16.9971 20.2805C16.9599 20.2433 17.0342 20.2953 16.9971 20.2879C16.9971 20.2879 16.9971 20.2656 17.0045 20.2656C17.0342 20.2062 17.1011 20.1616 17.1679 20.1542C17.2051 20.1542 17.2348 20.1542 17.2719 20.1542C17.2868 20.1542 17.3091 20.1616 17.3239 20.169C17.3314 20.169 17.3388 20.1765 17.3462 20.1839C17.3685 20.2136 17.3759 20.1913 17.3536 20.1245C17.3314 20.1616 17.3314 20.2136 17.3388 20.2582C17.3388 20.2805 17.3685 20.3251 17.3982 20.2879C17.5617 20.065 17.5691 19.7085 17.3685 19.5079C17.1828 19.3222 16.8708 19.2925 16.6776 19.4856C16.5662 19.5896 16.5068 19.7382 16.5291 19.8942C16.5291 19.9165 16.5513 19.9313 16.5588 19.9016L16.5513 19.9165Z" fill="#ED998E"/>
<path d="M17.4131 20.6444C17.2942 20.7187 17.2422 20.8524 17.2274 20.9861C17.2125 21.157 17.2645 21.2981 17.3462 21.4467C17.5097 21.7661 17.688 22.0856 17.8663 22.3902C18.0297 22.665 18.1783 22.9919 18.4754 23.1553C18.7503 23.3113 19.0846 23.3188 19.3892 23.341C19.7606 23.3708 19.9315 23.3856 20.3029 23.3856C20.5035 23.3856 20.5258 23.3559 20.5332 23.3336C20.2435 23.3113 19.8646 23.2742 19.5452 23.2445C19.2777 23.2222 19.0251 23.1702 18.7577 23.1033C18.468 23.029 18.2674 22.7616 18.1114 22.5164C17.948 22.2564 17.792 21.989 17.636 21.7216C17.5394 21.5581 17.4428 21.3947 17.3537 21.2313C17.2497 21.0456 17.3165 20.8747 17.4205 20.7038C17.4205 20.6964 17.428 20.6221 17.4057 20.637L17.4131 20.6444Z" fill="#ED998E"/>
<path d="M21.0085 22.3455L20.0576 22.1152V22.1004C20.2359 22.1152 20.6519 22.1375 20.8228 22.1078C21.0531 22.0707 21.0828 22.1078 21.0828 22.1078C21.0828 22.1747 21.0828 22.2638 21.0085 22.3381V22.3455Z" fill="#ED998E"/>
<path d="M20.9567 22.5535V22.5684C20.9344 22.6129 20.9195 22.6501 20.9121 22.6649V22.6798L20.4961 22.4124C20.4961 22.4124 20.719 22.5089 20.8007 22.5386C20.9047 22.5758 20.9641 22.5609 20.9641 22.5609L20.9567 22.5535Z" fill="#ED998E"/>
<path d="M13.6318 22.6798L14.6496 21.8032C14.6496 21.8032 15.5485 22.1375 16.2171 22.8953C16.8856 23.653 17.3017 24.5667 17.3017 24.5667L14.7387 24.8119L13.6318 22.6798Z" fill="#2E93B9"/>
<path d="M28.103 29.7074C28.1699 29.6777 30.0568 28.8456 30.2722 28.8085C30.4877 28.7788 31.7283 28.8605 31.9808 29.0239C32.07 29.0834 32.2111 29.388 31.9808 29.6034C32.382 29.8857 32.0774 30.2794 32.0774 30.2794C32.0774 30.2794 32.1963 30.7251 31.914 30.9926C31.7803 31.3937 31.5351 31.4754 31.3865 31.4903C31.29 31.4977 30.8071 31.468 30.4728 31.4457C30.2648 31.4309 30.0494 31.4012 29.8488 31.364L28.103 31.0446V29.7V29.7074Z" fill="#FCC5B6"/>
<path d="M15.4667 24.0914C15.4667 24.0914 14.4341 24.6486 14.2558 25.8298C14.0775 27.0109 16.4473 28.8978 18.4679 29.9602C20.4811 31.0225 21.5732 31.3493 22.3383 31.0819C23.1035 30.8145 21.484 28.7493 20.184 27.2487C18.884 25.7406 17.4725 24.24 16.6405 24.0914C15.8159 23.9428 15.4593 24.0914 15.4593 24.0914H15.4667Z" fill="#2E93B9"/>
<path d="M20.1767 29.2097C20.1767 29.2097 20.4739 28.7566 21.5288 28.6303C22.5836 28.504 28.4747 29.4252 28.4747 29.4252C28.4747 29.4252 28.6084 29.7372 28.5935 30.3389C28.5787 30.9406 28.4078 31.4978 28.4078 31.4978L21.7739 31.1635C21.7739 31.1635 19.6641 30.5692 20.1767 29.2023V29.2097Z" fill="#2E93B9"/>
<path d="M17.4725 28.2589L13.2084 36.7574C13.2084 36.7574 11.9306 36.8242 10.6009 36.7574C7.82995 36.6162 6.2922 36.4454 6.06933 36.0962C5.84647 35.7396 6.76764 31.0669 8.17168 28.2589C9.56829 25.4582 12.1461 23.3336 12.6661 22.9473C13.1787 22.561 13.6244 22.6798 13.6244 22.6798C13.6244 22.6798 17.7474 24.2027 17.4725 28.2589Z" fill="#2E93B9"/>
<path d="M12.1015 42.1209C12.0718 42.2101 11.4849 43.1758 11.9752 44.1936C12.4729 45.2187 13.3347 45.6793 13.3347 45.6793C13.3347 45.6793 22.4721 43.2055 23.4601 42.5221C24.4481 41.8386 24.6339 41.4672 24.7304 41.066C24.8196 40.6649 24.6116 39.6694 24.1584 39.298C23.7053 38.9266 23.111 38.0054 19.0846 37.2922C15.0582 36.5791 12.2501 36.3562 12.2501 36.3562L6.06934 36.0962C6.06934 36.0962 5.66076 39.6249 6.44821 40.8878C7.19109 42.0764 7.74082 42.4552 10.4895 42.4924C11.3289 42.5072 12.1015 42.1209 12.1015 42.1209Z" fill="#282C66"/>
<path d="M10.6603 42.7673C10.6603 42.7673 10.5637 42.5593 10.3334 42.5147C10.1031 42.4775 8.26077 42.4627 8.22363 42.6781C8.1642 43.005 8.22363 46.6154 8.31277 46.9422C8.40935 47.2691 9.10023 48.0863 9.43452 48.2349C9.76882 48.3834 10.9574 48.4057 11.3214 48.3017C11.6854 48.1903 12.77 47.0982 12.7849 46.8977C12.7998 46.6971 11.366 46.4965 11.2546 46.4891C11.1431 46.4817 10.846 45.7685 10.8386 45.6794C10.8237 45.5902 11.6334 44.8622 11.6334 44.8622C11.6334 44.8622 11.6854 44.461 11.2397 44.5056C10.794 44.5427 10.4671 44.6913 10.1848 44.5279C9.90253 44.3645 9.70939 43.8519 10.014 43.5399C10.3111 43.2279 10.6677 42.7673 10.6677 42.7673H10.6603Z" fill="#2E93B9"/>
<path d="M19.9091 45.2559C19.9091 45.2559 19.5748 45.5456 19.5154 45.7759C19.4485 46.0062 19.4188 48.22 19.4708 48.2497C19.5228 48.2794 22.7766 48.3983 23.4526 48.3611C24.1287 48.324 24.931 48.2645 25.3247 48.1011C25.7184 47.9451 26.179 47.0611 26.1493 46.8977C26.127 46.7417 25.9859 46.6674 25.815 46.6525C25.6516 46.6376 24.2104 46.5559 23.8687 46.4816C23.5269 46.4074 22.5166 45.6868 22.4052 45.5902C22.2938 45.4936 22.0709 45.2188 21.9817 45.2188C21.8926 45.2188 21.8035 45.3748 21.692 45.6422C21.5806 45.9096 21.224 45.9616 21.0977 45.9691C20.9714 45.9839 20.4588 45.9468 20.3251 45.8353C20.184 45.7239 19.9165 45.2559 19.9165 45.2559H19.9091Z" fill="#2E93B9"/>
<path d="M16.4548 24.0839C16.1725 24.0245 15.9051 24.0245 15.6302 24.0987C15.3628 24.173 15.1102 24.2993 14.8948 24.4702C14.4565 24.8342 14.2113 25.3765 14.1816 25.9411C14.1519 26.5428 14.3747 27.0851 14.7685 27.5383C14.969 27.7686 15.1993 27.9691 15.4371 28.1623C15.6971 28.3703 15.9571 28.5783 16.2171 28.7789C16.752 29.1875 17.2943 29.5886 17.8663 29.9452C18.3937 30.2721 18.9434 30.5469 19.5155 30.7921C20.3549 31.1561 21.2389 31.4309 22.1527 31.535C22.7618 31.6092 23.3784 31.5944 23.995 31.5721C24.3293 31.5647 24.6562 31.5498 24.9905 31.535C25.3099 31.5201 25.6368 31.5127 25.9636 31.483C26.1196 31.4681 26.2756 31.4532 26.4316 31.4384C26.4762 31.4384 26.4762 31.2898 26.4316 31.2898C25.8076 31.2378 25.191 31.2749 24.567 31.2972C23.9653 31.3195 23.3561 31.3492 22.7544 31.3195C21.7069 31.2824 20.6743 31.0149 19.7086 30.6138C19.3372 30.4578 18.9583 30.3018 18.6017 30.1086C18.0297 29.8115 17.4948 29.4623 16.9674 29.0909C16.4474 28.7194 15.9422 28.3183 15.4445 27.9171C14.9913 27.5531 14.5307 27.1223 14.3525 26.5502C14.189 26.0154 14.3153 25.4136 14.6496 24.9679C14.9765 24.5296 15.5188 24.2547 16.0611 24.2102C16.1948 24.2027 16.3285 24.1879 16.4622 24.2027C16.4994 24.2027 16.4994 24.0913 16.4622 24.0839H16.4548Z" fill="white"/>
<path d="M20.3177 29.0314C20.8972 28.92 21.4766 28.8159 22.0635 28.7937C22.3532 28.7788 22.6504 28.7862 22.9401 28.8085C23.2298 28.8308 23.527 28.8977 23.8241 28.868C23.8464 28.868 23.839 28.8011 23.8241 28.7937C23.5641 28.6599 23.2595 28.6302 22.9698 28.6005C22.6652 28.5708 22.3607 28.5634 22.0561 28.5782C21.4544 28.6079 20.8675 28.7045 20.3103 28.9274C20.288 28.9348 20.288 29.0388 20.3177 29.0388V29.0314Z" fill="white"/>
<path d="M13.7581 22.6724C13.8993 22.8656 14.0775 23.0439 14.2707 23.1776C14.3673 23.2444 14.4638 23.3113 14.5678 23.3559C14.6644 23.4004 14.7833 23.4524 14.8947 23.4376C14.9096 23.4376 14.9096 23.393 14.8947 23.3856C14.8056 23.3039 14.7016 23.2444 14.5976 23.1776C14.501 23.1181 14.397 23.0587 14.3004 22.9844C14.1147 22.8507 13.9364 22.7021 13.7804 22.5313C13.7581 22.509 13.7433 22.5313 13.7358 22.561C13.7284 22.5907 13.7358 22.6353 13.7507 22.665L13.7581 22.6724Z" fill="white"/>
<path d="M11.2323 24.3068C11.4626 24.7748 11.8563 25.1537 12.2797 25.4434C12.4952 25.5846 12.7255 25.7109 12.9706 25.8074C13.0895 25.852 13.2083 25.8891 13.3346 25.9189C13.4015 25.9337 13.4609 25.9486 13.5278 25.9634C13.5575 25.9634 13.5872 25.9709 13.6095 25.9709C13.6541 25.9709 13.6763 25.9411 13.7209 25.9337C13.7506 25.9337 13.7506 25.8446 13.7209 25.8371C13.6838 25.8149 13.6541 25.7851 13.6169 25.7629C13.5946 25.7554 13.5723 25.748 13.5501 25.7406C13.4832 25.7257 13.4238 25.7109 13.3569 25.696C13.2306 25.6663 13.1118 25.6217 12.9929 25.5771C12.7626 25.488 12.5397 25.3766 12.3243 25.2428C11.9009 24.968 11.5666 24.604 11.262 24.2028C11.2248 24.1582 11.2174 24.2845 11.2323 24.3068Z" fill="white"/>
<path d="M10.274 25.265C10.6603 25.6811 11.1432 26.0079 11.6335 26.2828C12.1312 26.5651 12.6512 26.7879 13.1935 26.9588C13.3347 27.0034 13.4832 27.048 13.6244 27.0777C13.773 27.1148 13.9587 27.1371 14.1072 27.0925C14.1221 27.0925 14.1221 27.0405 14.1072 27.0331C13.8695 26.8771 13.5649 26.8325 13.2975 26.7582C13.0301 26.6765 12.7626 26.5874 12.5026 26.4759C11.99 26.2605 11.4997 25.9931 11.0392 25.6811C10.7792 25.5102 10.5414 25.317 10.2889 25.1388C10.2517 25.1165 10.2517 25.2353 10.274 25.2576V25.265Z" fill="white"/>
<path d="M14.7833 28.036C14.5456 28.5263 14.3524 29.0315 14.1593 29.5366C13.9587 30.0492 13.773 30.5692 13.5872 31.0892C13.2158 32.1219 12.8592 33.1619 12.5324 34.2019C12.3466 34.8036 12.1461 35.4054 12.0198 36.0294C12.0198 36.0368 12.0272 36.0814 12.0346 36.0517C12.2352 35.5614 12.3764 35.0488 12.5324 34.5436C12.6958 34.0162 12.8667 33.4887 13.0449 32.9613C13.3867 31.9287 13.7581 30.9035 14.1444 29.8858C14.3673 29.2915 14.605 28.712 14.8056 28.1103C14.813 28.088 14.7981 27.9915 14.7759 28.036H14.7833Z" fill="white"/>
<path d="M22.2121 40.6352C21.9743 40.4644 21.7218 40.3381 21.4469 40.2638C21.1646 40.1895 20.8749 40.1523 20.5852 40.1523C19.924 40.1523 19.2777 40.3232 18.6388 40.4718C17.3165 40.7838 15.9867 41.1032 14.6644 41.4152C13.9141 41.5935 13.1638 41.757 12.4284 41.9798C12.3764 41.9947 12.3838 42.1655 12.4284 42.1581C13.0895 42.0541 13.7433 41.8832 14.397 41.7347C15.0507 41.5861 15.7119 41.4301 16.3656 41.2815C17.0268 41.1329 17.6879 40.9769 18.3491 40.8209C18.988 40.6724 19.6268 40.5015 20.288 40.4495C20.9343 40.3975 21.6252 40.4718 22.1898 40.8061C22.2343 40.8358 22.2418 40.6575 22.2046 40.6278L22.2121 40.6352Z" fill="white"/>
<path d="M19.3223 36.8985C19.6194 36.7871 19.9091 36.6682 20.1914 36.5048C20.4663 36.3488 20.7263 36.1705 20.9789 35.9699C21.484 35.5762 21.9743 35.1156 22.2863 34.551C22.2863 34.5362 22.2863 34.4545 22.2715 34.4693C22.0486 34.6773 21.848 34.9151 21.6326 35.1379C21.4172 35.3608 21.1795 35.5688 20.9343 35.7694C20.6892 35.9625 20.4291 36.1408 20.1617 36.3042C19.8868 36.4751 19.5971 36.646 19.3074 36.7871C19.2777 36.802 19.2851 36.906 19.3223 36.8985Z" fill="white"/>
<path d="M6.69327 40.7022C7.01271 40.4124 7.28757 40.0633 7.56244 39.7364C7.63673 39.6547 7.70359 39.5656 7.77787 39.4839L7.8373 39.4096C7.87445 39.3724 7.86702 39.3576 7.93388 39.365C7.98588 39.3724 8.04531 39.4021 8.09731 39.4244C8.30532 39.4987 8.51332 39.5804 8.72133 39.6621C9.12991 39.8256 9.53849 40.0039 9.93222 40.197C10.3111 40.3827 10.6974 40.561 11.0391 40.8062C11.2174 40.9325 11.3808 41.0885 11.4848 41.2816C11.5368 41.3708 11.574 41.4673 11.5888 41.5713C11.6037 41.6679 11.5888 41.7719 11.5888 41.8759C11.5888 41.9056 11.6186 42.0468 11.6706 41.9799C11.7597 41.8611 11.7448 41.6605 11.73 41.5193C11.7151 41.3633 11.6631 41.2073 11.5888 41.0662C11.4403 40.7913 11.2025 40.5833 10.9425 40.4199C10.6528 40.2416 10.3408 40.093 10.0288 39.9444C9.70935 39.7959 9.38992 39.6547 9.05562 39.5359C8.8699 39.469 8.69161 39.4021 8.49846 39.3427C8.29046 39.2758 8.07502 39.2238 7.86702 39.157C7.85216 39.157 7.84473 39.157 7.8373 39.1644C7.63673 39.3947 7.43615 39.6176 7.243 39.8553C7.04242 40.093 6.83442 40.3307 6.65613 40.5907C6.64127 40.6056 6.65613 40.717 6.67841 40.6947L6.69327 40.7022Z" fill="white"/>
<path d="M13.6763 36.5866C14.8575 36.8169 16.0535 36.9654 17.2422 37.166C18.5348 37.3814 19.8199 37.6563 21.0828 38.0129C21.4691 38.1243 21.8554 38.2432 22.2417 38.362C22.6354 38.4883 23.0292 38.6295 23.4303 38.7483C23.4823 38.7632 23.4823 38.6146 23.4452 38.5998C22.7914 38.3026 22.0857 38.0946 21.3948 37.8866C20.7411 37.6935 20.0725 37.5226 19.4039 37.374C18.1708 37.0917 16.9227 36.8837 15.6673 36.7054C15.0061 36.6163 14.3449 36.5346 13.6763 36.49C13.6466 36.49 13.6466 36.5791 13.6763 36.5866Z" fill="white"/>
<path d="M19.9241 47.8635C20.7858 47.9601 21.655 47.9304 22.5242 47.923C22.9476 47.923 23.3785 47.923 23.8019 47.923C24.1808 47.923 24.5671 47.8933 24.9311 47.7521C25.2728 47.6184 25.5997 47.3807 25.6962 47.0092C25.6962 47.0092 25.6962 46.9424 25.6814 46.9572C25.5774 47.0538 25.4957 47.1652 25.3917 47.2544C25.2728 47.3584 25.1317 47.4475 24.9905 47.5144C24.6414 47.6704 24.2551 47.715 23.8762 47.7298C23.0367 47.7595 22.1973 47.7298 21.3578 47.7298C20.8824 47.7298 20.407 47.7298 19.9315 47.7893C19.9092 47.7893 19.9092 47.871 19.9315 47.871L19.9241 47.8635Z" fill="white"/>
<path d="M22.1823 46.5188C22.264 46.5188 22.3457 46.5188 22.42 46.4891C22.4943 46.4668 22.5685 46.4371 22.6354 46.4C22.7023 46.3628 22.7766 46.3257 22.836 46.2885C22.9177 46.2365 22.9697 46.1697 23.0143 46.0805C23.0143 46.0731 23.0291 46.0137 23.0068 46.0137C22.9326 46.0137 22.8806 46.0582 22.8211 46.0954C22.7543 46.14 22.6874 46.1845 22.6131 46.2291C22.5463 46.2663 22.472 46.3034 22.3977 46.3331C22.316 46.3628 22.2491 46.4074 22.1674 46.4371C22.1525 46.4445 22.1525 46.5188 22.1674 46.5188H22.1823Z" fill="white"/>
<path d="M22.9921 46.7937C23.0515 46.7937 23.1109 46.7937 23.1703 46.7788C23.2298 46.7714 23.2818 46.7342 23.3338 46.7119C23.4378 46.6525 23.5492 46.5634 23.5938 46.4445C23.5938 46.4297 23.6012 46.3628 23.5789 46.3628C23.5269 46.3702 23.4972 46.4148 23.4601 46.4445C23.4155 46.4817 23.3709 46.5188 23.3189 46.5485C23.2669 46.5782 23.2149 46.6005 23.1629 46.6302C23.1109 46.6599 23.0515 46.6897 22.9921 46.7119C22.9698 46.7194 22.9698 46.8085 22.9921 46.8011V46.7937Z" fill="white"/>
<path d="M8.95172 42.9903C8.83286 43.9337 8.82543 44.8772 8.89972 45.8281C8.92944 46.2218 8.98887 46.6378 9.23402 46.9572C9.45688 47.2395 9.78375 47.4327 10.1329 47.5293C10.6158 47.663 11.1284 47.6333 11.6261 47.6036C11.6855 47.6036 11.6781 47.4104 11.6261 47.4104C10.8758 47.455 9.97689 47.4995 9.39745 46.9275C9.10773 46.6378 9.02601 46.2515 8.99629 45.8578C8.95915 45.4195 8.94429 44.9812 8.94429 44.5429C8.94429 44.0303 8.95172 43.5177 8.98144 43.0051C8.98144 42.9828 8.96658 42.9531 8.95915 42.9903H8.95172Z" fill="white"/>
<path d="M10.6974 46.541C10.8608 46.5707 11.0317 46.6005 11.2026 46.6079C11.3586 46.6227 11.5369 46.6599 11.6929 46.6005C11.7152 46.593 11.7077 46.5187 11.6929 46.5113C11.5443 46.437 11.366 46.4445 11.2026 46.4296C11.0317 46.4147 10.8683 46.4147 10.7048 46.4296C10.6677 46.4296 10.6751 46.5336 10.7048 46.541H10.6974Z" fill="white"/>
<path d="M29.3287 29.1503C29.4996 29.1355 29.6705 29.0537 29.8339 29.0166C30.0048 28.972 30.183 28.9423 30.3539 28.9274C30.5322 28.9126 30.7105 28.9126 30.8814 28.92C30.9705 28.92 31.0596 28.9274 31.1488 28.9423C31.2379 28.9497 31.3196 28.972 31.4088 28.9572C31.4385 28.9572 31.4311 28.8606 31.4088 28.8457C31.2602 28.7714 31.0596 28.7714 30.8888 28.764C30.7031 28.7566 30.5248 28.764 30.339 28.7863C30.1608 28.8086 29.9899 28.8383 29.819 28.8829C29.6482 28.9274 29.455 28.972 29.3139 29.076C29.299 29.0835 29.299 29.1503 29.3139 29.1503H29.3287Z" fill="#ED998E"/>
<path d="M31.0078 29.6108C31.0969 29.6108 31.1786 29.6257 31.2678 29.6405C31.3569 29.6554 31.4386 29.6628 31.5278 29.6703C31.6169 29.6703 31.6986 29.6703 31.7878 29.6703H31.9067C31.9512 29.6703 31.9958 29.6777 32.0329 29.6703C32.0552 29.6628 32.0478 29.5811 32.0329 29.5737C31.9958 29.5588 31.9512 29.5588 31.9067 29.5588H31.7878C31.6986 29.5588 31.6169 29.544 31.5278 29.5514C31.4386 29.5514 31.3569 29.5514 31.2678 29.5663C31.1786 29.5737 31.0969 29.5811 31.0078 29.5811C31.0003 29.5811 31.0003 29.6108 31.0078 29.6108Z" fill="#ED998E"/>
<path d="M31.3421 30.287C31.3421 30.287 31.4089 30.3167 31.4461 30.3241C31.4758 30.3241 31.5129 30.3241 31.5501 30.3241C31.6169 30.3241 31.6838 30.3241 31.7506 30.3167C31.8249 30.3167 31.8918 30.3167 31.9661 30.3018C32.0106 30.3018 32.0924 30.3018 32.0849 30.235C32.0849 30.1681 32.0106 30.1755 31.9586 30.1755C31.8844 30.1755 31.8175 30.1755 31.7432 30.1755C31.6764 30.1755 31.6095 30.1755 31.5426 30.1755C31.5129 30.1755 31.4758 30.1755 31.4386 30.183C31.4015 30.1904 31.3718 30.2053 31.3346 30.2201C31.3198 30.2201 31.3198 30.287 31.3346 30.2944L31.3421 30.287Z" fill="#ED998E"/>
<path d="M30.6289 29.1875C30.8072 29.4549 30.8741 29.7372 30.8221 30.0492C30.7998 30.1978 30.7552 30.3464 30.6958 30.4801C30.6289 30.6287 30.5249 30.755 30.4729 30.9035C30.4729 30.9184 30.458 31.0373 30.4952 31.0224C30.5769 30.9927 30.6215 30.9184 30.6586 30.8441C30.7032 30.7624 30.7478 30.6807 30.7849 30.5915C30.8592 30.4132 30.9038 30.2201 30.9261 30.0269C30.9409 29.8487 30.9409 29.6629 30.8963 29.4846C30.8741 29.4029 30.8443 29.3138 30.8072 29.2395C30.7626 29.1652 30.7255 29.1281 30.6438 29.0983C30.6141 29.0835 30.6215 29.1726 30.6363 29.1801L30.6289 29.1875Z" fill="#ED998E"/>
<path d="M31.2157 30.9629C31.2157 30.9629 31.2751 30.9926 31.3048 31.0075C31.3271 31.0149 31.3568 31.0149 31.3791 31.0224C31.4386 31.0298 31.498 31.0372 31.5648 31.0446L31.7431 31.0595C31.7431 31.0595 31.8026 31.0669 31.8323 31.0669C31.8471 31.0669 31.8546 31.0669 31.8694 31.0669C31.8769 31.0669 31.8843 31.0669 31.8917 31.0521C31.8917 31.0446 31.9066 31.0372 31.914 31.0298C31.9289 31.0298 31.9289 30.9704 31.914 30.9629C31.8991 30.9555 31.8917 30.9406 31.8843 30.9332C31.8694 30.9258 31.8546 30.9184 31.8397 30.9109C31.8174 30.9109 31.7877 30.9109 31.7654 30.9035L31.5797 30.8886C31.5203 30.8886 31.4608 30.8738 31.4014 30.8738C31.3717 30.8738 31.342 30.8738 31.3123 30.8738C31.2825 30.8738 31.2454 30.8886 31.2157 30.8961C31.1934 30.8961 31.1934 30.9704 31.2157 30.9778V30.9629Z" fill="#ED998E"/>
<path d="M30.7477 34.6254C30.8665 34.8408 31.0151 35.034 31.1637 35.2346C31.2305 35.3311 31.3048 35.4277 31.3717 35.5168C31.4088 35.5688 31.446 35.6134 31.4831 35.6654C31.5054 35.6951 31.5425 35.7397 31.5797 35.7397C31.5871 35.7397 31.5797 35.7174 31.5797 35.7174C31.55 35.606 31.4683 35.5168 31.4014 35.4203C31.3271 35.3237 31.2528 35.2271 31.186 35.1305C31.1191 35.0414 31.0448 34.9448 30.9705 34.8557C30.8962 34.7665 30.8294 34.6774 30.7477 34.5957C30.7402 34.5882 30.7402 34.618 30.7402 34.618L30.7477 34.6254Z" fill="#ED998E"/>
<path d="M79.4138 23.0812C79.0497 23.5715 78.6412 23.5938 77.928 23.5938C77.2148 23.5938 76.7097 23.6978 75.4171 24.4704C74.1319 25.243 74.0279 25.139 73.4039 25.2207C72.7873 25.295 71.9107 24.9607 71.8587 24.5224C71.829 24.2624 71.933 23.6904 72.0221 23.2595C72.089 22.9549 72.141 22.7172 72.141 22.7172C72.9136 21.4766 74.3102 21.0457 74.8748 20.8897C75.4394 20.7337 77.3114 20.4292 78.3886 20.5629C78.8715 20.6223 79.1166 20.7412 79.2503 20.8897C79.4063 21.068 79.3915 21.2835 79.4138 21.484C79.4658 21.848 79.7778 22.5909 79.4138 23.0887V23.0812Z" fill="#F37800"/>
<path d="M79.0794 21.7218C78.7452 21.9669 77.1257 21.9446 76.1302 22.3458C75.1348 22.7469 74.4959 23.423 73.4559 23.7275C72.4158 24.0321 72.0295 23.2595 72.0295 23.2595C72.0964 22.9549 72.1484 22.7172 72.1484 22.7172C72.921 21.4766 74.3176 21.0457 74.8822 20.8897C75.4468 20.7337 77.3188 20.4292 78.396 20.5629C78.8789 20.6223 79.124 20.7412 79.2577 20.8897C79.4435 21.3726 79.4212 21.484 79.0869 21.7292L79.0794 21.7218Z" fill="#FCB755"/>
<path d="M73.6566 24.5373C73.6566 24.6413 73.5749 24.723 73.4709 24.723C73.3669 24.723 73.2852 24.6413 73.2852 24.5373C73.2852 24.4333 73.3669 24.3516 73.4709 24.3516C73.5749 24.3516 73.6566 24.4333 73.6566 24.5373Z" fill="#FCB755"/>
<path d="M73.7085 24.2178C73.7372 24.2178 73.7605 24.1945 73.7605 24.1658C73.7605 24.1371 73.7372 24.1138 73.7085 24.1138C73.6798 24.1138 73.6565 24.1371 73.6565 24.1658C73.6565 24.1945 73.6798 24.2178 73.7085 24.2178Z" fill="#FCB755"/>
<path d="M75.484 23.7349C75.484 23.8315 75.4023 23.9132 75.3057 23.9132C75.2092 23.9132 75.1274 23.8315 75.1274 23.7349C75.1274 23.6384 75.2092 23.5566 75.3057 23.5566C75.4023 23.5566 75.484 23.6384 75.484 23.7349Z" fill="#FCB755"/>
<path d="M75.6919 23.3635C75.6919 23.423 75.6473 23.4675 75.5879 23.4675C75.5285 23.4675 75.4839 23.423 75.4839 23.3635C75.4839 23.3041 75.5285 23.2595 75.5879 23.2595C75.6473 23.2595 75.6919 23.3041 75.6919 23.3635Z" fill="#FCB755"/>
<path d="M78.0319 22.7618C78.0319 22.9104 77.9131 23.0293 77.7645 23.0293C77.6159 23.0293 77.4971 22.9104 77.4971 22.7618C77.4971 22.6132 77.6159 22.4944 77.7645 22.4944C77.9131 22.4944 78.0319 22.6132 78.0319 22.7618Z" fill="#FCB755"/>
<path d="M78.3218 22.4795C78.3218 22.5612 78.255 22.6207 78.1807 22.6207C78.1064 22.6207 78.0396 22.5538 78.0396 22.4795C78.0396 22.4052 78.1064 22.3384 78.1807 22.3384C78.255 22.3384 78.3218 22.4052 78.3218 22.4795Z" fill="#FCB755"/>
<path d="M78.5298 22.9177C78.5298 22.9772 78.4852 23.0217 78.4258 23.0217C78.3663 23.0217 78.3218 22.9772 78.3218 22.9177C78.3218 22.8583 78.3663 22.8137 78.4258 22.8137C78.4852 22.8137 78.5298 22.8583 78.5298 22.9177Z" fill="#FCB755"/>
<path d="M72.3936 24.2623C72.3936 24.3143 72.349 24.3589 72.297 24.3589C72.245 24.3589 72.2004 24.3143 72.2004 24.2623C72.2004 24.2103 72.245 24.1658 72.297 24.1658C72.349 24.1658 72.3936 24.2103 72.3936 24.2623Z" fill="#FCB755"/>
<path d="M79.332 22.3309C79.332 22.3309 79.3097 22.3903 79.2726 22.3903C79.2354 22.3903 79.2131 22.3681 79.2131 22.3309C79.2131 22.2938 79.2354 22.2715 79.2726 22.2715C79.3097 22.2715 79.332 22.2938 79.332 22.3309Z" fill="#FCB755"/>
<path d="M94.7021 43.436L96.3068 45.5458C96.3068 45.5458 96.8565 45.1595 97.0645 44.6321C97.2725 44.1046 97.2725 43.8297 97.2056 43.696C97.1388 43.5623 96.0467 42.344 96.0467 42.344L94.7096 43.4435L94.7021 43.436Z" fill="#CE7D67"/>
<path d="M95.7347 44.8029C95.7347 44.8029 95.6529 44.996 95.7347 45.2114C95.8164 45.4269 96.1358 45.776 96.1507 45.8875C96.1655 45.9915 96.0095 47.6258 95.9724 47.7298C95.9352 47.8338 95.4672 48.1458 95.2889 48.3687C95.1107 48.5915 95.3855 49.0744 95.4895 49.1487C95.5935 49.223 96.7078 49.223 97.1313 49.1487C97.5547 49.0744 97.9113 48.8293 98.0302 48.6064C98.149 48.3835 99.1445 44.7509 99.033 44.6023C98.929 44.4463 97.4359 43.5251 97.369 43.5177C97.2947 43.5028 97.0496 43.3691 96.953 43.384C96.849 43.3988 96.8713 43.748 96.9084 43.9485C96.953 44.1863 96.7078 44.7211 96.4998 44.8326C96.2844 44.9366 96.2175 44.6543 95.7421 44.8103L95.7347 44.8029Z" fill="#C2D1D5"/>
<path d="M96.5073 42.2252C95.7347 44.1195 94.9919 44.1864 94.9919 44.1864C94.9919 44.1864 87.7637 33.1175 87.6819 32.3746C87.6151 31.7729 88.1574 23.2001 88.3283 20.5183C88.358 20.0205 88.3803 19.7234 88.3803 19.7234L88.9597 20.5628C88.9597 20.5628 88.9597 20.6 88.982 20.6668C89.1826 21.7886 90.8986 31.4163 91.1289 31.7952C91.374 32.2037 95.341 39.0976 96.5148 42.2252H96.5073Z" fill="#207899"/>
<path d="M84.6212 3.43192C84.6212 3.43192 84.6212 3.78107 85.5721 3.92222C86.523 4.05594 87.3698 3.89993 87.3698 3.89993C87.3698 3.89993 86.783 3.15705 86.1812 3.07534C85.5795 2.99362 84.7772 3.23134 84.6138 3.43935L84.6212 3.43192Z" fill="#607C78"/>
<path d="M91.3665 5.66808L91.7453 6.77497C91.7453 6.77497 92.0128 6.78239 92.4808 6.37381C92.9488 5.9578 93.1717 5.50464 93.0602 4.96977C92.9488 4.4349 92.6814 3.61774 92.6219 3.3503C92.5625 3.08286 92.1614 0.824515 89.3533 1.08452C88.3133 1.1811 87.4515 2.51828 87.3772 3.21658C87.3029 3.91489 91.3665 5.66808 91.3665 5.66808Z" fill="#5F2929"/>
<path d="M92.2877 4.33102C92.2877 4.74703 91.9757 5.26705 91.7825 5.40077C91.5671 5.54934 91.1585 5.69792 91.1585 5.69792C91.1585 5.69792 91.1585 5.89106 90.8168 6.62651C90.475 7.35453 89.643 7.80026 89.2344 8.03798C88.8184 8.28313 87.9344 8.35742 87.8155 8.23856C87.7264 8.14941 87.6298 7.92655 87.5778 7.77797C87.5555 7.71854 87.5407 7.66654 87.5332 7.64426C87.5184 7.5774 87.4961 7.54025 87.407 7.50311L87.3698 7.48825C87.3698 7.48825 87.3624 7.48825 87.3549 7.48082C87.2361 7.41396 87.1395 7.1391 87.1395 7.1391C87.1395 7.1391 86.9687 6.99052 87.0207 6.87166C87.0727 6.7528 86.9984 6.38136 86.8721 6.35908C86.7532 6.33679 86.2629 5.96535 86.4784 5.79449C86.7012 5.62363 87.1395 5.2819 87.2361 5.03676C87.3327 4.79161 87.2138 3.96701 87.3847 3.20928C87.4292 3.01613 87.5407 2.84527 87.6818 2.69669C88.3355 2.02067 89.3904 1.90181 90.1779 2.4144C91.0545 2.99384 91.3145 4.05616 91.3145 4.05616C91.3145 4.05616 91.5374 3.59557 91.7305 3.54357C91.9237 3.49157 92.3025 3.90758 92.3025 4.32359L92.2877 4.33102Z" fill="#CE7D67"/>
<path d="M88.967 7.5178V9.739C88.967 9.739 89.6802 9.78358 90.7202 9.30814C91.7603 8.82526 91.842 8.47611 91.842 8.47611L91.6563 5.22974L89.7322 6.75264L88.9745 7.52523L88.967 7.5178Z" fill="#CE7D67"/>
<path d="M87.2807 10.4299C87.2807 10.4299 82.4817 11.2471 81.5308 11.7374C80.5799 12.2277 80.7359 12.7849 80.8994 13.2603C81.0628 13.7357 83.336 13.5203 84.064 13.446C84.7921 13.3717 85.9064 13.5203 86.5452 12.4208C87.1841 11.3214 87.2733 10.4299 87.2733 10.4299H87.2807Z" fill="#CE7D67"/>
<path d="M82.1401 12.4579C82.1401 12.4579 81.9321 11.5813 80.8475 11.5961C79.7629 11.611 74.1244 12.6362 74.1244 12.6362C74.1244 12.6362 73.7233 12.7847 73.701 13.0373C73.6787 13.2899 74.8896 13.9139 76.0262 13.9362C77.1628 13.9511 80.8549 13.8099 81.4418 13.6465C82.0286 13.483 82.1401 12.4579 82.1401 12.4579Z" fill="#CE7D67"/>
<path d="M85.9511 17.3536C85.9511 17.3536 85.5351 17.2793 84.8368 17.3536C84.1385 17.4279 79.7406 19.3445 79.5846 19.4485C79.4286 19.5525 78.5743 20.1988 78.8863 20.4588C79.1984 20.7188 80.9367 20.4588 82.1327 20.2285C83.3287 19.9982 86.0774 19.3519 86.4117 18.9433C86.746 18.5422 86.7237 17.5393 85.9437 17.3536H85.9511Z" fill="#CE7D67"/>
<path d="M89.7174 44.5354C89.7174 44.5354 89.6802 47.0909 89.9774 47.7298C90.4157 48.2572 91.1437 48.1161 91.4632 47.7298C91.7826 47.3435 91.7826 44.84 91.7826 44.84L89.71 44.5354H89.7174Z" fill="#CE7D67"/>
<path d="M92.7557 2.83037C92.8225 2.7858 93.6323 2.17664 95.0289 2.43665C96.4255 2.69665 97.1238 3.57325 97.3838 4.88072C97.6438 6.18818 98.0375 7.49565 99.4564 8.41681C100.147 8.86254 101.291 9.27112 102.034 9.04826C102.777 8.83283 102.926 8.41681 102.993 8.46139C103.059 8.50596 102.777 9.04826 101.685 9.96943C100.593 10.8906 98.6541 11.054 97.2798 10.4374C95.9055 9.82085 94.9026 8.11223 94.6574 7.19849C94.4197 6.28475 94.5237 4.94757 94.0706 4.49442C93.61 4.03384 92.6294 3.51382 92.6294 3.51382L92.7631 2.8378L92.7557 2.83037Z" fill="#5F2929"/>
<path d="M89.8438 1.9314C89.8438 1.9314 90.386 4.30861 90.4901 4.62061C90.5941 4.92519 90.7946 5.08863 91.0101 5.05148C91.2181 5.02177 91.3072 4.07088 91.3072 4.07088L90.9878 2.53313L89.8438 1.9314Z" fill="#5F2929"/>
<path d="M87.511 4.29367C87.511 4.29367 87.5184 4.33081 87.5258 4.3531C87.5258 4.36795 87.5258 4.38281 87.5407 4.39767V4.41995C87.5407 4.41995 87.5704 4.4571 87.5853 4.47939L87.6001 4.49424C87.6001 4.49424 87.615 4.5091 87.6298 4.5091C87.6447 4.5091 87.6521 4.48681 87.6521 4.47939C87.6521 4.4571 87.6521 4.43481 87.6521 4.41253C87.6521 4.39024 87.6521 4.36795 87.6373 4.3531V4.33081C87.6373 4.33081 87.6076 4.29367 87.5927 4.27881L87.5778 4.26395C87.5778 4.26395 87.5704 4.25652 87.563 4.24909C87.563 4.24909 87.5481 4.23424 87.5333 4.22681C87.5184 4.22681 87.5184 4.23424 87.511 4.24166C87.511 4.25652 87.511 4.27881 87.511 4.29367Z" fill="#5F2929"/>
<path d="M87.7413 4.35319C87.8676 4.37548 87.9939 4.36805 88.1276 4.35319C88.2464 4.34576 88.3727 4.32348 88.4916 4.32348C88.551 4.32348 88.603 4.33833 88.655 4.35319C88.6996 4.36805 88.7442 4.37548 88.7887 4.40519C88.8482 4.44977 88.915 4.54634 88.9967 4.53891C89.0042 4.53891 89.0042 4.51662 88.9967 4.5092C88.9596 4.39776 88.9002 4.30862 88.811 4.2269C88.7739 4.18976 88.7293 4.13776 88.6773 4.10804C88.6253 4.08576 88.5659 4.0709 88.5139 4.06347C88.3876 4.05604 88.2539 4.07833 88.1276 4.10061C87.9864 4.1229 87.8601 4.14519 87.7264 4.19719C87.6893 4.21204 87.6967 4.33091 87.7413 4.33833V4.35319Z" fill="#5F2929"/>
<path d="M84.6213 3.43208C84.6213 3.43208 84.8739 3.10521 85.6242 3.43208C86.3745 3.75895 86.4636 3.92238 87.1173 3.92238C87.7636 3.92238 89.6431 3.29093 89.6431 3.29093L91.4558 3.61037L92.7855 3.92981L92.9638 3.70694C92.9638 3.70694 93.1198 2.16919 93.0158 1.9389C92.9118 1.7086 91.6266 0.401139 91.1289 0.20799C90.6237 0.014842 88.2837 0.549714 87.9419 0.713147C87.6002 0.87658 87.3774 2.30291 87.3774 2.30291C87.3774 2.30291 84.7476 3.17207 84.6213 3.30579C84.5396 3.39494 84.6213 3.43951 84.6213 3.43951V3.43208Z" fill="#C2D1D5"/>
<path d="M86.902 12.77C86.902 12.77 86.7757 12.354 87.578 11.0093C88.3803 9.66474 88.4769 9.56817 89.0712 9.21159C89.6655 8.855 89.4055 8.75843 90.7501 8.46128C92.0947 8.16413 92.1913 8.18641 92.1913 8.18641C92.1913 8.18641 92.2879 8.72129 92.1913 8.855C92.0947 8.98872 92.2359 9.33045 92.2359 9.33045L92.9193 10.7939L91.8421 20.2656L90.2301 20.4439L86.902 12.77Z" fill="#C2D1D5"/>
<path d="M87.9494 13.9438C87.9494 14.1146 85.2825 17.1679 85.0819 17.6359C84.8739 18.1039 85.6019 18.9062 86.5157 18.6462C87.4368 18.3862 89.6878 15.5707 89.6878 15.5707C89.6878 15.5707 90.2301 14.2929 89.3609 13.9512C88.4917 13.6095 87.9494 13.9512 87.9494 13.9512V13.9438Z" fill="#CE7D67"/>
<path d="M88.5213 10.0288C88.5213 10.0288 82.972 11.2843 82.8606 11.314C82.7492 11.3437 82.7863 13.5946 82.9572 13.6541C83.128 13.7135 86.1813 13.5723 86.6196 13.5426C87.0579 13.5129 87.3847 13.342 87.5704 13.0746C87.7562 12.8072 88.5213 10.0288 88.5213 10.0288Z" fill="#C2D1D5"/>
<path d="M76.2193 12.1238L73.1215 12.3095C73.1215 12.3095 71.4352 11.0837 71.1826 11.0837C70.93 11.0837 70.3357 11.2323 70.2837 11.2843C70.2317 11.3363 69.5483 11.3735 69.4591 11.4998C69.37 11.626 68.798 11.6855 68.7608 11.8266C68.7237 11.9603 69.0357 12.1906 69.4071 12.1609C69.7786 12.1312 70.7666 12.1238 70.7666 12.1238C70.7666 12.1238 71.9552 12.9632 71.9998 13.0598C72.0518 13.1564 71.6878 13.3569 71.4872 13.2975C71.2866 13.2381 70.4843 12.9261 70.3357 12.8964C70.1871 12.8666 69.7711 12.8964 69.6597 13.0227C69.5483 13.1489 71.3609 13.8547 71.7175 13.9438C72.0741 14.033 72.9135 13.8472 73.1884 13.7358C73.4632 13.6244 74.1244 13.773 74.4216 13.8472C74.7187 13.9215 76.197 14.2855 76.197 14.2855L76.2639 14.1147C76.5165 13.4684 76.4942 12.7478 76.197 12.1238H76.2193Z" fill="#2E93B9"/>
<path d="M80.5799 18.6982L77.7273 19.6937L74.9786 20.4589C74.9786 20.4589 73.01 22.1898 73.0991 22.3012C73.3294 22.5835 74.9786 21.2389 75.0455 21.2389C75.1123 21.2389 74.5255 21.8183 74.4586 21.9223C74.3917 22.0263 74.0054 23.0664 74.1837 23.0961C74.3546 23.1258 74.7186 22.3681 74.83 22.1601C74.9489 21.9595 75.8255 21.3503 75.9889 21.3206C76.1524 21.2909 76.1598 21.4692 76.0261 21.6178C75.8923 21.7663 75.7438 21.9743 75.3872 22.4795C75.1866 22.7544 75.038 22.9995 75.1198 23.0664C75.2163 23.1407 75.7066 22.8138 75.7512 22.7692C76.1152 22.7544 76.4198 22.3606 76.5387 22.2566C76.6575 22.1526 77.5118 21.12 77.6158 21.0755C77.7198 21.0309 80.9068 20.8674 80.9068 20.8674C80.9068 20.8674 80.9885 19.3668 80.5873 18.7057L80.5799 18.6982Z" fill="#2E93B9"/>
<path d="M89.7843 46.1028C89.6952 46.1251 89.6209 46.192 89.5763 46.2737C89.4649 46.5114 89.1454 47.128 88.7368 47.388C88.2243 47.7149 87.3551 47.7297 86.8128 47.908C86.2705 48.0863 86.0328 48.6212 86.0105 48.6658C85.9882 48.7103 85.8173 48.8812 85.7951 48.9852C85.7728 49.0892 85.8322 49.3492 86.4265 49.5275C87.0282 49.7058 91.3146 49.4904 91.8124 49.3938C92.3101 49.2898 92.3992 49.1338 92.3992 48.9406C92.3992 48.7475 92.1615 46.8457 92.0352 46.7566C91.9089 46.6674 91.7529 46.6451 91.6638 46.7194C91.5746 46.8011 91.4484 47.1354 91.1289 47.2172C90.8095 47.2989 90.2895 47.18 90.2672 47.0834C90.2449 46.9794 89.9329 46.1548 89.8586 46.1103C89.8363 46.0954 89.8066 46.0954 89.7769 46.1103L89.7843 46.1028Z" fill="#C2D1D5"/>
<path d="M87.6522 4.79897C87.7414 4.7544 87.8305 4.73211 87.9271 4.7024C88.0237 4.68011 88.1202 4.66525 88.2168 4.67268C88.3877 4.68754 88.5511 4.76925 88.6477 4.9104C88.6477 4.9104 88.6551 4.91783 88.6625 4.91783H88.67C88.67 4.91783 88.6923 4.8584 88.6923 4.84354C88.6774 4.7544 88.5957 4.69497 88.5214 4.65039C88.4397 4.59839 88.3505 4.56868 88.2614 4.56125C88.1574 4.54639 88.046 4.56125 87.9494 4.59096C87.8454 4.62068 87.7414 4.68754 87.6522 4.7544C87.6448 4.7544 87.6522 4.8064 87.6522 4.79897Z" fill="#2D2B2B"/>
<path d="M88.1648 4.94018C88.1648 5.08133 88.0979 5.20019 88.0088 5.20019C87.9196 5.20019 87.8528 5.08133 87.8528 4.94018C87.8528 4.79904 87.9196 4.68018 88.0088 4.68018C88.0979 4.68018 88.1648 4.79904 88.1648 4.94018Z" fill="#2D2B2B"/>
<path d="M88.5882 8.23848C89.6282 8.00819 90.6682 7.36189 91.1288 6.36643C91.2402 6.12128 91.3517 5.80927 91.2997 5.53441C91.2997 5.51955 91.2848 5.48984 91.2774 5.51955C91.2254 5.65327 91.2179 5.79442 91.1808 5.93556C91.1362 6.099 91.0694 6.26243 90.9877 6.411C90.8316 6.70816 90.6162 6.97559 90.3636 7.19845C89.8436 7.65161 89.2047 7.91162 88.5807 8.17905C88.5659 8.17905 88.5659 8.24591 88.5807 8.23848H88.5882Z" fill="#AD554E"/>
<path d="M92.1095 4.01152C91.946 3.83323 91.686 3.89266 91.5449 4.06353C91.3666 4.2641 91.3369 4.53897 91.322 4.79155C91.322 4.81383 91.322 4.86583 91.3443 4.88069C91.374 4.88812 91.3815 4.84355 91.3815 4.82869C91.3815 4.83612 91.3963 4.82126 91.4037 4.81383C91.4186 4.81383 91.426 4.79897 91.4409 4.79897C91.4706 4.79897 91.5003 4.81383 91.53 4.82869C91.5746 4.86583 91.6266 4.94012 91.6117 5.00698C91.6043 5.06641 91.5523 5.10355 91.5003 5.11098C91.4483 5.11841 91.4037 5.11098 91.3666 5.06641C91.3443 5.04412 91.322 5.10355 91.322 5.11841C91.322 5.14813 91.322 5.20013 91.3443 5.22984C91.4037 5.30413 91.5077 5.28927 91.582 5.23727C91.6712 5.17041 91.6935 5.05155 91.6786 4.94755C91.6637 4.84355 91.6117 4.72469 91.5226 4.67269C91.426 4.61326 91.3369 4.67269 91.322 4.78412L91.3815 4.82126C91.3963 4.5984 91.4112 4.36068 91.5672 4.18239C91.6935 4.03381 91.9238 3.97438 92.0946 4.08581C92.1169 4.10067 92.1169 4.01895 92.1095 4.0041V4.01152Z" fill="#AD554E"/>
<path d="M88.4173 6.69329C88.4024 6.75272 88.3356 6.86415 88.0979 6.92358C87.9567 6.96072 87.1321 7.13902 87.1321 7.13902C87.1321 7.13902 86.9613 6.99044 87.0133 6.87158C87.0133 6.87158 87.9642 6.87901 88.187 6.80472C88.3876 6.73786 88.4173 6.61157 88.4173 6.61157C88.4173 6.61157 88.4322 6.63386 88.4173 6.69329Z" fill="#AD554E"/>
<path d="M88.046 7.25031C88.046 7.25031 87.6225 7.57718 87.5259 7.63661C87.5111 7.57718 87.4888 7.54747 87.3997 7.50289C87.4591 7.50289 87.5631 7.48804 87.6745 7.43603C87.7934 7.38403 87.942 7.28746 88.0385 7.22803C88.046 7.22803 88.0608 7.22803 88.0534 7.24289L88.046 7.25031Z" fill="#AD554E"/>
<path d="M94.2342 25.4434C94.1747 25.9857 93.1941 30.8664 92.9936 31.7356C92.793 32.6048 92.6816 34.1277 92.6518 34.9077C92.6221 35.6877 92.4364 45.1 92.3993 45.152C92.3696 45.1966 91.4187 45.4937 90.6684 45.3377C89.9181 45.1817 89.2495 44.8548 89.2495 44.8548C89.2495 44.8548 89.0043 31.9733 88.9077 29.9824C88.8335 28.363 88.5363 22.7022 88.4249 20.5553C88.4026 20.0724 88.3803 19.7604 88.3803 19.7233C88.3654 19.5078 87.1025 15.0729 86.9837 14.5603C86.8574 14.0477 86.7385 12.3836 87.0431 12.0568H88.2689C88.2689 12.0568 88.6403 10.6899 89.8438 9.90987C91.0472 9.12985 92.2878 9.44928 92.2878 9.44928L92.4216 9.739C92.4216 9.739 91.4261 9.56071 90.6015 10.0213C89.7769 10.4893 88.7889 11.9602 88.5214 12.4134C88.2763 12.8219 90.3638 18.7055 90.7278 19.7233C90.7649 19.8273 90.7872 19.8867 90.7872 19.8867C90.7872 19.8867 90.8021 19.8199 90.8244 19.7159C91.0547 18.7204 92.3324 13.6688 92.4216 13.2008C92.5256 12.6882 92.9193 10.7865 92.9193 10.7865C92.9193 10.7865 93.0381 11.0093 93.0827 11.2099C93.1273 11.4105 92.585 19.0101 92.585 19.0101C92.585 19.0101 92.6221 19.4484 92.7261 19.7381C92.7336 19.7604 92.7484 19.805 92.7781 19.857C93.0381 20.4884 94.1525 23.0142 94.2342 23.3857C94.3233 23.7868 94.2936 24.8789 94.2342 25.4212V25.4434Z" fill="#2E93B9"/>
<path d="M84.0344 11.0317C84.0344 11.0317 82.9201 11.054 82.7492 11.1729C82.5783 11.2917 82.712 13.7581 82.7492 13.7804C82.7863 13.8027 83.9749 13.8027 84.0344 13.7432C84.0938 13.6838 84.1607 11.0763 84.0344 11.0317Z" fill="#2E93B9"/>
<path d="M88.6328 13.0671C88.6328 13.0671 86.3373 15.5334 86.2555 15.7266C86.1738 15.9271 87.8676 17.4426 88.1127 17.4797C88.3505 17.5243 90.6311 14.6197 91.2997 13.6539C91.9683 12.6956 93.1495 11.5962 92.2877 10.6824C91.7974 10.155 90.906 10.1773 88.6328 13.0596V13.0671Z" fill="#C2D1D5"/>
<path d="M86.783 14.9614C86.783 14.9614 87.3699 15.2288 87.9122 15.8306C88.4545 16.4323 88.7739 16.9894 88.7739 16.9894C88.7739 16.9894 87.9493 17.9329 87.7265 17.9403C87.511 17.9478 85.8544 16.1574 85.8618 16.0831C85.8693 16.0088 86.7013 14.9094 86.783 14.954V14.9614Z" fill="#2E93B9"/>
<path d="M87.4294 2.32523C87.7785 2.68181 88.2688 2.91953 88.7294 3.11268C88.9523 3.20925 89.19 3.28354 89.4203 3.3504C89.658 3.41726 89.9254 3.50641 90.1706 3.4544C90.1854 3.4544 90.178 3.41726 90.1706 3.41726C89.9551 3.30583 89.71 3.27611 89.4723 3.21668C89.2197 3.14982 88.9745 3.06811 88.7368 2.9641C88.5065 2.86753 88.2837 2.76353 88.0682 2.64467C87.8528 2.52581 87.6522 2.39209 87.4294 2.28809C87.4145 2.28809 87.4145 2.3178 87.4294 2.32523Z" fill="#607C78"/>
<path d="M92.9787 2.62217C92.9044 2.62217 92.8524 2.65189 92.8004 2.71132C92.7484 2.76332 92.7187 2.83018 92.6964 2.90447C92.6369 3.09762 92.6815 3.30562 92.7261 3.49134C92.7484 3.58049 92.7632 3.67706 92.8301 3.73649C92.8524 3.75878 92.8895 3.79592 92.9267 3.77364C92.9638 3.75135 92.9638 3.67706 92.9564 3.63992C92.9415 3.58792 92.9192 3.58049 92.8747 3.55077C92.8375 3.52849 92.8227 3.48391 92.8078 3.44677C92.7781 3.3502 92.7484 3.26105 92.7409 3.15705C92.7261 2.9639 92.8227 2.80789 92.9861 2.70389C93.0009 2.69646 93.0084 2.61475 92.9861 2.61475L92.9787 2.62217Z" fill="#607C78"/>
<path d="M90.8614 0.18565C90.8614 0.18565 90.8837 0.252509 90.9134 0.274795C90.9283 0.282224 90.9431 0.297082 90.9506 0.30451C90.9803 0.326797 91.01 0.341654 91.0471 0.356512C91.0769 0.371369 91.1066 0.386227 91.1363 0.401085L91.1809 0.423371C91.1809 0.423371 91.2254 0.445657 91.2477 0.445657C91.2774 0.445657 91.2997 0.408513 91.3072 0.386227C91.322 0.341654 91.3294 0.297082 91.3294 0.24508C91.3294 0.193079 91.3146 0.133648 91.2923 0.081647C91.2774 0.0519319 91.2626 0.0370744 91.2254 0.0370744C91.218 0.0370744 91.2032 0.0370744 91.1957 0.0370744C91.1586 0.0370744 91.114 0.0222168 91.0769 0.0222168C91.0546 0.0222168 91.0397 0.0222168 91.0174 0.0222168C90.9951 0.0222168 90.9803 0.0222168 90.958 0.0222168C90.9357 0.0222168 90.9134 0.0222168 90.8911 0.0445031C90.8466 0.081647 90.8466 0.148506 90.8614 0.200507V0.18565Z" fill="#607C78"/>
<path d="M90.7054 0.54232C90.4082 0.757755 90.1779 1.04748 90.0071 1.37434C89.8362 1.70121 89.7099 2.06522 89.7174 2.43666C89.7174 2.45894 89.7396 2.49609 89.7545 2.45894C89.8288 2.11722 89.8956 1.79035 90.0591 1.47835C90.2225 1.16634 90.4528 0.884044 90.7128 0.638894C90.7351 0.624037 90.7202 0.527463 90.698 0.54232H90.7054Z" fill="#607C78"/>
<path d="M91.2253 0.832066C91.4259 1.09207 91.6265 1.33722 91.7231 1.65666C91.8196 1.9761 91.8048 2.30296 91.7528 2.62983C91.7528 2.63726 91.7528 2.6744 91.7676 2.65212C91.9014 2.34011 91.8716 1.96867 91.7825 1.64923C91.7008 1.34465 91.5299 0.958355 91.2328 0.794922C91.2253 0.794922 91.2253 0.824637 91.2328 0.824637L91.2253 0.832066Z" fill="#607C78"/>
<path d="M89.4054 16.2615C89.7917 15.8975 90.1334 15.4815 90.4603 15.0655C90.7872 14.6569 91.1066 14.2334 91.4112 13.8026C91.7158 13.3717 92.0278 12.9334 92.2804 12.4728C92.5032 12.0642 92.6741 11.6185 92.6518 11.1505C92.6444 10.9202 92.5924 10.6825 92.4884 10.4745C92.4067 10.311 92.2581 10.051 92.0426 10.051C92.0055 10.051 92.0204 10.155 92.0352 10.1699C92.1541 10.3333 92.3101 10.4596 92.3992 10.6379C92.4809 10.7939 92.5329 10.9722 92.5404 11.1431C92.5701 11.5962 92.3621 12.0345 92.1392 12.4208C91.6415 13.2677 91.0546 14.07 90.4455 14.8352C90.0889 15.2809 89.7174 15.7192 89.3683 16.1649C89.3534 16.1872 89.3683 16.2763 89.3906 16.2466L89.4054 16.2615Z" fill="#607C78"/>
<path d="M88.4323 9.81342C88.0386 10.0883 87.7191 10.4969 87.4591 10.9055C87.3254 11.1209 87.2065 11.3512 87.1025 11.5889C87.0134 11.7969 86.902 12.0495 86.8945 12.2798C86.8945 12.2872 86.902 12.3392 86.9242 12.3169C86.9837 12.2352 87.006 12.1238 87.0431 12.0272C87.0877 11.9158 87.1323 11.8043 87.1768 11.6929C87.2734 11.47 87.3923 11.2472 87.5185 11.0392C87.7786 10.6232 88.1054 10.2666 88.4471 9.90999C88.462 9.89514 88.4546 9.79113 88.4249 9.81342H88.4323Z" fill="#607C78"/>
<path d="M88.878 10.0584C89.1306 9.87269 89.3832 9.67954 89.658 9.53096C89.9329 9.37496 90.2301 9.24867 90.5421 9.16695C90.8466 9.08524 91.1512 9.03323 91.4632 9.02581C91.6118 9.02581 91.7604 9.03324 91.909 9.01838C91.9684 9.01095 92.0353 8.99609 92.0873 8.96638C92.1541 8.92923 92.1838 8.87723 92.2061 8.80294C92.2061 8.78066 92.221 8.68408 92.1838 8.68408C92.117 8.68408 92.0947 8.7138 92.0353 8.74351C91.9684 8.77323 91.8941 8.78066 91.8272 8.78809C91.6787 8.80294 91.5227 8.78808 91.3741 8.81037C91.0621 8.83266 90.7501 8.89952 90.4529 8.99609C89.8586 9.18924 89.2717 9.51611 88.8706 10.0064C88.8632 10.0138 88.8706 10.0733 88.8855 10.0584H88.878Z" fill="#607C78"/>
<path d="M89.1602 12.3614C89.4647 12.1088 89.7247 11.8191 89.9922 11.5294C90.1333 11.3808 90.267 11.2248 90.4082 11.0762C90.5568 10.9128 90.7128 10.7568 90.8242 10.5636C90.8242 10.5636 90.8242 10.5116 90.8168 10.519C90.6608 10.6082 90.5345 10.7642 90.4082 10.8979C90.267 11.0539 90.1259 11.2099 89.9848 11.3585C89.695 11.6705 89.4127 11.9899 89.1602 12.3317C89.1602 12.3317 89.1602 12.3614 89.1602 12.3539V12.3614Z" fill="#607C78"/>
<path d="M86.0403 48.8589C86.6866 49.2601 87.5186 49.1561 88.2466 49.1264C89.0861 49.0892 89.9181 49.0595 90.7575 49.0224C90.9878 49.0149 91.2256 49.0001 91.4559 48.9926C91.5821 48.9926 91.701 48.9852 91.8273 48.9778C91.9461 48.9778 92.0576 48.9778 92.169 48.9258C92.2062 48.9109 92.1987 48.7921 92.169 48.7772C91.9833 48.7178 91.7604 48.7549 91.5673 48.7698C91.3593 48.7772 91.1513 48.7921 90.9433 48.7995C90.5273 48.8218 90.1112 48.8441 89.6878 48.8664C89.2718 48.8886 88.8558 48.9109 88.4323 48.9332C88.046 48.9555 87.6597 48.9852 87.2809 48.9778C86.8649 48.9778 86.4489 48.9184 86.0626 48.7624C86.0254 48.7475 86.0254 48.8441 86.0551 48.8589H86.0403Z" fill="#607C78"/>
<path d="M86.6863 48.012C86.7903 48.012 86.8943 48.0417 86.9835 48.0714C87.0726 48.1086 87.1692 48.1606 87.2361 48.2274C87.3029 48.2943 87.3549 48.376 87.3772 48.4652C87.3921 48.5172 87.3921 48.5543 87.3995 48.5989C87.3995 48.636 87.3995 48.5766 87.3995 48.6137C87.3995 48.6286 87.3995 48.6435 87.3995 48.6657C87.3995 48.688 87.4069 48.7103 87.4144 48.7326C87.4144 48.74 87.4292 48.7623 87.4441 48.7549C87.4886 48.7252 87.4961 48.6583 87.4961 48.6063C87.4961 48.532 87.4961 48.4652 87.4738 48.3909C87.4441 48.272 87.3846 48.1532 87.2955 48.0714C87.2138 47.9897 87.1172 47.9377 87.0058 47.9154C86.9463 47.9006 86.8943 47.9006 86.8423 47.9154C86.7829 47.9303 86.7309 47.9452 86.6789 47.9674C86.6715 47.9674 86.6715 48.012 86.6789 48.012H86.6863Z" fill="#607C78"/>
<path d="M87.9642 47.8932C88.2687 48.235 88.759 48.1087 89.1305 47.9452C89.3236 47.8561 89.5093 47.7521 89.6802 47.6258C89.8436 47.4995 90.0219 47.3584 90.1185 47.1726C90.1185 47.1578 90.1185 47.0983 90.1036 47.1132C90.0219 47.1503 89.9551 47.2246 89.8882 47.2841C89.8139 47.3509 89.7396 47.4104 89.6579 47.4624C89.4945 47.5738 89.3311 47.6778 89.1528 47.7595C88.7888 47.9304 88.3579 48.0418 87.979 47.8264C87.9567 47.8115 87.9567 47.8858 87.9642 47.9007V47.8932Z" fill="#607C78"/>
<path d="M96.017 48.8887C96.1878 48.9258 96.3438 48.9481 96.5147 48.911C96.6633 48.8813 96.8044 48.8144 96.9307 48.7401C97.213 48.5693 97.4433 48.3241 97.6216 48.0492C97.8073 47.7595 97.941 47.4327 98.0524 47.1058C98.1713 46.7418 98.2679 46.3778 98.3422 46.0063C98.4239 45.5829 98.513 45.1297 98.4833 44.6914C98.4833 44.6469 98.4387 44.5726 98.4239 44.6543C98.3496 45.0034 98.3347 45.3675 98.2753 45.724C98.2084 46.0955 98.1193 46.4595 98.0153 46.8161C97.8296 47.4401 97.5621 48.079 97.0124 48.4653C96.8713 48.5618 96.7153 48.6435 96.5518 48.6955C96.381 48.755 96.1952 48.807 96.017 48.8144C95.9947 48.8144 95.9947 48.8813 96.017 48.8887Z" fill="#607C78"/>
<path d="M95.7942 48.0122C95.9725 47.9825 96.1508 47.9453 96.329 47.9602C96.4182 47.9676 96.5073 47.9899 96.5965 48.0196C96.6336 48.0345 96.6782 48.0493 96.7153 48.0567C96.7376 48.0567 96.7525 48.0642 96.7748 48.0716C96.7971 48.0716 96.8119 48.0716 96.8416 48.0716C96.8639 48.0716 96.8565 48.0196 96.8416 48.0122C96.7748 47.923 96.7079 47.871 96.6039 47.8339C96.5148 47.8042 96.4256 47.7819 96.329 47.7819C96.1359 47.767 95.9353 47.7967 95.7793 47.9082C95.757 47.923 95.7496 48.027 95.7867 48.0196L95.7942 48.0122Z" fill="#607C78"/>
<path d="M96.1805 47.3139C96.2771 47.3659 96.3811 47.3808 96.4851 47.3436C96.5891 47.3065 96.6856 47.2396 96.7599 47.1579C96.9308 46.9648 97.0125 46.6973 97.0274 46.4448C97.0422 46.155 96.9902 45.8653 96.9457 45.583C96.9234 45.4344 96.8937 45.2933 96.8565 45.1447C96.8342 45.0407 96.8194 44.8847 96.7376 44.803C96.7154 44.7807 96.7079 44.855 96.7079 44.855C96.7079 44.9739 96.7451 45.0927 96.7748 45.2116C96.8045 45.3379 96.8268 45.4567 96.8491 45.583C96.8936 45.8282 96.9382 46.0733 96.9382 46.3185C96.9382 46.7345 96.6708 47.2545 96.1805 47.2025C96.1508 47.2025 96.1508 47.2916 96.1805 47.3065V47.3139Z" fill="#607C78"/>
<path d="M75.8255 22.5982C75.9889 22.405 76.1375 22.197 76.2786 21.989L76.4941 21.677C76.5683 21.5656 76.6575 21.4541 76.7021 21.3279C76.7021 21.3204 76.7095 21.2461 76.6798 21.261C76.6278 21.2833 76.5981 21.3353 76.5683 21.3799L76.4495 21.5433L76.2341 21.8553C76.0781 22.0782 75.9295 22.301 75.7958 22.5313C75.7883 22.5462 75.7958 22.6279 75.818 22.5982H75.8255Z" fill="white"/>
<path d="M69.5483 11.6781C69.9271 11.7301 70.306 11.6409 70.6774 11.6558C70.8483 11.6632 70.9894 11.7301 71.1231 11.8341C71.19 11.8861 71.2494 11.9529 71.3014 12.0124C71.346 12.0644 71.3832 12.1164 71.4426 12.1461C71.4649 12.1609 71.4574 12.0941 71.4574 12.0866C71.398 11.9529 71.2792 11.8415 71.1677 11.7449C71.0489 11.6409 70.9077 11.5666 70.7443 11.5443C70.5511 11.5221 70.358 11.5443 70.1648 11.5592C69.9568 11.5741 69.7488 11.5741 69.5483 11.6261C69.5334 11.6261 69.5334 11.6706 69.5483 11.6706V11.6781Z" fill="white"/>
<path d="M70.6476 11.3363C70.7739 11.3511 70.9076 11.3883 71.0339 11.4254C71.0933 11.4477 71.1528 11.4626 71.2048 11.4923C71.2568 11.5146 71.3162 11.5591 71.3756 11.5443C71.3905 11.5443 71.3831 11.5071 71.3756 11.4997C71.3534 11.47 71.3311 11.4477 71.2939 11.4254C71.2642 11.4106 71.2345 11.4031 71.2122 11.3883C71.1528 11.366 71.0933 11.3437 71.0339 11.3289C70.9076 11.2917 70.7813 11.2769 70.6476 11.2769C70.6328 11.2769 70.6328 11.3214 70.6476 11.3289V11.3363Z" fill="white"/>
<path d="M89.1306 47.2247C89.1752 47.2322 89.2197 47.247 89.2643 47.2545C89.3089 47.2545 89.3534 47.2545 89.398 47.2545C89.4426 47.2545 89.4872 47.2545 89.5317 47.2545C89.554 47.2545 89.5689 47.2545 89.5912 47.247C89.6135 47.247 89.6357 47.2322 89.6506 47.2173C89.658 47.2173 89.658 47.1727 89.6506 47.1727C89.6283 47.1579 89.6135 47.1505 89.5837 47.143C89.5615 47.143 89.5466 47.1356 89.5243 47.1282C89.4797 47.1282 89.4352 47.1282 89.3906 47.1282C89.346 47.1282 89.3015 47.1282 89.2569 47.1282C89.2123 47.1282 89.1677 47.143 89.1232 47.1505C89.1009 47.1505 89.1009 47.2248 89.1232 47.2322L89.1306 47.2247Z" fill="#607C78"/>
<path d="M88.7367 47.5961C88.7367 47.5961 88.8036 47.6184 88.8407 47.6258H88.9447C89.0116 47.6333 89.0785 47.6258 89.1379 47.6036C89.1527 47.6036 89.1453 47.559 89.1379 47.5516C89.0785 47.5218 89.0116 47.5144 88.9373 47.5144H88.8333C88.8333 47.5144 88.7664 47.5293 88.7367 47.5441C88.7219 47.5441 88.7219 47.5961 88.7367 47.6036V47.5961Z" fill="#607C78"/>
<path d="M96.2474 46.0434C96.2474 46.0434 96.3217 46.0434 96.3514 46.036C96.3811 46.036 96.4182 46.0211 96.448 46.0063C96.5223 45.984 96.5891 45.9468 96.6485 45.9023C96.6634 45.8948 96.6634 45.8206 96.6485 45.8206C96.5817 45.8206 96.5074 45.828 96.4405 45.8503C96.4108 45.8577 96.3737 45.8726 96.344 45.8874C96.3068 45.9023 96.2771 45.9246 96.24 45.9468C96.2251 45.9543 96.2251 45.984 96.2251 45.9988C96.2251 46.0063 96.2251 46.0434 96.2474 46.0434Z" fill="#607C78"/>
<path d="M96.3513 46.6675L96.4553 46.6527C96.4553 46.6527 96.5148 46.6378 96.5519 46.6304C96.5816 46.623 96.6188 46.6155 96.6485 46.6007C96.6633 46.5932 96.6856 46.5858 96.7005 46.571C96.7153 46.5561 96.7302 46.5412 96.7451 46.5264C96.7599 46.519 96.7599 46.4595 96.7451 46.4669C96.7302 46.4669 96.7228 46.4669 96.7153 46.4669C96.7153 46.4669 96.7005 46.4669 96.6931 46.4669C96.6782 46.4669 96.6559 46.4669 96.6411 46.4669C96.6113 46.4669 96.5742 46.4892 96.5445 46.4967C96.5148 46.5115 96.4851 46.519 96.4479 46.5338L96.3513 46.5858C96.3513 46.5858 96.3365 46.675 96.3513 46.6675Z" fill="#607C78"/>
<path d="M93.2386 3.19435C93.4169 3.21664 93.5804 3.23892 93.7587 3.23149C93.9444 3.22407 94.1227 3.21664 94.3084 3.23149C94.7318 3.26121 95.1181 3.41721 95.4078 3.73665C95.7644 4.11552 95.9724 4.60582 96.0616 5.1184C96.1507 5.62356 96.1507 6.13615 96.2101 6.6413C96.2696 7.1836 96.3884 7.73333 96.6336 8.22363C96.8342 8.61736 97.109 8.96651 97.4507 9.25623C98.0599 9.77625 98.8325 10.0883 99.62 10.1997C100.289 10.2963 101.076 10.2591 101.626 9.83568C101.685 9.79111 101.745 9.73168 101.804 9.67967C101.826 9.65739 101.826 9.50881 101.782 9.53853C101.522 9.6871 101.217 9.78368 100.927 9.83568C100.578 9.89511 100.214 9.90997 99.8651 9.88768C99.0702 9.82082 98.2902 9.54596 97.6513 9.06309C97.317 8.81051 97.0347 8.50593 96.8267 8.14935C96.5444 7.6739 96.4107 7.13903 96.3513 6.59673C96.2399 5.59385 96.2844 4.51667 95.6381 3.66979C95.3707 3.32064 95.0067 3.06806 94.5684 2.99377C94.3901 2.96406 94.2118 2.96406 94.0261 2.98634C93.8478 3.0012 93.6621 3.01606 93.4912 3.06806C93.4095 3.09035 93.3278 3.11263 93.2386 3.12749C93.2164 3.12749 93.2164 3.20921 93.2386 3.20921V3.19435Z" fill="#2D2B2B"/>
<path d="M92.778 19.872C92.6814 20.0429 92.2802 20.4738 90.6682 20.6372C89.8882 20.7189 89.3459 20.7115 88.9744 20.6669C88.7144 20.6372 88.5436 20.5926 88.4247 20.5555C88.3876 20.5406 88.3578 20.5258 88.3281 20.5183C88.3578 20.0206 88.3801 19.7235 88.3801 19.7235C88.3801 19.7235 89.6876 19.8275 90.7276 19.7309C90.7573 19.7309 90.7871 19.7309 90.8242 19.7235C92.0425 19.5972 92.5848 19.0251 92.5848 19.0251C92.5848 19.0251 92.622 19.4634 92.726 19.7532C92.7334 19.7755 92.7482 19.82 92.778 19.872Z" fill="white"/>
<path d="M91.0769 21.1275C91.3444 22.5984 91.4855 24.0916 91.5152 25.5848C91.5524 27.0779 91.5004 28.5711 91.4409 30.0643C91.3295 33.1473 91.2107 36.2302 91.0992 39.3206C91.0695 40.1749 91.0324 41.0366 91.0027 41.8909C90.9878 42.3292 90.9729 42.7601 90.9581 43.1984C90.9432 43.6367 90.9135 44.075 90.9284 44.5059C90.9284 44.6173 91.0398 44.6842 91.0547 44.5356C91.0992 44.1493 91.1067 43.763 91.1141 43.3767C91.1289 42.9904 91.1438 42.5967 91.1587 42.2104C91.1884 41.4303 91.2107 40.6503 91.2404 39.8703C91.2924 38.3103 91.3518 36.7502 91.4038 35.1976C91.4558 33.6524 91.5152 32.1147 91.5672 30.5695C91.6192 29.054 91.6787 27.546 91.6564 26.0305C91.6267 24.3664 91.5078 22.6875 91.1289 21.0606C91.1067 20.9715 91.0547 21.0755 91.0621 21.1201L91.0769 21.1275Z" fill="white"/>
<path d="M89.175 21.0382C89.2493 22.2863 89.8139 23.4897 90.6682 24.3886C90.7871 24.5149 90.9059 24.6263 91.0396 24.7378C91.1734 24.8492 91.3071 24.9829 91.4705 25.0349C91.5522 25.0572 91.5299 24.8715 91.5002 24.8418C91.3962 24.7229 91.2774 24.6338 91.1585 24.5372C91.0396 24.4406 90.9282 24.3366 90.8242 24.2326C90.6162 24.0246 90.4231 23.7943 90.2448 23.5566C89.8956 23.0811 89.6207 22.5463 89.4425 21.9817C89.3459 21.6697 89.2642 21.3428 89.2122 21.0159C89.2047 20.9491 89.1602 20.9788 89.1602 21.0308L89.175 21.0382Z" fill="white"/>
</svg>
