<svg width="103" height="66" viewBox="0 0 103 66" fill="none" xmlns="http://www.w3.org/2000/svg">
<path d="M96.8806 60.7897C96.8806 58.8652 83.0455 57.3132 65.9735 57.3132C48.9014 57.3132 34.0642 61.579 34.0642 63.5035C34.0642 65.428 45.3273 65.6409 62.3905 65.6409C81.0856 65.6409 96.8717 62.7142 96.8717 60.7986L96.8806 60.7897Z" fill="#E2E2E2"/>
<path d="M41.1237 55.5573C41.1237 56.7901 35.6517 57.7922 28.9027 57.7922C22.1537 57.7922 15.0854 56.7901 15.0854 55.5573C15.0854 54.3246 22.1537 53.3313 28.9027 53.3313C35.6517 53.3313 41.1237 54.3335 41.1237 55.5662V55.5573Z" fill="#E2E2E2"/>
<path d="M47.1722 59.1401C46.9682 60.3373 43.7489 60.7896 39.9709 60.1511C36.1929 59.5126 34.8892 58.5814 35.0932 57.3841C35.2971 56.1957 36.9201 55.1936 40.6981 55.8321C44.4761 56.4706 47.3762 57.9517 47.1811 59.1401H47.1722Z" fill="#E2E2E2"/>
<path d="M28.8141 62.6168C28.8141 61.4994 22.5618 60.6036 14.8549 60.6036C7.14812 60.6036 0.895752 61.5082 0.895752 62.6168C0.895752 63.7254 7.14812 64.63 14.8549 64.63C22.5618 64.63 28.8141 63.7254 28.8141 62.6168Z" fill="#E2E2E2"/>
<path d="M61.2111 60.6392L60.342 60.0273C60.342 60.0273 60.7765 50.0678 54.808 50.1388C48.8305 50.2186 48.7951 58.7857 48.7951 58.7857L47.1987 59.1759C46.232 55.0609 46.64 48.8794 54.2492 48.5513C59.393 48.3296 61.0071 51.5045 61.5392 53.4911C62.3995 56.6927 61.22 60.6303 61.22 60.6303L61.2111 60.6392Z" fill="#1A1A1A"/>
<path d="M54.613 64.639C54.613 64.639 57.5042 64.8075 59.4464 63.9827C61.1669 63.2555 62.0538 62.0139 62.6391 60.2934C62.6568 60.2491 62.6657 60.2136 62.6834 60.1692C62.8697 59.6105 63.0204 59.0429 63.118 58.4665C63.322 57.2337 63.3308 53.8104 61.1846 51.3095C59.6504 49.518 56.1029 48.2942 53.0167 49.456C49.7353 50.6887 47.0303 54.6618 48.5203 58.9986C49.3894 60.2047 50.1787 61.1625 50.8793 61.9075C53.398 64.5858 54.6041 64.6301 54.6041 64.6301L54.613 64.639Z" fill="#2D2B2B"/>
<path d="M60.9449 57.5796C60.9449 61.4817 58.1424 64.639 54.6127 64.639C50.6928 64.639 48.1475 61.4817 48.1475 57.5796C48.1475 53.6774 51.012 50.5201 54.5506 50.5201C58.0892 50.5201 60.9537 53.6774 60.9537 57.5796H60.9449Z" fill="#3B4444"/>
<path d="M58.719 57.4375C58.719 57.872 58.6835 58.2889 58.6037 58.688C58.4174 59.7079 58.0095 60.6213 57.433 61.3219C56.9187 61.9427 56.2712 62.4039 55.5263 62.6434C55.3844 62.6877 55.2336 62.732 55.074 62.7586C54.8434 62.803 54.5951 62.8296 54.3468 62.8296C53.6727 62.8296 53.0519 62.6611 52.4932 62.3596C51.5088 61.8186 50.755 60.8519 50.3381 59.6458C50.1696 59.158 50.0543 58.6259 50.01 58.076C50.01 58.0672 50.01 58.0583 50.01 58.0494C49.9923 57.8543 49.9834 57.6503 49.9834 57.4464C49.9834 57.0384 50.0189 56.6482 50.0898 56.2668C50.2672 55.2824 50.6663 54.4044 51.2161 53.7038C51.695 53.0919 52.2804 52.6218 52.9455 52.3469C53.0431 52.3114 53.1406 52.2671 53.2382 52.2405C53.5929 52.1252 53.9654 52.0631 54.3556 52.0631C54.87 52.0631 55.3666 52.1695 55.8189 52.3735C56.8477 52.8258 57.6991 53.7481 58.2046 54.9277C58.4352 55.4598 58.5948 56.054 58.6658 56.6837C58.6658 56.7546 58.6835 56.8256 58.6835 56.8965C58.7012 57.0827 58.7101 57.2601 58.7101 57.4552L58.719 57.4375Z" fill="#C2D1D5"/>
<path d="M54.7902 57.5264C54.7902 57.9521 54.4975 58.2891 54.1428 58.2891C53.788 58.2891 53.4954 57.9432 53.4954 57.5264C53.4954 57.1095 53.788 56.7637 54.1428 56.7637C54.4975 56.7637 54.7902 57.1095 54.7902 57.5264Z" fill="#2D2B2B"/>
<path d="M57.4331 61.3219C56.9187 61.9427 56.2713 62.4039 55.5263 62.6433C55.3844 62.6877 55.2337 62.732 55.074 62.7586L54.6927 59.0249C54.675 58.8209 54.9587 58.7145 55.1095 58.8653L57.4331 61.3219Z" fill="#2D2B2B"/>
<path d="M53.726 55.8413C53.7527 56.0541 53.46 56.1605 53.3092 56.0009L51.2251 53.7039C51.704 53.092 52.2893 52.6219 52.9545 52.347C53.052 52.3115 53.1496 52.2672 53.2471 52.2406L53.726 55.8501V55.8413Z" fill="#2D2B2B"/>
<path d="M52.8125 57.0474C52.8125 57.0474 52.7948 57.0474 52.777 57.0474L50.3825 56.1428C50.3382 56.1251 50.3115 56.0719 50.3293 56.0275C50.347 55.9832 50.4002 55.9566 50.4446 55.9743L52.8391 56.8789C52.8834 56.8966 52.9101 56.9499 52.8923 56.9942C52.8834 57.0297 52.848 57.0474 52.8125 57.0474Z" fill="#2D2B2B"/>
<path d="M58.107 59.0429C58.107 59.0429 58.0893 59.0429 58.0716 59.0429L55.4199 58.0408C55.3755 58.023 55.3489 57.9698 55.3666 57.9255C55.3844 57.8811 55.4376 57.8545 55.4819 57.8723L58.1336 58.8744C58.178 58.8921 58.2046 58.9454 58.1869 58.9897C58.1691 59.0252 58.1425 59.0429 58.107 59.0429Z" fill="#2D2B2B"/>
<path d="M52.5554 58.3243L50.356 59.6457C50.1875 59.158 50.0722 58.6258 50.0278 58.076C50.0278 58.0671 50.0278 58.0583 50.0278 58.0494L52.4135 57.943C52.6529 57.9341 52.7594 58.209 52.5554 58.3332V58.3243Z" fill="#2D2B2B"/>
<path d="M58.7013 56.8877L55.8367 57.1892C55.5973 57.2158 55.4731 56.9498 55.6593 56.8167L58.2224 54.9277C58.453 55.4599 58.6126 56.054 58.6835 56.6837C58.6835 56.7547 58.7013 56.8256 58.7013 56.8966V56.8877Z" fill="#2D2B2B"/>
<path d="M52.2361 61.3751C52.2361 61.3751 52.2095 61.3751 52.1918 61.3662C52.1474 61.3396 52.1297 61.2864 52.1563 61.2509L53.5664 58.546C53.5664 58.546 53.6462 58.4839 53.6817 58.5105C53.726 58.5371 53.7438 58.5904 53.7172 58.6258L52.3071 61.3308C52.3071 61.3308 52.2627 61.3751 52.2272 61.3751H52.2361Z" fill="#2D2B2B"/>
<path d="M54.6572 56.2047C54.6572 56.2047 54.6306 56.2047 54.6217 56.2047C54.5774 56.1869 54.5596 56.1337 54.5774 56.0894L55.9431 53.2071C55.9431 53.2071 56.0141 53.145 56.0584 53.1627C56.1028 53.1805 56.1205 53.2337 56.1028 53.278L54.737 56.1603C54.737 56.1603 54.6926 56.2135 54.6572 56.2135V56.2047Z" fill="#2D2B2B"/>
<path d="M19.3689 51.9833L18.6683 51.4335C18.6683 51.4335 19.023 42.3964 14.1896 42.4673C9.35625 42.5383 9.34738 49.5533 9.34738 49.5533L8.0969 49.2075C8.02595 46.9548 7.20117 41.4386 13.7285 41.0217C17.8878 40.7557 19.1915 43.7001 19.6261 45.5004C20.3178 48.4004 19.3689 51.9833 19.3689 51.9833Z" fill="#1A1A1A"/>
<path d="M14.3404 55.0872C17.3202 55.2114 20.0252 54.7857 21.0894 51.3801L21.1249 51.2649C21.2756 50.7593 21.3998 50.245 21.4796 49.7217C21.6481 48.6043 21.657 45.4914 19.8833 43.2299C18.6151 41.6069 15.6884 40.4984 13.1343 41.5537C10.4205 42.6712 8.18557 46.2807 9.41831 50.2095C10.1367 51.3092 10.7841 52.1695 11.3694 52.8523C13.4358 55.2646 14.3226 55.0872 14.3404 55.0872Z" fill="#2D2B2B"/>
<path d="M19.883 48.4446C19.883 52.4355 17.116 55.3887 13.9233 55.0606C10.7218 54.7324 8.80615 51.8058 8.80615 48.4446C8.80615 45.0834 10.9701 42.1301 13.8701 41.8375C17.054 41.5093 19.883 44.4537 19.883 48.4446Z" fill="#3B4444"/>
<path d="M17.6661 48.3115C17.6661 48.7372 17.6306 49.154 17.5597 49.5531C17.3823 50.5641 16.9921 51.4421 16.4511 52.0984C15.9722 52.6748 15.3869 53.0739 14.7306 53.2513C14.6064 53.2868 14.4734 53.3134 14.3404 53.3311C14.1364 53.3577 13.9324 53.3666 13.7196 53.3488C13.152 53.3045 12.6287 53.1094 12.1764 52.799C11.3871 52.258 10.7929 51.3534 10.4737 50.2803C10.3406 49.8457 10.2519 49.3757 10.2165 48.8879C10.2165 48.8879 10.2165 48.8702 10.2165 48.8613C10.1987 48.6839 10.1987 48.5066 10.1987 48.3292C10.1987 47.9745 10.2253 47.6197 10.2785 47.2916C10.4116 46.4225 10.722 45.6243 11.1477 44.9769C11.5202 44.4093 11.9991 43.9481 12.54 43.6554C12.6199 43.6111 12.6997 43.5756 12.7795 43.5402C13.0722 43.4071 13.3914 43.3273 13.7196 43.3007C14.163 43.2652 14.5887 43.3362 14.9966 43.4958C15.9279 43.8683 16.7172 44.7108 17.1961 45.846C17.4178 46.3692 17.5685 46.9457 17.6395 47.5665C17.6395 47.6375 17.6572 47.6995 17.6572 47.7705C17.675 47.9479 17.6838 48.1341 17.6838 48.3203L17.6661 48.3115Z" fill="#C2D1D5"/>
<path d="M14.074 48.3911C14.074 48.7902 13.8257 49.1095 13.5241 49.1006C13.2226 49.1006 12.9832 48.7814 12.9832 48.3911C12.9832 48.0009 13.2226 47.6816 13.5241 47.6816C13.8257 47.6816 14.074 48.0009 14.074 48.3911Z" fill="#2D2B2B"/>
<path d="M16.4511 52.0896C15.9722 52.6661 15.3868 53.0652 14.7306 53.2425C14.6064 53.278 14.4734 53.3046 14.3404 53.3223L14.0033 49.7926C13.9856 49.5975 14.2339 49.5 14.367 49.6507L16.4599 52.0807L16.4511 52.0896Z" fill="#2D2B2B"/>
<path d="M13.1696 46.8394C13.1962 47.0345 12.9479 47.1409 12.8237 46.9901L11.1387 44.9681C11.5112 44.4005 11.9901 43.9393 12.531 43.6467C12.6109 43.6023 12.6907 43.5668 12.7705 43.5314L13.1696 46.8394Z" fill="#2D2B2B"/>
<path d="M12.4156 47.9655C12.4156 47.9655 12.389 47.9655 12.3802 47.9655L10.4734 47.185C10.4291 47.1673 10.4025 47.1141 10.4291 47.0697C10.4468 47.0254 10.5 46.9988 10.5444 47.0254L12.4511 47.8058C12.4955 47.8236 12.5221 47.8768 12.4955 47.9211C12.4777 47.9566 12.4511 47.9743 12.4156 47.9743V47.9655Z" fill="#2D2B2B"/>
<path d="M17.0807 49.8813C17.0807 49.8813 17.054 49.8813 17.0452 49.8813L14.624 48.888C14.5797 48.8703 14.5531 48.8171 14.5797 48.7727C14.5974 48.7284 14.6507 48.7018 14.695 48.7284L17.1161 49.7217C17.1605 49.7394 17.1871 49.7926 17.1605 49.837C17.1427 49.8724 17.1161 49.8902 17.0807 49.8902V49.8813Z" fill="#2D2B2B"/>
<path d="M12.203 49.1184L10.4647 50.2713C10.3317 49.8368 10.243 49.3667 10.2075 48.8789C10.2075 48.8789 10.2075 48.8612 10.2075 48.8523L12.0877 48.7637C12.2828 48.7548 12.3715 49.012 12.203 49.1184Z" fill="#2D2B2B"/>
<path d="M17.6482 47.7616L14.9965 48.072C14.7837 48.0986 14.6772 47.8503 14.8369 47.7173L17.1871 45.8282C17.4088 46.3515 17.5595 46.928 17.6305 47.5488C17.6305 47.6197 17.6482 47.6818 17.6482 47.7527V47.7616Z" fill="#2D2B2B"/>
<path d="M11.9457 51.9032C11.9457 51.9032 11.9191 51.9032 11.9103 51.9032C11.8659 51.8855 11.8482 51.8323 11.8659 51.7879L13.0188 49.349C13.0188 49.349 13.0898 49.287 13.1341 49.3047C13.1785 49.3224 13.1962 49.3757 13.1785 49.42L12.0256 51.8589C12.0256 51.8589 11.9812 51.9121 11.9457 51.9121V51.9032Z" fill="#2D2B2B"/>
<path d="M13.968 47.1587C13.968 47.1587 13.9414 47.1587 13.9325 47.1587C13.8881 47.141 13.8704 47.0877 13.8881 47.0434L15.0854 44.2587C15.1031 44.2143 15.1564 44.1966 15.2007 44.2143C15.245 44.2321 15.2628 44.2853 15.245 44.3296L14.0478 47.1144C14.0478 47.1144 14.0034 47.1676 13.968 47.1676V47.1587Z" fill="#2D2B2B"/>
<path d="M100.455 55.3711C100.455 57.9253 98.9115 61.9782 94.424 61.9782C92.3487 61.9782 90.8233 61.2776 89.83 60.0803C88.8633 58.9185 88.3933 57.2867 88.3933 55.38C88.3933 51.4955 91.0982 48.5511 94.424 48.5511C95.4439 48.5511 96.3928 48.8172 97.2264 49.2872C99.1687 50.3958 100.463 52.6484 100.463 55.38L100.455 55.3711Z" fill="#2D2B2B"/>
<path d="M98.8936 55.2645C98.8936 58.8031 96.4725 61.6765 93.4749 61.6765C90.4773 61.6765 88.0562 58.8031 88.0562 55.2645C88.0562 51.726 90.4773 48.8525 93.4749 48.8525C96.4725 48.8525 98.8936 51.726 98.8936 55.2645Z" fill="#3B4444"/>
<path d="M62.4083 60.0892C62.4083 60.0892 62.6389 60.4351 64.3328 60.639C66.0267 60.843 96.7298 58.5283 98.0335 58.2711C99.3372 58.0139 100.366 57.5262 100.366 57.5262L100.455 56.9231L62.9404 59.0959L62.3994 60.0892H62.4083Z" fill="black"/>
<path d="M81.3872 34.1042H76.2878C75.5074 34.1042 74.8777 33.4745 74.8777 32.694C74.8777 31.9136 75.5074 31.2839 76.2878 31.2839H81.3872C82.1677 31.2839 82.7974 31.9136 82.7974 32.694C82.7974 33.4745 82.1677 34.1042 81.3872 34.1042Z" fill="#F37800"/>
<path d="M6.43855 43.5315C6.58932 45.6156 6.58932 46.2364 6.95293 47.682C6.95293 47.682 7.38749 49.4646 8.09698 49.2074C8.37191 45.3673 8.4872 44.3651 10.1811 42.689C12.8062 40.6935 15.3692 41.1104 17.4622 42.6003C19.0142 43.7 20.0164 45.1722 20.2026 47.0612C20.3179 48.2407 20.4687 48.9768 20.2647 50.1475C20.1228 50.9723 19.7858 51.9035 20.5396 52.1252C20.8944 52.2316 21.258 52.3292 21.6127 52.4267C22.7302 52.7371 23.8388 53.0475 24.9562 53.3579C32.3438 55.3888 39.749 57.3311 47.1809 59.1846C46.8617 55.779 47.1277 54.7326 48.0944 52.6662C48.9458 50.8304 50.9057 49.4469 52.848 48.9857C54.7902 48.5245 56.9275 49.0212 58.7101 49.9346C60.8208 51.0077 61.8319 52.9411 62.3906 55.1405C62.8695 57.0029 62.4349 59.7788 62.3906 60.0981C62.5591 60.0981 63.0735 60.0892 63.171 60.0803C63.4371 60.0626 63.7031 60.0448 63.9692 60.0271C64.8028 59.9739 65.6454 59.9207 66.479 59.8675C67.6408 59.7965 68.8026 59.7167 69.9644 59.6458C71.3656 59.5571 72.758 59.4684 74.1592 59.3797C75.7024 59.2821 77.2366 59.1846 78.7798 59.087C80.3673 58.9806 81.9547 58.8831 83.5422 58.7766C85.0854 58.6791 86.6285 58.5727 88.1805 58.4751C89.5906 58.3864 91.0007 58.2889 92.4108 58.1913C93.5903 58.1115 94.7699 58.0317 95.9494 57.9519C96.8097 57.8898 97.6699 57.8277 98.5302 57.7656C98.9736 57.7301 99.4259 57.7035 99.8605 57.6503C102.211 57.3577 102.574 53.8368 102.867 52.1518C103.16 50.4667 102.867 49.234 102.37 48.5157C101.98 47.9481 101.616 47.6288 101.412 47.2386C101.324 47.0789 101.271 46.9016 101.253 46.6976C101.164 45.7753 101.102 44.9416 100.827 44.0636C100.809 43.9927 100.783 43.9217 100.756 43.8508C100.446 42.9639 99.1687 41.7932 98.3794 41.3143C97.0402 40.4984 91.1515 38.1216 88.7304 37.2525C86.6285 36.4987 84.5266 35.7537 82.4248 35.0176C81.9902 34.8669 81.7419 34.7782 81.7419 34.7782C81.7419 34.7782 72.7225 27.8429 67.5876 24.1802C65.9735 23.0273 64.6787 22.6991 63.1178 22.1848C61.1579 21.5462 50.5865 19.7459 41.1237 20.1893C31.6609 20.6328 29.6477 20.6239 25.4617 22.5395C21.799 24.2245 20.1849 26.5215 17.1341 29.3329C14.4912 31.7629 14.3139 31.8427 13.2851 32.3571C12.9392 32.5256 12.5579 32.6852 12.1588 32.8448C11.2187 33.2173 10.1988 33.5809 9.44501 34.0864C8.49607 34.7161 7.93735 35.6296 7.04162 37.3944C7.01501 37.4565 6.97954 37.5097 6.95293 37.5807C6.15476 39.4431 6.21684 40.7201 6.42081 43.5492L6.43855 43.5315Z" fill="#FCB755"/>
<path d="M68.2882 36.3036C60.1025 36.8623 50.2761 36.4278 49.939 36.277C49.265 35.9844 45.62 27.1157 45.4427 26.5304C45.2653 25.9451 44.6711 25.005 45.7087 24.5793C45.7442 24.5616 45.7797 24.5616 45.824 24.5439C46.8439 24.3044 48.0057 24.3399 49.0522 24.2955C53.3269 24.0827 57.6104 23.994 61.8939 23.8698C63.6144 23.8166 65.3793 23.6126 67.0821 24.0029C67.2683 24.0472 67.4457 24.1004 67.6142 24.1536C72.7491 27.8164 81.7685 34.7516 81.7685 34.7516C81.7685 34.7516 74.8776 35.8513 68.2882 36.2948V36.3036Z" fill="#2D2B2B"/>
<path d="M32.0158 35.4343C32.0158 35.4343 46.8707 36.6848 47.0303 36.4897C47.1899 36.2946 42.8443 25.5369 42.2679 25.0935C41.4697 24.4727 33.825 24.4816 33.5589 24.4816C33.08 25.6877 32.7873 26.7608 32.3528 29.5722C31.9005 32.4899 32.0246 35.4343 32.0246 35.4343H32.0158Z" fill="#2D2B2B"/>
<path d="M32.876 24.4108C32.876 24.4108 25.4618 25.0138 25.0095 25.138C24.5661 25.2622 22.003 26.2643 20.0697 28.9072C18.021 31.7096 16.9568 32.7561 17.1785 33.1286C17.4002 33.5011 31.4126 35.5231 31.457 35.4256C31.5013 35.328 31.7053 30.8228 31.9448 29.049C32.1931 27.2753 32.7607 25.0138 32.876 24.4108Z" fill="#2D2B2B"/>
<path d="M97.8828 55.5662L67.428 57.2601C66.479 57.3133 65.6631 56.5861 65.6099 55.6371C65.5567 54.6882 66.2839 53.8723 67.2329 53.8191L97.6877 52.1252C98.6366 52.072 99.4525 52.7992 99.5057 53.7481C99.5589 54.6971 98.8317 55.513 97.8828 55.5662Z" fill="#F37800"/>
<path d="M31.6697 39.2214H31.7672L34.6495 39.523C34.6495 39.523 34.3746 40.7823 32.8847 40.7025C31.6519 40.6315 31.6785 39.2214 31.6785 39.2214H31.6697Z" fill="#F37800"/>
<path d="M19.0586 36.8092H19.1296L21.3556 37.0398C21.3556 37.0398 21.1427 38.0153 19.9898 37.9533C19.0409 37.9 19.0586 36.8092 19.0586 36.8092Z" fill="#F37800"/>
<path d="M12.1854 32.8271C11.8218 33.8382 10.8728 36.1706 9.81746 36.7914C8.94834 37.2969 7.78655 37.3856 7.05933 37.3767C7.95506 35.6119 8.51378 34.7073 9.46272 34.0688C10.2254 33.5632 11.2364 33.1996 12.1765 32.8271H12.1854Z" fill="#C31E21"/>
<path d="M30.9245 36.3568C30.8181 36.4189 30.6939 36.4721 30.5964 36.5519C30.49 36.6317 30.3924 36.7116 30.286 36.8002C30.0909 36.9599 29.9135 37.1461 29.7361 37.3235C29.3725 37.696 29.0355 38.1039 28.7429 38.5385C28.1487 39.4165 27.7141 40.3832 27.4569 41.4208C27.1642 42.5826 27.0844 43.7798 27.0135 44.9682C26.9425 46.1655 26.8804 47.3539 26.8095 48.5511C26.774 49.1986 26.7297 49.846 26.6942 50.4934C26.6765 50.8304 26.6587 51.1763 26.641 51.5133C26.6233 51.868 26.5967 52.2316 26.6055 52.5864C26.6055 52.6396 26.6233 52.7549 26.6942 52.7726C26.7652 52.7903 26.7829 52.6839 26.7918 52.6307C26.8361 52.3292 26.845 52.0188 26.8627 51.7172C26.8804 51.4246 26.8982 51.1319 26.9159 50.8392C26.9514 50.2628 26.9869 49.6863 27.0135 49.1187C27.0756 47.9658 27.1465 46.804 27.2086 45.6511C27.2618 44.4805 27.3061 43.3098 27.5279 42.1569C27.723 41.1104 28.0866 40.0905 28.6453 39.1859C28.938 38.707 29.2838 38.2547 29.6563 37.8379C29.8514 37.6162 30.0643 37.4122 30.2771 37.2082C30.3835 37.1106 30.4988 37.0042 30.6053 36.9067C30.7206 36.8002 30.827 36.6849 30.9423 36.5785C30.9777 36.5431 30.9777 36.3479 30.9157 36.3834L30.9245 36.3568Z" fill="#2D2B2B"/>
<path d="M46.9501 37.4564C46.4889 37.7136 46.1342 38.1659 45.8415 38.5916C45.5223 39.0439 45.2651 39.5405 45.0611 40.0549C44.5999 41.2078 44.4048 42.4583 44.325 43.6822C44.2363 45.0302 44.254 46.3782 44.2363 47.7351C44.2186 49.0832 44.2008 50.4312 44.1831 51.7881C44.1565 53.3224 44.1299 54.8478 44.1299 56.382C44.1299 56.453 44.1565 56.6215 44.2629 56.6215C44.3693 56.6215 44.3782 56.4441 44.3782 56.3732C44.4048 53.7126 44.4403 51.052 44.458 48.3914C44.4669 47.0611 44.4492 45.7397 44.4935 44.4094C44.5378 43.1855 44.662 41.9351 45.0522 40.7644C45.2473 40.1791 45.4868 39.6115 45.8061 39.0882C46.1342 38.5384 46.5688 38.0861 46.9767 37.5983C46.9944 37.5717 46.9944 37.4387 46.9501 37.4653V37.4564Z" fill="#2D2B2B"/>
<path d="M28.2463 53.012C28.3705 53.0564 28.4946 53.1096 28.6188 53.145C28.7607 53.1894 28.9026 53.216 29.0445 53.2603C29.3194 53.3313 29.5943 53.4022 29.8693 53.4732C30.4014 53.6062 30.9424 53.7481 31.4745 53.89C32.5653 54.1827 33.6473 54.4753 34.7293 54.7769C36.8932 55.3799 39.0571 55.9741 41.2388 56.524C41.8419 56.6747 42.445 56.8433 43.048 56.9585C43.5269 57.0561 44.1655 57.0295 44.3606 56.4885C44.3872 56.4176 44.3872 56.32 44.3606 56.2491C44.3517 56.2136 44.3074 56.1338 44.2719 56.2047C44.059 56.6393 43.4914 56.657 43.0746 56.5861C42.5425 56.4885 42.0104 56.3466 41.4783 56.2136C40.4052 55.9475 39.3321 55.6726 38.2678 55.3888C36.1305 54.8212 34.002 54.2359 31.8647 53.6772C31.2705 53.5264 30.6674 53.3668 30.0644 53.216C29.7717 53.145 29.4702 53.0652 29.1775 53.0031C29.0268 52.9677 28.8671 52.9322 28.7163 52.9056C28.5656 52.8701 28.4059 52.8612 28.2552 52.8435C28.2108 52.8435 28.2108 52.9943 28.2552 53.0031L28.2463 53.012Z" fill="#2D2B2B"/>
<path d="M49.2649 37.2526V37.2349C53.4863 39.656 57.6723 41.2701 61.6632 42.9196C62.9669 43.4518 64.2617 43.9927 65.5388 44.3652C66.8247 44.7377 67.9954 44.853 69.1838 44.8087C69.2193 44.8087 69.2636 44.8087 69.2991 44.8087C70.0352 44.7732 70.7979 44.8087 71.5428 44.8087C72.6603 44.8087 73.7777 44.7909 74.8952 44.7732C76.1811 44.7554 77.4671 44.7288 78.753 44.7022C80.1454 44.6756 81.5289 44.6313 82.9213 44.5869C84.3491 44.5337 85.7769 44.4805 87.2048 44.4096C88.606 44.3386 90.0161 44.2499 91.4174 44.1524C92.7388 44.0548 94.0514 43.9395 95.3639 43.7976C96.5346 43.6735 97.6964 43.5227 98.867 43.3365C99.1242 43.2921 99.3814 43.2744 99.6386 43.2212C99.7007 43.2123 99.7184 43.5316 99.6386 43.5493C99.3725 43.5937 99.1153 43.6557 98.8581 43.7001C98.5832 43.7444 98.3083 43.7888 98.0334 43.8242C97.4569 43.9041 96.8716 43.9839 96.2951 44.0548C95.018 44.2056 93.7321 44.3297 92.455 44.4273C91.0715 44.5426 89.688 44.6313 88.3045 44.7022C86.8855 44.782 85.4577 44.8441 84.0387 44.8973C82.6375 44.9506 81.2451 44.9949 79.8438 45.0304C78.5313 45.0658 77.2187 45.0836 75.9062 45.1013C74.7444 45.1191 73.5826 45.1279 72.4208 45.1368C71.4808 45.1368 70.5407 45.1368 69.5917 45.1368C68.7581 45.1368 67.9333 45.19 67.0642 45.0836C65.7162 44.9151 64.4036 44.312 63.029 43.7888C60.3861 42.7777 57.6901 41.7135 54.9319 40.4276C53.3267 39.6737 51.7038 38.8667 50.0631 37.9887C49.7438 37.8202 49.3447 37.5541 49.2826 37.2703L49.2649 37.2526Z" fill="#2D2B2B"/>
<path d="M75.1523 46.6357C74.7089 46.6623 74.5137 47.2033 74.833 47.5048C76.0835 48.6932 78.9835 50.733 83.9322 50.4847C89.0849 50.2275 91.3198 48.1256 92.1534 46.822C92.3751 46.4761 92.1091 46.0238 91.7011 46.0415L75.1523 46.6268V46.6357Z" fill="#F37800"/>
<path d="M76.163 47.7795C76.6331 47.7972 77.0942 47.8239 77.5554 47.815C78.0166 47.815 78.4866 47.7973 78.9478 47.7884C79.879 47.7618 80.8013 47.7352 81.7325 47.7086C83.5861 47.6554 85.4485 47.6021 87.302 47.5489C87.8164 47.5312 88.3308 47.5223 88.854 47.5046C89.3861 47.4869 89.9182 47.4868 90.4415 47.4514C90.5302 47.4514 90.5213 47.0612 90.4326 47.0612C89.9715 47.0612 89.5014 47.0789 89.0403 47.0966C88.5791 47.1055 88.109 47.1232 87.6479 47.1321C86.7167 47.1587 85.7943 47.1853 84.8631 47.2119C83.0096 47.2651 81.1472 47.3272 79.2937 47.3804C78.7793 47.3982 78.2649 47.4159 77.7505 47.4336C77.4845 47.4425 77.2184 47.4602 76.9523 47.478C76.6863 47.4957 76.4202 47.5312 76.1542 47.5578C76.101 47.5578 76.101 47.7706 76.1542 47.7795H76.163Z" fill="#2D2B2B"/>
<path d="M78.3982 48.8171C79.1077 48.8437 79.8084 48.8437 80.5178 48.826L82.5931 48.7728C83.9943 48.7373 85.3956 48.6929 86.7879 48.6486C87.1693 48.6397 87.5507 48.622 87.9409 48.6042L88.5173 48.5776C88.6237 48.5776 88.7213 48.5688 88.8277 48.551C88.9342 48.5333 89.0317 48.4978 89.1381 48.4712C89.1736 48.4623 89.1647 48.3471 89.1381 48.3382C88.9608 48.2938 88.7923 48.2584 88.606 48.2672C88.4286 48.2672 88.2513 48.2672 88.0739 48.2672C87.7191 48.2672 87.3644 48.2672 87.0097 48.285C86.3179 48.3027 85.6262 48.3204 84.9344 48.3471C83.5332 48.3914 82.1319 48.4357 80.7396 48.4801C79.9591 48.5067 79.1787 48.551 78.3982 48.622C78.3539 48.622 78.3539 48.8171 78.3982 48.8171Z" fill="#2D2B2B"/>
<path d="M81.3779 49.6863C81.8036 49.7661 82.2382 49.7395 82.6639 49.7395C83.0896 49.7395 83.5241 49.7217 83.9498 49.7129C84.3755 49.704 84.8101 49.6951 85.2358 49.6774C85.4397 49.6774 85.6526 49.6685 85.8566 49.6508C86.0783 49.6419 86.3 49.6331 86.5217 49.571C86.5749 49.5532 86.5661 49.367 86.5217 49.3581C86.3 49.3049 86.0783 49.3138 85.8566 49.3138C85.6526 49.3138 85.4397 49.3138 85.2358 49.3227C84.8101 49.3315 84.3755 49.3404 83.9498 49.3581C83.5241 49.3759 83.0896 49.3847 82.6639 49.4025C82.2382 49.4202 81.8036 49.4202 81.3779 49.5266C81.3424 49.5355 81.3424 49.6774 81.3779 49.6863Z" fill="#2D2B2B"/>
<path d="M68.6783 55.4154C68.6783 55.779 68.2171 56.0805 67.6407 56.0805C67.0642 56.0805 66.603 55.779 66.603 55.4154C66.603 55.0518 67.0642 54.7502 67.6407 54.7502C68.2171 54.7502 68.6783 55.0518 68.6783 55.4154Z" fill="white"/>
<path d="M98.1043 53.8901C98.1043 54.2537 97.6431 54.5553 97.0667 54.5553C96.4902 54.5553 96.0291 54.2537 96.0291 53.8901C96.0291 53.5265 96.4902 53.225 97.0667 53.225C97.6431 53.225 98.1043 53.5265 98.1043 53.8901Z" fill="white"/>
<path d="M16.8501 34.2461C16.3801 35.7449 16.0874 37.288 15.7149 38.8134C15.6085 39.248 15.5021 39.6825 15.3779 40.1171C15.3602 40.1703 15.3602 40.3832 15.4489 40.3743C16.6905 40.3122 17.9587 40.6936 18.9786 41.3853C20.0073 42.0771 20.7878 43.1147 21.178 44.2942C21.2844 44.6135 21.3642 44.9416 21.4086 45.2786C21.4529 45.6245 21.4529 45.9704 21.4618 46.3163C21.4618 46.3606 21.4707 46.4848 21.5327 46.4936C21.5948 46.5025 21.6126 46.4049 21.6214 46.3606C21.6746 46.0236 21.6569 45.6777 21.6214 45.3496C21.5859 45.0214 21.5239 44.6933 21.4352 44.374C21.2667 43.7444 21.0006 43.1413 20.637 42.6003C19.9275 41.5183 18.8367 40.6936 17.6039 40.3033C16.9033 40.0816 16.1761 39.9929 15.44 40.0373L15.5109 40.2945C15.9278 38.7691 16.2382 37.2171 16.6018 35.6739C16.7082 35.2394 16.8058 34.7959 16.9033 34.3525C16.9033 34.317 16.8678 34.1574 16.8412 34.2461H16.8501Z" fill="#2D2B2B"/>
<path d="M24.3264 52.1873C24.5126 52.2582 24.6989 52.3292 24.894 52.3735L25.4882 52.5154C25.8872 52.6041 26.2863 52.7017 26.6854 52.7904C26.783 52.8081 26.8096 52.4001 26.6766 52.3735C26.2863 52.3026 25.8961 52.2316 25.5059 52.1696C25.3108 52.1341 25.1245 52.0986 24.9294 52.072C24.7343 52.0365 24.5304 52.0277 24.3352 52.0188C24.282 52.0188 24.2909 52.1784 24.3352 52.1962L24.3264 52.1873Z" fill="#2D2B2B"/>
<path d="M43.4383 36.4544H37.656C36.8755 36.4544 36.2458 35.8247 36.2458 35.0443C36.2458 34.2638 36.8755 33.6342 37.656 33.6342H43.4383C44.2187 33.6342 44.8484 34.2638 44.8484 35.0443C44.8484 35.8247 44.2187 36.4544 43.4383 36.4544Z" fill="#F37800"/>
<path d="M40.7424 35.3546H43.3143L44.4318 36.277C45.026 36.7736 44.6624 37.7491 43.8908 37.7137H43.8376C43.6779 37.7048 43.5183 37.6427 43.3941 37.5452C41.1149 35.8246 40.7513 35.3546 40.7513 35.3546H40.7424Z" fill="#F37800"/>
<path d="M43.1193 34.1929C42.1792 34.1309 41.2303 34.0865 40.2902 34.0688C39.8113 34.0599 39.3412 34.051 38.8623 34.051C38.4367 34.051 37.9666 33.9978 37.5587 34.1309C37.2039 34.2373 36.8492 34.6098 37.0354 35C37.1064 35.1419 37.4788 35.0975 37.4079 34.929C37.3458 34.796 37.3724 34.6541 37.4611 34.5388C37.5587 34.4058 37.7094 34.3437 37.8691 34.326C38.0553 34.2994 38.2504 34.3082 38.4367 34.3082C38.6495 34.3082 38.8623 34.3082 39.0752 34.3082C39.9354 34.3082 40.7868 34.3348 41.6471 34.3703C42.1349 34.388 42.6315 34.4147 43.1193 34.4501C43.1902 34.4501 43.3055 34.4147 43.3144 34.326C43.3144 34.2284 43.1902 34.2018 43.1193 34.2018V34.1929Z" fill="white"/>
<path d="M81.6711 31.7452C81.5026 31.7275 81.3341 31.7452 81.1656 31.7452C80.9882 31.7452 80.802 31.7452 80.6246 31.7541L78.4429 31.8073C78.372 31.8073 78.2567 31.8427 78.2478 31.9314C78.2478 32.0201 78.372 32.0556 78.4429 32.0556C79.0548 32.0379 79.6756 32.029 80.2876 32.0112L81.1922 31.9935C81.3075 31.9935 81.8662 31.9226 81.7154 32.2064C81.6267 32.366 82.0081 32.4192 82.0879 32.2773C82.2387 31.9935 81.9105 31.7807 81.6711 31.7541V31.7452Z" fill="white"/>
<path d="M94.211 46.3606C94.2288 46.7952 94.4505 47.1322 94.823 47.3185C95.1866 47.4958 95.63 47.5668 96.0291 47.6377C97.8205 47.957 99.6918 47.8151 101.43 47.2298C101.341 47.0701 101.288 46.8928 101.27 46.6888C101.182 45.7665 101.12 44.9328 100.845 44.0548C100.1 44.3652 99.3193 44.6047 98.5212 44.782C98.06 44.8796 97.5988 44.9594 97.1377 45.0126C96.6765 45.0658 96.2153 45.0836 95.7542 45.119C95.5768 45.1279 95.3994 45.1368 95.222 45.1457C95.1688 45.1457 95.1245 45.1456 95.0713 45.1545C94.9294 45.1723 94.7875 45.2255 94.6633 45.3142C94.3263 45.5447 94.1933 45.9793 94.211 46.3606Z" fill="#F37800"/>
<path d="M60.0581 46.6178C60.0581 46.9903 60.1468 47.3716 60.3419 47.6997C60.5636 48.0722 60.9006 48.3649 61.2642 48.6043C61.6545 48.8527 62.089 49.0389 62.5236 49.1897C62.9936 49.3582 63.4636 49.5178 63.9426 49.6331C65.9291 50.1297 68.031 50.1386 70.0264 49.6508C70.4698 49.5444 70.9576 49.4291 71.3567 49.2074C71.7735 48.9768 72.013 48.5955 72.0396 48.1254C72.0573 47.7175 71.9154 47.2474 71.5341 47.0257C71.3922 46.9459 71.2414 46.8927 71.0818 46.8838C71.0286 46.8838 70.9665 46.8838 70.9133 46.8838C70.7182 46.8838 70.5231 46.8838 70.3191 46.8838C69.8047 46.8838 69.2815 46.8927 68.7671 46.875C68.2438 46.8484 67.7206 46.804 67.1973 46.7242C66.1686 46.5734 65.1487 46.3162 64.1643 45.9615C63.6854 45.793 63.2242 45.5801 62.7542 45.3762C62.3196 45.1899 61.8496 45.0126 61.3618 45.0392C60.9627 45.0658 60.5902 45.252 60.3596 45.5713C60.1468 45.8728 60.0581 46.2453 60.0581 46.6089V46.6178Z" fill="#F37800"/>
<path d="M70.3722 47.7176C70.1948 47.6999 70.0263 47.6644 69.849 47.6556C69.6716 47.6378 69.4942 47.6201 69.3257 47.6112C68.9444 47.5757 68.5542 47.5403 68.1728 47.4959C67.3658 47.3984 66.5676 47.2653 65.7783 47.0791C65.0422 46.9106 64.2972 46.7066 63.6055 46.4051C62.9137 46.1036 62.1244 45.5005 61.3529 45.8641C60.9804 46.0415 60.8296 46.4228 60.8473 46.813C60.8651 47.1412 61.007 47.6023 61.3883 47.6201C61.4504 47.6201 61.4149 47.4693 61.3883 47.4427C61.1932 47.2742 60.9715 46.9993 60.9892 46.7244C61.0158 46.4051 61.3351 46.1834 61.6278 46.1213C62.0269 46.0237 62.4348 46.139 62.7984 46.3075C63.1266 46.4583 63.437 46.6268 63.7651 46.7598C65.122 47.3008 66.5942 47.5491 68.0398 47.6999C68.4477 47.7442 68.8557 47.7797 69.2636 47.8063C69.4499 47.8152 69.6361 47.8241 69.8224 47.8329C70.0086 47.8329 70.186 47.8241 70.3722 47.8152C70.3988 47.8152 70.3988 47.7265 70.3722 47.7265V47.7176Z" fill="white"/>
<path d="M95.4524 46.1211C95.8249 46.1565 96.2152 46.1388 96.5876 46.1033C96.9424 46.0678 97.2971 46.0235 97.643 45.9614C98.3347 45.8373 99.0176 45.6599 99.6739 45.4204C99.869 45.3495 100.064 45.2608 100.277 45.2519C100.437 45.2519 100.614 45.2874 100.756 45.3672C100.791 45.385 100.782 45.2874 100.774 45.2785C100.614 44.9415 100.259 44.9593 99.9488 45.0568C99.603 45.1721 99.2659 45.3051 98.9112 45.4116C98.2106 45.6155 97.4922 45.7574 96.765 45.8373C96.3304 45.8816 95.887 45.8993 95.4524 45.9614C95.4081 45.9614 95.4081 46.1122 95.4524 46.1211Z" fill="white"/>
<path d="M90.2826 54.227L78.7622 54.7413C78.0705 54.7679 77.4852 54.2358 77.4497 53.5441C77.4231 52.8523 77.9552 52.267 78.6469 52.2315L90.1673 51.7171C90.859 51.6905 91.4443 52.2227 91.4798 52.9144C91.5064 53.6062 90.9743 54.1915 90.2826 54.227Z" fill="#2D2B2B"/>
<path d="M34.7648 20.1182L36.8046 19.8788C36.8046 19.8788 37.2125 21.5017 35.9 21.821C34.5874 22.1403 34.4721 20.5439 34.7559 20.1182H34.7648Z" fill="#FCA481"/>
<path d="M38.4453 17.298L38.1083 18.8234C38.0108 18.6461 37.9221 18.4776 37.86 18.3711C37.7891 18.2381 37.6294 18.176 37.4964 18.2292C37.4254 18.2558 37.3545 18.3179 37.3101 18.4421C37.1062 18.4687 37.0175 18.6993 37.0175 18.6993C36.8224 18.7968 36.7603 19.0895 36.7603 19.0895C36.7603 19.0895 36.5031 19.3201 36.4676 19.799C36.4588 19.9763 36.4676 20.2158 36.4676 20.4464C35.9444 20.4198 35.4034 20.3666 34.9866 20.2247C34.8269 20.1626 34.685 20.0916 34.5697 20.003C34.4988 19.9497 34.4545 19.8522 34.4101 19.728C34.2239 19.0895 34.3658 17.635 34.5077 16.6417C34.5964 16.0298 35.1373 15.5864 35.7581 15.6219C36.0597 15.6396 36.3967 15.6751 36.7514 15.7283C37.0441 15.7815 37.319 15.8347 37.5585 15.8879C38.197 16.0387 38.5872 16.6684 38.4453 17.298Z" fill="#607C78"/>
<path d="M38.0994 18.8235L37.9664 19.4443C37.9398 19.5951 37.8156 19.8523 37.7358 19.9765C37.4875 20.3755 37.0973 20.4642 36.7337 20.4465C36.645 20.4465 36.5563 20.4465 36.4676 20.4288C36.4676 20.1982 36.4499 19.9587 36.4676 19.7813C36.5031 19.2936 36.7603 19.0719 36.7603 19.0719C36.7603 19.0719 36.8223 18.7792 37.0175 18.6816C37.0175 18.6816 37.1061 18.4599 37.3101 18.4244C37.3456 18.3003 37.4165 18.2382 37.4964 18.2116C37.6383 18.1584 37.789 18.2293 37.86 18.3535C37.9221 18.4599 38.0107 18.6284 38.1083 18.8058L38.0994 18.8235Z" fill="#607C78"/>
<path d="M28.0601 15.8169C28.0601 15.8169 30.8625 15.8612 32.8225 15.6661C33.6916 15.5774 34.2947 15.4799 34.7026 15.4001C35.1283 15.3114 35.4831 15.0098 35.6339 14.6019C35.9176 13.8303 35.4033 12.9967 34.5874 12.908L30.3659 12.4557L29.5855 12.8016L28.0601 15.8258V15.8169Z" fill="#2E93B9"/>
<path d="M21.9585 23.0537V23.1069C21.9585 23.1069 21.9585 23.1335 21.9585 23.1424V23.169L11.5556 23.3907C11.5556 23.3907 9.45376 12.7484 10.385 11.427C10.8195 10.8062 11.8926 10.3982 12.9391 10.1144C13.3293 10.008 13.7107 9.9193 14.0566 9.84835C14.7661 9.69758 15.3159 9.61777 15.4135 9.55569C15.6884 9.39605 18.8545 9.67985 19.2713 9.7508C19.3866 9.76853 19.6083 9.83948 19.901 9.93704C20.1404 10.0169 20.4242 10.1233 20.7346 10.2474C21.4707 10.5401 22.3487 10.9303 23.0582 11.3649C23.2001 11.4536 22.0915 21.821 21.9585 23.0448V23.0537Z" fill="#C2D1D5"/>
<path d="M10.9705 56.8519V59.5835C10.9705 59.5835 11.4494 60.4703 13.0102 60.5945C14.5711 60.7098 15.4491 59.4682 15.4491 59.4682L14.376 57.0914L10.9705 56.8519Z" fill="#FFAE83"/>
<path d="M19.7238 56.577L19.5464 59.211C19.5464 59.211 19.8657 60.0801 21.2137 60.0447C22.5617 60.0092 23.2091 59.2287 23.2091 59.2287L22.8544 56.6746L19.7238 56.577Z" fill="#FFAE83"/>
<path d="M24.6636 42.4138C24.6636 43.2297 24.1492 57.8807 24.1492 57.8807C24.1492 57.8807 23.4574 58.5015 21.6394 58.4926C20.0874 58.4749 18.7925 57.7477 18.7925 57.7477C18.7925 57.7477 19.1118 43.5579 19.0675 43.2386C19.0231 42.9193 19.0675 42.3251 18.4289 40.1435C17.7904 37.9618 17.2051 34.6893 17.2051 34.6893L15.8836 57.7477C15.8836 57.7477 15.183 58.5192 13.498 58.466C11.8129 58.4217 10.3762 57.6501 10.3762 57.6501C10.3762 57.6501 10.7044 46.9634 10.6068 44.4181C10.5181 41.8728 10.4738 31.0443 10.3762 29.7672C10.3053 28.7739 10.9527 27.4791 11.3163 26.5745C11.4227 26.3173 11.5025 26.0867 11.538 25.9005C11.5824 25.6699 11.6001 25.3684 11.609 25.058C11.6178 24.2687 11.538 23.3907 11.538 23.3907C11.538 23.3907 12.6555 23.0271 13.8173 21.2533C14.9879 19.4796 15.2894 17.2536 14.8549 14.389C14.5001 12.03 13.3295 10.5667 12.9304 10.1232C13.3206 10.0168 13.702 9.92813 14.0478 9.85718C14.2429 10.0612 14.5267 10.3893 14.8637 10.9125C15.5821 12.0211 15.9812 13.9811 15.9812 13.9811H20.4864C20.4864 13.9811 20.5308 13.7062 20.4864 12.9168C20.451 12.2694 20.043 10.5401 19.9011 9.94586L20.7348 10.2563C20.8855 10.611 21.7192 12.6153 22.1981 14.8857C22.544 16.5264 22.2336 20.3753 21.9586 23.0537V23.1069C21.9586 23.1069 21.9586 23.1335 21.9586 23.1424V23.169C21.8699 23.9849 21.7901 24.6766 21.7369 25.1644C21.7014 25.4837 21.6748 25.7054 21.6748 25.8029C21.666 25.998 21.7014 26.3351 21.7901 26.8051C22.0296 28.1442 22.606 30.5742 23.3155 33.9C24.2733 38.4052 24.6813 41.5891 24.6813 42.405L24.6636 42.4138Z" fill="#2E93B9"/>
<path d="M21.0805 0.634033C21.0805 0.634033 21.5683 1.8313 21.0982 2.49644C20.6282 3.16159 20.3001 3.29462 19.2536 3.36556C18.2071 3.43651 17.2227 2.73589 17.2227 2.73589L21.0805 0.634033Z" fill="#2D2B2B"/>
<path d="M16.0342 6.83296L15.6972 7.4981C15.6972 7.4981 14.704 6.65559 14.5177 6.32745C14.3315 5.99931 14.1275 4.70449 14.1807 4.35862C14.2339 4.00387 13.9501 2.62037 15.3425 1.37876C15.9899 0.802304 19.4487 1.05063 19.4487 1.05063L16.0342 6.83296Z" fill="#5F2929"/>
<path d="M16.1499 6.9926C16.1499 6.9926 18.1098 8.85501 18.4734 8.95256C18.8459 9.05012 20.1939 9.05012 20.4334 8.93482C20.664 8.81953 21.0631 7.1611 21.1961 6.56691C21.3291 5.97271 21.2493 5.64457 21.1961 5.51154C21.1429 5.37851 21.2582 4.94395 21.267 4.81092C21.2759 4.67789 21.1074 3.88859 20.8059 3.18797C20.5043 2.48735 19.919 1.69804 19.6175 1.52954C19.316 1.36103 16.4691 1.228 16.1499 3.12589C15.8306 5.02377 16.0257 5.28096 16.0257 5.28096C16.0257 5.28096 15.804 4.71337 15.263 4.71337C14.722 4.71337 14.8284 5.82194 14.8817 6.06139C14.9349 6.29198 15.396 6.79749 15.6177 6.89504C15.8395 6.9926 16.1587 7.00147 16.1587 7.00147L16.1499 6.9926Z" fill="#FFAE83"/>
<path d="M15.8392 6.45166L15.4135 9.88381C15.3603 10.3361 15.4579 10.8061 15.6973 11.1875C16.0255 11.7019 16.5842 12.3049 17.4445 12.3049C17.8347 12.3049 18.1628 12.2074 18.4377 12.0655C19.165 11.6753 19.5463 10.8505 19.431 10.0346L19.2271 8.60673L15.8481 6.45166H15.8392Z" fill="#FFAE83"/>
<path d="M15.3781 13.9812C15.3781 13.9812 15.5732 14.4867 14.4026 16.1097C13.2319 17.7326 12.9659 17.5641 12.7619 17.4134C12.5579 17.2626 12.3983 15.9766 13.5512 15.0011C14.713 14.0255 14.7839 13.9812 15.3781 13.9812Z" fill="#607C78"/>
<path d="M14.5977 2.40767C14.5977 2.40767 15.0943 1.28136 15.8215 1.05077C16.5488 0.820189 18.9344 0.94435 19.4488 0.900007C19.9543 0.855664 20.1937 0.793584 20.4864 0.571868C20.7791 0.359022 21.0008 0.296942 21.0274 0.465445C21.054 0.633949 21.4265 1.14833 20.8057 1.93763C20.1849 2.72694 19.2448 2.76241 18.6772 2.80676C18.1008 2.8511 17.0809 2.65599 16.8946 2.95752C16.7084 3.26793 16.8946 4.05723 16.8148 4.18139C16.7261 4.30555 16.3536 4.58048 16.3536 4.58048L16.4246 5.83982C16.4246 5.91077 16.398 5.99059 16.327 6.02606C16.265 6.06154 16.194 6.06154 16.1319 5.92851C16.0078 5.66245 16.0166 5.2811 16.0166 5.2811L14.5977 2.40767Z" fill="#5F2929"/>
<path d="M11.955 15.5951C12.0437 15.5951 15.6355 19.3466 17.0633 19.8255C18.4912 20.3044 19.5731 19.0184 19.6086 18.3976C19.6441 17.768 14.926 13.5731 14.926 13.5731C14.926 13.5731 13.3562 12.3847 12.1412 13.2184C10.9262 14.052 11.955 15.604 11.955 15.604V15.5951Z" fill="#FFAE83"/>
<path d="M22.8012 11.4358C22.8012 11.4358 23.6526 11.3737 24.1936 13.4135C24.7346 15.4532 24.8055 18.8233 24.6814 19.6037C24.5483 20.3842 23.2535 20.8986 22.4819 20.4463C21.7015 19.994 22.8101 11.4446 22.8101 11.4446L22.8012 11.4358Z" fill="#FFAE83"/>
<path d="M38.3656 20.1893C38.3656 20.1893 38.4011 20.6416 38.073 20.9431C38.073 21.1294 37.8512 21.3866 37.6473 21.493C37.4433 21.5994 36.6717 22.5661 36.0686 22.708C35.4656 22.841 33.7539 22.6548 33.3105 22.708C32.8671 22.7612 29.7099 22.7257 28.0869 22.6016C26.4639 22.4774 24.0783 21.7768 23.3511 21.3866C22.6238 21.0052 22.34 20.3046 22.2957 20.074C22.2602 19.8434 23.156 19.1428 23.156 19.1428C23.156 19.1428 24.2557 18.4599 25.4263 18.5575C26.5881 18.655 30.9958 20.6327 31.7053 20.7569C32.4148 20.8899 33.3903 20.952 33.3903 20.952C33.3903 20.952 34.153 19.9055 34.4191 19.7104C34.4546 19.8346 34.5078 19.9321 34.5787 19.9853C34.694 20.074 34.8359 20.145 34.9955 20.207C34.9423 20.4288 34.8004 21.1205 35.0133 21.3333C35.2705 21.5905 35.9534 21.493 36.2726 21.3333C36.4766 21.2358 36.4855 20.8278 36.4766 20.4288C36.4766 20.1982 36.4589 19.9587 36.4766 19.7813C36.5121 19.2936 36.7693 19.0719 36.7693 19.0719C36.7693 19.0719 36.8314 18.7792 37.0265 18.6816C37.0265 18.6816 37.1151 18.4599 37.3191 18.4244C37.3546 18.3003 37.4255 18.2382 37.5054 18.2116C37.6473 18.1584 37.798 18.2293 37.869 18.3535C37.9311 18.4599 38.0197 18.6284 38.1173 18.8058C38.3479 19.2315 38.6051 19.7636 38.5962 19.8878C38.5785 20.1095 38.3745 20.1627 38.3745 20.1627L38.3656 20.1893Z" fill="#FFAE83"/>
<path d="M22.3399 15.817C22.3399 15.817 23.0139 15.3647 23.6524 14.6198C24.291 13.8748 24.3087 13.5023 24.3087 13.5023C24.3087 13.5023 24.0249 12.0035 23.1558 11.4448C22.2867 10.8949 21.7634 10.6998 21.7634 10.6998L22.3399 15.817Z" fill="#C2D1D5"/>
<path d="M15.3781 13.9812C15.3781 13.9812 14.4557 14.2827 13.7285 15.3026C13.0013 16.3137 12.7264 17.3779 12.7618 17.3956C12.7973 17.4134 10.323 14.5665 10.1545 13.7684C9.98596 12.9702 9.80859 11.498 10.8728 10.9659C11.9371 10.4338 15.3781 13.9812 15.3781 13.9812Z" fill="#C2D1D5"/>
<path d="M25.3821 20.4818C25.3821 20.4818 26.9607 20.5173 29.0005 20.3665C31.0403 20.2157 31.4482 19.8699 31.7054 19.5328C31.9626 19.1958 33.5323 15.471 33.5323 15.471H32.3617C32.3617 15.471 31.4748 17.7857 30.9338 18.4952C30.384 19.1958 30.1534 19.1958 29.5947 19.3289C29.0359 19.4619 26.9696 19.3377 26.9696 19.3377L30.3751 12.4468L29.3197 12.3049L25.3909 20.4818H25.3821Z" fill="#2E93B9"/>
<path d="M17.0719 17.7149C17.0719 17.7149 16.7615 17.1651 19.4487 16.429C22.1359 15.6929 26.4904 15.2406 26.4904 15.2406C26.4904 15.2406 28.3971 14.0522 28.9026 13.9901C29.3549 13.9369 32.2638 14.2473 32.8492 14.3094C32.9113 14.3094 32.9556 14.3803 32.9467 14.4424C32.9201 14.5666 32.8492 14.7528 32.6009 14.8326C32.2106 14.9479 31.2262 14.9479 31.2262 14.9479C31.2262 14.9479 31.2262 15.3647 31.0311 15.4534C31.0311 15.7461 30.8715 15.9235 30.7207 15.9412C30.7828 16.1097 30.7207 16.3758 30.4192 16.5265C30.4192 16.7394 30.1531 16.9788 29.9137 17.0143C29.6742 17.0409 28.9913 16.97 28.9913 16.97L26.783 16.9079C26.783 16.9079 23.6879 18.185 22.2246 18.726C20.7613 19.2581 18.3933 20.0385 17.7282 19.9321C17.0631 19.8257 16.6551 18.5486 17.0719 17.7149Z" fill="#FFAE83"/>
<path d="M34.4897 13.5732L38.5959 13.9369L38.3476 14.6996L35.5274 14.3803L34.4897 13.5732Z" fill="#2E93B9"/>
<path d="M37.6115 13.3337L36.9109 13.2273C36.6448 13.1918 36.4586 12.9435 36.4941 12.6686C36.5296 12.4025 36.7779 12.2163 37.0528 12.2518L37.7534 12.3582C38.0195 12.3937 38.2057 12.642 38.1702 12.9169C38.1348 13.183 37.8864 13.3692 37.6115 13.3337Z" fill="#607C78"/>
<path d="M42.5162 15.5067L38.5254 15.0278C38.2238 14.9923 38.0199 14.6908 38.0997 14.3981L38.1972 14.0256C38.2593 13.7862 38.4988 13.6266 38.7471 13.6532L42.6847 14.1321L42.5162 15.5156V15.5067Z" fill="#607C78"/>
<path d="M37.0711 12.6584L36.4346 16.3284L37.0462 16.4345L37.6828 12.7644L37.0711 12.6584Z" fill="#607C78"/>
<path d="M19.6174 58.2001L19.5642 58.2622C19.3868 58.4661 19.0143 58.9628 18.97 59.1135C18.9079 59.2909 18.8103 62.0491 18.7926 62.12C18.7749 62.191 18.6684 62.5989 18.766 62.6876C18.8635 62.7763 26.0826 62.8029 26.4019 62.794C26.7123 62.7763 27.4306 62.5812 27.9539 62.2264C28.4771 61.8717 28.6988 61.3218 28.6988 61.1179C28.6988 61.0292 28.1224 60.8518 28.0337 60.8252C27.8563 60.772 24.9031 59.69 24.6015 59.5392C24.3 59.3885 23.0584 57.8187 22.9874 57.73C22.9165 57.6414 22.6416 57.5615 22.4199 58.209C22.1981 58.8564 22.1361 59.2732 22.1361 59.2732C22.1361 59.2732 20.788 59.7077 20.3269 59.1579C19.8657 58.608 19.6174 58.2001 19.6174 58.2001Z" fill="#57726E"/>
<path d="M10.9528 58.3064C10.9528 58.3064 10.5272 58.6878 10.4917 59.211C10.4562 59.7254 10.5626 61.7208 10.5626 61.7208C10.5626 61.7208 10.3143 62.1465 10.2966 62.4215C10.2788 62.6964 10.6158 62.8826 10.9528 62.8826C11.2899 62.8826 18.3138 63.0689 18.7927 63.0156C19.2716 62.9624 19.7948 62.4214 20.0432 62.1643C20.2915 61.9071 20.4068 61.5169 20.3536 61.4104C20.3181 61.3395 20.1939 61.3217 19.9367 61.2242C19.2539 60.9759 17.0278 60.2398 16.5046 60.0447C16.0168 59.8584 15.4936 59.2642 15.3251 59.0336C15.2009 58.8563 14.5624 57.8807 14.5624 57.8807C14.5624 57.8807 14.1101 57.5615 13.844 58.2089C13.578 58.8563 13.5602 59.3174 13.5602 59.3174C13.5602 59.3174 12.1678 59.3884 11.9195 59.211C11.6712 59.0336 10.9528 58.3242 10.9528 58.3242V58.3064Z" fill="#607C78"/>
<path d="M17.0809 5.13929C17.1341 5.11269 17.1962 5.08608 17.2494 5.05947C17.3115 5.024 17.3736 4.98852 17.4356 4.96192C17.5687 4.90871 17.7106 4.87323 17.8613 4.84663C18.1806 4.80228 18.4999 4.84663 18.8103 4.8821C18.8812 4.8821 18.8901 4.59831 18.8103 4.58944C18.4821 4.56283 18.1363 4.53623 17.8081 4.58944C17.6662 4.61604 17.5243 4.66925 17.4002 4.7402C17.2583 4.82002 17.1607 4.90871 17.0632 5.04174C17.0543 5.05947 17.0543 5.13929 17.0809 5.13042V5.13929Z" fill="#5F2929"/>
<path d="M19.0764 4.59835L19.0587 4.62495C19.0587 4.62495 19.0409 4.65156 19.0321 4.66929C19.0321 4.68703 19.0232 4.6959 19.0143 4.71364C19.0055 4.74911 18.9966 4.78459 18.9966 4.82006C18.9966 4.8378 18.9966 4.8644 19.0055 4.89101C19.0055 4.89101 19.0232 4.91762 19.0321 4.91762H19.0409C19.0409 4.91762 19.0587 4.89988 19.0587 4.89101V4.85554C19.0587 4.85554 19.0764 4.81119 19.0853 4.79346C19.0853 4.74911 19.0941 4.71364 19.103 4.66929C19.103 4.65156 19.103 4.62495 19.0941 4.59835C19.0941 4.59835 19.0941 4.58948 19.0853 4.58948C19.0853 4.58948 19.0764 4.58948 19.0675 4.58948L19.0764 4.59835Z" fill="#5F2929"/>
<path d="M21.2759 4.92628C21.2315 4.82872 21.1961 4.74004 21.1162 4.66909C21.0364 4.60701 20.9389 4.57154 20.8325 4.54493C20.593 4.49172 20.3358 4.52719 20.0875 4.5538C19.9988 4.56267 20.0254 4.85533 20.0875 4.84646C20.3181 4.80212 20.5575 4.76664 20.797 4.79325C20.8857 4.80212 20.9921 4.82872 21.0719 4.87307C21.0985 4.89081 21.1251 4.90854 21.1517 4.93515C21.1783 4.96175 21.2227 4.97949 21.2493 5.0061C21.2759 5.02383 21.267 4.93515 21.267 4.92628H21.2759Z" fill="#5F2929"/>
<path d="M19.8744 4.62462C19.8744 4.62462 19.8744 4.70443 19.8744 4.73991C19.8744 4.75765 19.8744 4.78425 19.8833 4.80199V4.82859C19.8833 4.82859 19.8922 4.87294 19.9099 4.88181C19.9188 4.89068 19.9365 4.88181 19.9365 4.87294C19.9454 4.8552 19.9542 4.83746 19.9542 4.81973C19.9542 4.78425 19.9542 4.74878 19.9454 4.7133C19.9454 4.69557 19.9454 4.6867 19.9365 4.66896C19.9365 4.65122 19.9276 4.63349 19.9188 4.61575L19.901 4.58027C19.901 4.58027 19.8833 4.55367 19.8744 4.5714C19.8656 4.58914 19.8567 4.61575 19.8567 4.63349L19.8744 4.62462Z" fill="#5F2929"/>
<path d="M17.409 5.59133C17.5066 5.52925 17.5686 5.4317 17.6662 5.36962C17.7638 5.30754 17.9145 5.2898 18.0298 5.28093C18.3136 5.25433 18.5619 5.36962 18.7216 5.59133C18.7393 5.61794 18.757 5.58246 18.7659 5.56473C18.7659 5.53812 18.7659 5.48491 18.7482 5.4583C18.5619 5.24546 18.2959 5.13017 18.0209 5.1479C17.8791 5.15677 17.7726 5.21885 17.6485 5.2898C17.5953 5.32527 17.542 5.36075 17.4977 5.40509C17.4445 5.4583 17.4268 5.50265 17.4001 5.56473V5.59133H17.409Z" fill="#2D2B2B"/>
<path d="M18.4025 5.48493C18.4025 5.62683 18.3138 5.75099 18.2163 5.75099C18.1187 5.75099 18.03 5.6357 18.03 5.48493C18.03 5.33416 18.1187 5.21887 18.2163 5.21887C18.3138 5.21887 18.4025 5.33416 18.4025 5.48493Z" fill="#2D2B2B"/>
<path d="M21.1072 5.50285C21.0983 5.44964 21.0806 5.4053 21.054 5.35209C21.0363 5.31661 21.0096 5.29001 20.983 5.25453C20.921 5.18358 20.85 5.13924 20.7525 5.13037C20.6549 5.13037 20.5485 5.15698 20.4598 5.20132C20.3622 5.24566 20.2736 5.30774 20.2115 5.39643C20.1937 5.42304 20.1937 5.47625 20.2026 5.50285C20.2026 5.52059 20.2292 5.56493 20.2469 5.52946C20.3445 5.35209 20.5485 5.25453 20.7525 5.27227C20.8234 5.27227 20.921 5.27227 20.9742 5.33435C21.0008 5.36095 21.0185 5.39643 21.0363 5.4319C21.054 5.46738 21.0629 5.49398 21.1072 5.52059V5.50285Z" fill="#2D2B2B"/>
<path d="M20.655 5.43201C20.655 5.53843 20.7171 5.63598 20.7969 5.63598C20.8767 5.63598 20.9388 5.5473 20.9388 5.43201C20.9388 5.31671 20.8767 5.22803 20.7969 5.22803C20.7171 5.22803 20.655 5.31671 20.655 5.43201Z" fill="#2D2B2B"/>
<path d="M15.0856 5.40533C15.1299 5.40533 15.1743 5.43194 15.2275 5.43194C15.2718 5.43194 15.325 5.44967 15.3694 5.45854C15.4669 5.48515 15.5556 5.52949 15.6354 5.59157C15.7685 5.69799 15.8749 5.87537 15.866 6.05274L15.9458 5.99953C15.8749 5.87537 15.7418 5.79555 15.5999 5.85763C15.4403 5.91971 15.396 6.12369 15.4226 6.28332C15.4403 6.36314 15.4758 6.44296 15.5467 6.50504C15.6088 6.55825 15.6975 6.57599 15.7152 6.47843C15.7241 6.43409 15.7152 6.38975 15.7064 6.35427C15.6886 6.30993 15.6532 6.29219 15.6088 6.27445C15.5822 6.25672 15.5556 6.23898 15.5379 6.21237V6.18577C15.5379 6.18577 15.5113 6.22124 15.529 6.20351C15.529 6.19464 15.5379 6.1769 15.5467 6.16803C15.5556 6.15029 15.5733 6.14143 15.5822 6.12369C15.6088 6.09708 15.6443 6.07934 15.6886 6.07934C15.7596 6.07934 15.8483 6.10595 15.8837 6.16803C15.937 6.25672 15.9636 6.13256 15.9636 6.08821C15.9636 5.84876 15.8749 5.60931 15.6975 5.44967C15.6177 5.37872 15.5201 5.33438 15.4137 5.30778C15.3605 5.29004 15.2984 5.29004 15.2452 5.29004C15.1831 5.29004 15.1388 5.31664 15.0856 5.34325C15.0678 5.34325 15.0678 5.40533 15.0856 5.40533Z" fill="#DC7C50"/>
<path d="M19.2803 6.57595C19.3335 6.6735 19.431 6.74445 19.5286 6.80653C19.6173 6.86861 19.7148 6.90409 19.8301 6.91296C20.0075 6.91296 20.2292 6.83314 20.2913 6.6469C20.3002 6.61142 20.3002 6.56708 20.2913 6.53161C20.2913 6.51387 20.2736 6.46953 20.247 6.48726C20.2203 6.51387 20.1937 6.54934 20.1671 6.56708C20.1317 6.59369 20.1051 6.61142 20.0696 6.62916C19.9898 6.66464 19.9011 6.68237 19.8124 6.6735C19.7148 6.6735 19.6173 6.63803 19.5375 6.60256C19.4931 6.58482 19.4576 6.55821 19.4133 6.54048C19.369 6.51387 19.3424 6.49613 19.298 6.48726C19.2714 6.48726 19.2891 6.55821 19.298 6.56708L19.2803 6.57595Z" fill="#DC7C50"/>
<path d="M18.9431 7.50725C19.0584 7.61367 19.2269 7.64915 19.3777 7.67575C19.5196 7.70236 19.6615 7.71123 19.8034 7.71123C19.9364 7.71123 20.0695 7.71123 20.1936 7.69349C20.3089 7.67575 20.4242 7.64915 20.5395 7.61367C20.6104 7.58707 20.5838 7.36535 20.5395 7.38309C20.4242 7.41856 20.3089 7.45404 20.1936 7.47178C20.0695 7.49838 19.9453 7.52499 19.8123 7.52499C19.6704 7.52499 19.5373 7.52499 19.3954 7.50725C19.3156 7.49838 19.2447 7.48064 19.1649 7.46291C19.085 7.44517 19.0141 7.41856 18.9343 7.42743C18.9077 7.42743 18.9165 7.49838 18.9343 7.50725H18.9431Z" fill="#DC7C50"/>
<path d="M19.5199 7.96815C19.6352 7.96815 19.7505 7.96815 19.8746 7.96815C19.9899 7.96815 20.1052 7.96815 20.2205 7.92381C20.2382 7.92381 20.2294 7.86173 20.2205 7.86173C20.1762 7.85286 20.1318 7.84399 20.0875 7.84399C20.0165 7.84399 19.9456 7.84399 19.8746 7.84399C19.7593 7.84399 19.644 7.86173 19.5287 7.87947C19.5021 7.87947 19.5021 7.95929 19.5287 7.95929L19.5199 7.96815Z" fill="#DC7C50"/>
<path d="M16.0874 6.62927C16.1584 7.01949 16.3535 7.34763 16.584 7.65803C16.8146 7.96843 17.0541 8.29657 17.3556 8.54489C17.6305 8.76661 17.9587 8.96172 18.2957 9.05927C18.5972 9.14796 18.9076 9.16569 19.218 9.17456C19.5728 9.17456 19.9275 9.17456 20.2734 9.13909C20.3355 9.13909 20.3266 8.94398 20.2734 8.94398C19.6703 8.96172 19.0584 9.00606 18.4642 8.89964C18.1449 8.84642 17.8256 8.67792 17.5596 8.48281C17.2403 8.25223 17.0097 7.95069 16.7703 7.64029C16.5131 7.30329 16.2825 6.95741 16.1229 6.56719C16.1051 6.52285 16.0874 6.60267 16.0874 6.6204V6.62927Z" fill="#DC7C50"/>
<path d="M16.6641 18.0253C17.4268 17.2803 18.4023 16.7393 19.44 16.491C19.8302 16.4023 20.2381 16.3491 20.6283 16.287C21.7901 16.0831 22.9608 15.9057 24.1226 15.6751C24.362 15.6219 24.6104 15.5864 24.8587 15.5243C24.9562 15.4977 25.0449 15.4711 25.1425 15.4534C25.1602 15.4534 25.1602 15.3824 25.1425 15.3824C25.0627 15.3913 24.9828 15.4002 24.9119 15.4091C24.7168 15.4268 24.5128 15.4623 24.3177 15.4889C23.7146 15.5776 23.1204 15.684 22.5174 15.7904C21.9409 15.888 21.3556 15.9944 20.7791 16.0919C20.4421 16.154 20.0962 16.1984 19.7592 16.2604C18.5797 16.4822 17.48 17.0675 16.6641 17.9455C16.6463 17.9632 16.6641 18.0342 16.673 18.0253H16.6641Z" fill="#DC7C50"/>
<path d="M30.4725 14.8947C30.5878 14.9213 30.6942 14.9391 30.8095 14.9568C30.9248 14.9745 31.0401 14.9745 31.1465 14.9745C31.2618 14.9745 31.3771 14.9745 31.4924 14.9745H31.6786C31.6786 14.9745 31.7496 14.9745 31.785 14.9745C31.8205 14.9745 31.8383 14.9657 31.8649 14.9391C31.8737 14.9391 31.8649 14.9036 31.8649 14.8947C31.8294 14.8681 31.8205 14.8593 31.7762 14.8593C31.7407 14.8593 31.7052 14.8593 31.6698 14.8593H31.4924C31.3771 14.8593 31.2529 14.8593 31.1376 14.8593C30.9071 14.8593 30.6853 14.8593 30.4636 14.877V14.8947H30.4725Z" fill="#DC7C50"/>
<path d="M29.772 15.3028V15.3383C29.8074 15.3649 29.8784 15.3738 29.9227 15.3738C30.0469 15.3915 30.1711 15.4092 30.2952 15.427C30.4371 15.4447 30.579 15.4536 30.7298 15.4624C30.7919 15.4624 30.8539 15.4624 30.916 15.4713C30.9515 15.4713 31.0313 15.4891 31.0668 15.4536C31.0845 15.4358 31.0845 15.3915 31.0668 15.3738C31.0402 15.3472 30.9604 15.356 30.916 15.356C30.8539 15.356 30.7919 15.356 30.7298 15.3472C30.5879 15.3383 30.446 15.3294 30.3041 15.3117C30.1799 15.3028 30.0558 15.2939 29.9316 15.2939C29.8961 15.2939 29.8607 15.2939 29.8163 15.2939C29.8074 15.2939 29.7808 15.2939 29.772 15.2939V15.3294C29.772 15.3294 29.7808 15.2939 29.772 15.2939V15.3028Z" fill="#DC7C50"/>
<path d="M29.6654 15.9234C29.8428 15.95 30.0113 15.9766 30.1887 15.9855L30.4724 16.0121C30.5523 16.0121 30.6321 16.0387 30.7119 16.0298C30.7474 16.0298 30.7385 15.9146 30.7119 15.9057C30.6409 15.8879 30.5523 15.8968 30.4813 15.8879L30.1887 15.8702C30.0113 15.8613 29.8428 15.8525 29.6654 15.8613C29.6477 15.8613 29.6477 15.9146 29.6654 15.9234Z" fill="#DC7C50"/>
<path d="M29.3992 16.4642C29.5766 16.4819 29.7451 16.5174 29.9136 16.5352C30.0112 16.544 30.1087 16.5529 30.2063 16.5706C30.2506 16.5706 30.2861 16.5706 30.3304 16.5795C30.357 16.5795 30.3925 16.5884 30.428 16.5795C30.4457 16.5795 30.4457 16.4908 30.428 16.4819C30.4014 16.4731 30.3659 16.4731 30.3304 16.4731H30.2151C30.1176 16.4553 30.02 16.4465 29.9136 16.4376C29.7451 16.4199 29.5677 16.411 29.3992 16.4199C29.3904 16.4199 29.3904 16.4642 29.3992 16.4642Z" fill="#DC7C50"/>
<path d="M29.7366 14.8416C29.7455 15.1609 29.7366 15.4802 29.6302 15.7906C29.577 15.9413 29.5149 16.0921 29.4351 16.234C29.3996 16.3049 29.3553 16.3759 29.3109 16.438C29.2577 16.5266 29.2134 16.6153 29.1602 16.6952V16.7129C29.1956 16.6952 29.2311 16.6774 29.2666 16.6597C29.2932 16.6419 29.3198 16.6065 29.3375 16.5799C29.3996 16.5089 29.4439 16.438 29.4972 16.3581C29.5947 16.2074 29.6657 16.0389 29.71 15.8615C29.8076 15.5334 29.8519 15.152 29.7632 14.815C29.7544 14.7707 29.7366 14.815 29.7366 14.8327V14.8416Z" fill="#DC7C50"/>
<path d="M36.7869 19.1161C36.8844 19.5241 37.0441 19.9143 37.186 20.3134C37.2658 20.5351 37.3367 20.748 37.4165 20.9697C37.4697 21.1293 37.523 21.2978 37.6028 21.4486C37.6205 21.4752 37.6294 21.4308 37.6294 21.4131C37.5496 21.0052 37.3811 20.6061 37.2392 20.2247C37.0973 19.8434 36.9731 19.4531 36.8223 19.0718C36.8046 19.0363 36.7957 19.0984 36.7957 19.1161H36.7869Z" fill="#DC7C50"/>
<path d="M37.062 18.7436C37.2128 19.1161 37.3724 19.4797 37.532 19.8344C37.6917 20.1803 37.8424 20.5262 38.0376 20.8632C38.0464 20.8809 38.0553 20.8454 38.0553 20.8366C37.9134 20.473 37.7449 20.1182 37.5853 19.7635C37.4256 19.4176 37.2571 19.0717 37.0709 18.7347C37.0709 18.7258 37.0709 18.7436 37.0709 18.7525L37.062 18.7436Z" fill="#DC7C50"/>
<path d="M37.3899 18.4865C37.5761 18.7792 37.7623 19.0807 37.922 19.3911C38.0018 19.5419 38.0816 19.6927 38.1526 19.8434C38.2235 19.9853 38.2767 20.1361 38.3565 20.2691C38.3654 20.2869 38.3743 20.2514 38.3743 20.2425C38.3033 19.9144 38.1348 19.5951 37.9752 19.3024C37.8067 19.0009 37.6293 18.6994 37.3987 18.4422C37.381 18.4245 37.381 18.4777 37.3899 18.4865Z" fill="#DC7C50"/>
<path d="M20.8143 19.258C21.1513 19.1959 21.4705 19.0629 21.7987 18.9476C22.1357 18.8323 22.4816 18.717 22.8186 18.5928C23.4926 18.3445 24.1666 18.0873 24.8317 17.8035C25.2397 17.635 25.6565 17.4754 26.029 17.2448C26.0379 17.2448 26.0379 17.1827 26.029 17.1827C25.6743 17.2803 25.3461 17.4399 25.0091 17.5818C24.6632 17.7237 24.3174 17.8656 23.9715 17.9987C23.3063 18.2558 22.6412 18.513 21.9761 18.7525C21.5947 18.8944 21.1868 19.0097 20.8143 19.187C20.8054 19.187 20.8054 19.2491 20.8143 19.2403V19.258Z" fill="#DC7C50"/>
<path d="M14.917 14.1585C14.6066 14.327 14.3228 14.5221 14.0656 14.7615C13.8261 14.9833 13.6133 15.2316 13.4271 15.5065C13.2497 15.7814 13.0989 16.0741 12.9836 16.3845C12.9304 16.5441 12.8772 16.7126 12.8417 16.8811C12.8063 17.0408 12.7708 17.2181 12.8151 17.3778C12.8151 17.3955 12.8417 17.4221 12.8595 17.4044C12.9304 17.2802 12.9304 17.1206 12.957 16.9876C12.9925 16.8279 13.0368 16.6594 13.0901 16.5087C13.1965 16.2071 13.3384 15.9233 13.5157 15.6484C13.8794 15.0986 14.376 14.6108 14.917 14.2294C14.9347 14.2206 14.9259 14.1496 14.9081 14.1585H14.917Z" fill="#607C78"/>
<path d="M10.0747 12.9614C9.9328 13.795 10.2432 14.6376 10.7576 15.285C11.201 15.8437 11.7065 16.3669 12.2032 16.8813C12.3273 17.0055 12.4515 17.1385 12.5756 17.2627C12.6555 17.3425 12.7353 17.44 12.8506 17.4489C12.886 17.4489 12.8683 17.3691 12.8683 17.3514C12.7619 17.1119 12.5579 16.9434 12.3805 16.7572C12.1411 16.5088 11.9016 16.2605 11.6622 16.0033C11.4316 15.755 11.201 15.5067 10.9793 15.2406C10.8108 15.0455 10.6423 14.8504 10.5181 14.6287C10.2343 14.1321 10.0392 13.5556 10.1102 12.9791C10.1102 12.9614 10.0924 12.9082 10.0836 12.9525L10.0747 12.9614Z" fill="#607C78"/>
<path d="M13.1877 12.0831C13.3385 12.2605 13.4981 12.429 13.6666 12.5886C13.8352 12.7483 14.0125 12.899 14.181 13.0587C14.3495 13.2094 14.518 13.3602 14.6865 13.511C14.7752 13.5908 14.8639 13.6706 14.9526 13.7504C15.0147 13.8036 15.1122 13.9367 15.2009 13.9278C15.2275 13.9278 15.2187 13.8568 15.2098 13.8391C15.1654 13.7416 15.0856 13.6883 15.0147 13.6174L14.7486 13.3779C14.5801 13.2272 14.4027 13.0675 14.2342 12.9168C14.0657 12.766 13.8972 12.6152 13.7287 12.4733C13.64 12.3935 13.5514 12.3226 13.4627 12.2428C13.374 12.1718 13.2853 12.1186 13.1966 12.0565V12.0831H13.1877Z" fill="#607C78"/>
<path d="M10.8287 61.8095C11.4761 61.9248 12.1412 61.9336 12.7975 61.9691C13.4538 62.0046 14.11 62.0401 14.7663 62.0755C15.4137 62.111 16.0611 62.1465 16.7174 62.1731C17.2939 62.1997 17.8615 62.244 18.4379 62.2174C18.7395 62.1997 19.041 62.1642 19.3336 62.0844C19.5997 62.0135 19.9012 61.9159 20.0875 61.7031C20.0963 61.6853 20.1141 61.5878 20.0875 61.5966C19.9722 61.6144 19.8746 61.6765 19.7593 61.7297C19.6352 61.7917 19.5022 61.8361 19.3691 61.8716C19.1119 61.9425 18.8547 61.9869 18.5887 62.0046C18.03 62.0489 17.4624 62.0046 16.8948 61.978C15.6088 61.9159 14.314 61.8627 13.0281 61.8095C12.6645 61.7917 12.3097 61.7829 11.9461 61.7651C11.5736 61.7474 11.21 61.7385 10.8375 61.7651C10.8198 61.7651 10.8198 61.8184 10.8375 61.8184L10.8287 61.8095Z" fill="#C2D1D5"/>
<path d="M20.9209 61.7917C21.9674 61.8538 23.0139 61.8626 24.0604 61.8804C24.5837 61.8892 25.0981 61.8981 25.6213 61.907C26.0647 61.907 26.5082 61.907 26.9427 61.8538C27.1822 61.8183 27.4216 61.7739 27.6611 61.6941C27.8739 61.6232 28.1222 61.5168 28.2553 61.3305C28.2553 61.3216 28.2641 61.2684 28.2553 61.2684C28.1577 61.2684 28.0868 61.3128 28.007 61.3483C27.8917 61.4015 27.7764 61.4369 27.6611 61.4724C27.466 61.5345 27.262 61.5877 27.058 61.6143C26.6235 61.6853 26.1889 61.6941 25.7543 61.6941C24.7344 61.6941 23.7145 61.6853 22.6947 61.6764C22.1093 61.6764 21.5151 61.6764 20.9298 61.7119C20.9121 61.7119 20.9121 61.7828 20.9298 61.7828L20.9209 61.7917Z" fill="#C2D1D5"/>
<path d="M14.509 59.9559C14.5977 59.9736 14.6952 59.9825 14.7928 59.9736C14.8814 59.9736 14.979 59.9381 15.0677 59.9027C15.1564 59.8672 15.2451 59.8228 15.316 59.7785C15.3604 59.7519 15.3958 59.7253 15.4313 59.6898C15.4756 59.6455 15.5023 59.6011 15.5289 59.5479C15.5289 59.539 15.5466 59.4592 15.52 59.4681C15.4845 59.4681 15.449 59.477 15.4136 59.4947C15.3781 59.5213 15.3426 59.5479 15.3071 59.5656C15.2273 59.6189 15.1475 59.6632 15.0588 59.6987C14.9701 59.7342 14.8814 59.7608 14.7928 59.7874C14.7041 59.814 14.6065 59.8406 14.509 59.8583C14.4824 59.8583 14.4824 59.9381 14.509 59.947V59.9559Z" fill="#C2D1D5"/>
<path d="M15.3073 60.4614C15.4847 60.488 15.662 60.4614 15.8305 60.4082C15.9104 60.3815 15.9902 60.3372 16.0611 60.2929C16.1498 60.2397 16.203 60.1598 16.2562 60.0711C16.2562 60.0711 16.2651 60.0002 16.2562 60.0091C16.2296 60.0179 16.1941 60.0268 16.1675 60.0445C16.1321 60.0623 16.0966 60.0889 16.0611 60.1155C15.9902 60.1687 15.9104 60.213 15.8305 60.2485C15.6709 60.3195 15.4935 60.3549 15.3162 60.3638C15.2807 60.3638 15.2807 60.4702 15.3162 60.4791L15.3073 60.4614Z" fill="#C2D1D5"/>
<path d="M23.6614 59.8229C23.7324 59.8229 23.8033 59.8229 23.8654 59.814C23.9363 59.8052 24.0073 59.7697 24.0694 59.7431C24.1314 59.7165 24.2024 59.6721 24.2467 59.6278C24.3088 59.5657 24.3532 59.4948 24.3886 59.4061C24.3886 59.3972 24.3886 59.344 24.3798 59.344C24.3532 59.344 24.3265 59.344 24.2999 59.3529C24.2733 59.3617 24.2467 59.3795 24.2201 59.3972C24.1935 59.4149 24.158 59.4415 24.1314 59.4593C24.1048 59.477 24.0694 59.4948 24.0428 59.5125C23.9807 59.548 23.9186 59.5834 23.8565 59.6189C23.7944 59.6544 23.7235 59.6899 23.6525 59.7165C23.6259 59.7253 23.6348 59.814 23.6525 59.814L23.6614 59.8229Z" fill="#C2D1D5"/>
<path d="M24.4685 60.293C24.5306 60.293 24.5927 60.2842 24.6547 60.2664C24.7168 60.2487 24.7789 60.2221 24.841 60.1955C24.8942 60.16 24.9474 60.1245 25.0006 60.0891C25.0272 60.0713 25.0538 60.0447 25.0716 60.027C25.107 59.9915 25.1159 59.9472 25.1248 59.9028C25.1248 59.8851 25.1248 59.8585 25.1159 59.8407C25.0804 59.8141 25.0538 59.8407 25.0272 59.8673C25.0095 59.8851 24.9829 59.9117 24.9651 59.9294C24.9208 59.9649 24.8676 60.0092 24.8144 60.0358C24.708 60.0979 24.5927 60.1511 24.4685 60.1866C24.433 60.1866 24.433 60.3019 24.4685 60.293Z" fill="#C2D1D5"/>
<path d="M21.7725 26.8053C20.8856 26.9561 19.174 27.2044 17.0455 27.3108C13.9149 27.4704 11.8663 26.7521 11.3164 26.5658C11.4228 26.3087 11.5026 26.0781 11.5381 25.8918C11.5825 25.6613 11.6002 25.3597 11.6091 25.0493C12.4693 25.209 14.9791 25.6346 17.5156 25.608C19.6529 25.5814 21.0187 25.3331 21.7193 25.1557C21.6838 25.475 21.6572 25.6967 21.6572 25.7943C21.6483 25.9894 21.6838 26.3264 21.7725 26.7964V26.8053Z" fill="white"/>
<path d="M10.8993 32.9777C11.6088 32.5786 12.1941 31.9667 12.673 31.3193C13.1697 30.6364 13.5687 29.8737 13.8259 29.0755C13.8969 28.8449 13.9678 28.6055 14.021 28.366C14.0476 28.2418 14.0654 28.1266 14.0831 28.0024C14.1009 27.8871 14.1009 27.7718 14.1009 27.6476C14.1009 27.5944 14.0565 27.4437 14.021 27.5678C14.0033 27.6565 13.9678 27.7363 13.9412 27.8162C13.9146 27.9226 13.8969 28.029 13.8703 28.1266C13.8259 28.3128 13.7727 28.499 13.7195 28.6764C13.5953 29.0578 13.4446 29.4391 13.2672 29.7939C12.9125 30.5211 12.4424 31.1862 11.8926 31.7804C11.5733 32.1263 11.2186 32.4544 10.8638 32.7737C10.8283 32.8092 10.8283 33.0043 10.8904 32.9688L10.8993 32.9777Z" fill="white"/>
<path d="M20.6728 27.7542C20.9034 28.4371 21.196 29.0934 21.5419 29.7231C21.7104 30.0246 21.8878 30.3261 22.074 30.6188C22.1716 30.7607 22.2602 30.9115 22.3667 31.0534C22.411 31.1154 22.4554 31.1864 22.5086 31.2485C22.5618 31.3105 22.6061 31.346 22.6771 31.3815C22.7569 31.4258 22.7303 31.1952 22.7214 31.1686C22.5973 30.8405 22.3667 30.5567 22.1716 30.264C21.9853 29.9802 21.8079 29.6876 21.6394 29.3949C21.3202 28.8185 21.0098 28.2331 20.7171 27.6478C20.6728 27.568 20.6639 27.7276 20.6728 27.7631V27.7542Z" fill="white"/>
<path d="M17.6575 28.304C17.5333 28.9958 17.4712 29.6964 17.4092 30.3882C17.3382 31.1686 17.2761 31.949 17.2052 32.7384C17.0722 34.3258 16.948 35.9044 16.8327 37.4919C16.7972 37.9088 16.7706 38.3256 16.7351 38.7424C16.6997 39.1415 16.6997 39.5406 16.7085 39.9485C16.7085 39.9751 16.7351 40.0195 16.744 39.9663C16.8061 39.647 16.8682 39.3189 16.9036 38.9907C16.9303 38.6271 16.9657 38.2546 16.9923 37.891C17.0544 37.1106 17.1165 36.3213 17.1786 35.5408C17.3027 33.9534 17.4269 32.3659 17.5511 30.7873C17.6131 29.9713 17.693 29.1554 17.7196 28.3395C17.7196 28.2952 17.6752 28.2331 17.6663 28.304H17.6575Z" fill="white"/>
<path d="M17.4799 30.8583C17.95 30.7785 18.3224 30.5302 18.5442 30.1045C18.8014 29.6167 18.8546 29.0314 18.9078 28.4993C18.9521 28.0647 18.9965 27.6124 18.9965 27.1778C18.9965 27.1601 18.9699 27.1158 18.9699 27.1601C18.8457 27.8252 18.8634 28.517 18.7481 29.1821C18.6683 29.6256 18.5353 30.0779 18.1806 30.3794C17.9766 30.5568 17.7283 30.6721 17.4799 30.7519C17.4533 30.7608 17.4622 30.8583 17.4888 30.8583H17.4799Z" fill="white"/>
<g opacity="0.5">
<path d="M42.5159 15.5065L65.7516 54.8034L91.0094 20.8455L42.6844 14.123L42.5159 15.5065Z" fill="#C2D1D5"/>
<path d="M71.33 53.7922C71.33 55.3797 70.0441 56.6745 68.4477 56.6745C66.8514 56.6745 65.5654 55.3886 65.5654 53.7922C65.5654 52.1959 66.8514 50.9099 68.4477 50.9099C70.0441 50.9099 71.33 52.1959 71.33 53.7922Z" fill="#C2D1D5"/>
<path d="M78.9661 47.806C78.9661 50.9367 76.4297 53.4819 73.2902 53.4819C70.1507 53.4819 67.6143 50.9455 67.6143 47.806C67.6143 44.6665 70.1507 42.1301 73.2902 42.1301C76.4297 42.1301 78.9661 44.6665 78.9661 47.806Z" fill="#C2D1D5"/>
<path d="M80.1543 43.0792C80.1543 44.8086 78.7531 46.2098 77.0237 46.2098C75.2943 46.2098 73.8931 44.8086 73.8931 43.0792C73.8931 41.3498 75.2943 39.9486 77.0237 39.9486C78.7531 39.9486 80.1543 41.3498 80.1543 43.0792Z" fill="#C2D1D5"/>
<path d="M77.2898 41.793C79.1707 41.793 80.6954 40.2683 80.6954 38.3875C80.6954 36.5066 79.1707 34.9819 77.2898 34.9819C75.409 34.9819 73.8843 36.5066 73.8843 38.3875C73.8843 40.2683 75.409 41.793 77.2898 41.793Z" fill="#C2D1D5"/>
<path d="M90.6815 34.1395C90.6815 37.6337 87.8525 40.4628 84.3582 40.4628C80.864 40.4628 78.0349 37.6337 78.0349 34.1395C78.0349 30.6452 80.864 27.8162 84.3582 27.8162C87.8525 27.8162 90.6815 30.6452 90.6815 34.1395Z" fill="#C2D1D5"/>
<path d="M89.147 27.4528C89.147 28.7742 88.0739 29.8473 86.7524 29.8473C85.431 29.8473 84.3579 28.7742 84.3579 27.4528C84.3579 26.1313 85.431 25.0582 86.7524 25.0582C88.0739 25.0582 89.147 26.1313 89.147 27.4528Z" fill="#C2D1D5"/>
<path d="M93.5727 24.1091C93.5727 25.9538 92.0739 27.4526 90.2292 27.4526C88.3845 27.4526 86.8857 25.9538 86.8857 24.1091C86.8857 22.2644 88.3845 20.7656 90.2292 20.7656C92.0739 20.7656 93.5727 22.2644 93.5727 24.1091Z" fill="#C2D1D5"/>
<path d="M85.0675 50.9099C85.9442 50.9099 86.6549 50.1992 86.6549 49.3225C86.6549 48.4457 85.9442 47.735 85.0675 47.735C84.1907 47.735 83.48 48.4457 83.48 49.3225C83.48 50.1992 84.1907 50.9099 85.0675 50.9099Z" fill="#C2D1D5"/>
<path d="M96.1536 39.9484C96.1536 41.1456 95.1869 42.1123 93.9896 42.1123C92.7924 42.1123 91.8257 41.1456 91.8257 39.9484C91.8257 38.7511 92.7924 37.7844 93.9896 37.7844C95.1869 37.7844 96.1536 38.7511 96.1536 39.9484Z" fill="#C2D1D5"/>
<path d="M86.3183 43.549C86.3183 43.8062 86.1054 44.0191 85.8482 44.0191C85.591 44.0191 85.3782 43.8062 85.3782 43.549C85.3782 43.2918 85.591 43.079 85.8482 43.079C86.1054 43.079 86.3183 43.2918 86.3183 43.549Z" fill="#C2D1D5"/>
<path d="M74.9838 58.0403C75.6695 58.0403 76.2254 57.4845 76.2254 56.7987C76.2254 56.113 75.6695 55.5571 74.9838 55.5571C74.2981 55.5571 73.7422 56.113 73.7422 56.7987C73.7422 57.4845 74.2981 58.0403 74.9838 58.0403Z" fill="#C2D1D5"/>
<path d="M83.7906 55.7346C83.7906 56.0273 83.5511 56.2667 83.2584 56.2667C82.9658 56.2667 82.7263 56.0273 82.7263 55.7346C82.7263 55.442 82.9658 55.2025 83.2584 55.2025C83.5511 55.2025 83.7906 55.442 83.7906 55.7346Z" fill="#C2D1D5"/>
<path d="M99.0798 35.3368C99.0798 35.6472 98.8315 35.8955 98.5211 35.8955C98.2107 35.8955 97.9624 35.6472 97.9624 35.3368C97.9624 35.0264 98.2107 34.7781 98.5211 34.7781C98.8315 34.7781 99.0798 35.0264 99.0798 35.3368Z" fill="#C2D1D5"/>
<path d="M95.3019 30.8139C96.306 30.8139 97.12 29.9999 97.12 28.9958C97.12 27.9917 96.306 27.1777 95.3019 27.1777C94.2979 27.1777 93.4839 27.9917 93.4839 28.9958C93.4839 29.9999 94.2979 30.8139 95.3019 30.8139Z" fill="#C2D1D5"/>
</g>
<g opacity="0.5">
<path d="M90.8677 26.016C91.3967 26.016 91.8255 25.5871 91.8255 25.0582C91.8255 24.5292 91.3967 24.1003 90.8677 24.1003C90.3387 24.1003 89.9099 24.5292 89.9099 25.0582C89.9099 25.5871 90.3387 26.016 90.8677 26.016Z" fill="white"/>
<path d="M88.0918 33.4656C88.0918 34.3347 87.3823 35.0442 86.5132 35.0442C85.6441 35.0442 84.9346 34.3347 84.9346 33.4656C84.9346 32.5965 85.6441 31.887 86.5132 31.887C87.3823 31.887 88.0918 32.5965 88.0918 33.4656Z" fill="white"/>
<path d="M85.0678 37.758C85.0678 38.166 84.7308 38.503 84.3228 38.503C83.9149 38.503 83.5779 38.166 83.5779 37.758C83.5779 37.3501 83.9149 37.0131 84.3228 37.0131C84.7308 37.0131 85.0678 37.3501 85.0678 37.758Z" fill="white"/>
<path d="M75.3477 48.2407C76.0873 48.2407 76.6869 47.6411 76.6869 46.9015C76.6869 46.1619 76.0873 45.5624 75.3477 45.5624C74.6081 45.5624 74.0085 46.1619 74.0085 46.9015C74.0085 47.6411 74.6081 48.2407 75.3477 48.2407Z" fill="white"/>
<path d="M74.0083 51.5397C74.3561 51.5397 74.638 51.2578 74.638 50.9101C74.638 50.5623 74.3561 50.2804 74.0083 50.2804C73.6606 50.2804 73.3787 50.5623 73.3787 50.9101C73.3787 51.2578 73.6606 51.5397 74.0083 51.5397Z" fill="white"/>
<path d="M68.7672 53.4821C68.7672 53.8989 68.4302 54.2359 68.0134 54.2359C67.5965 54.2359 67.2595 53.8989 67.2595 53.4821C67.2595 53.0653 67.5965 52.7283 68.0134 52.7283C68.4302 52.7283 68.7672 53.0653 68.7672 53.4821Z" fill="white"/>
<path d="M77.4852 38.5118C77.4852 38.9286 77.1482 39.2656 76.7314 39.2656C76.3145 39.2656 75.9775 38.9286 75.9775 38.5118C75.9775 38.0949 76.3145 37.7579 76.7314 37.7579C77.1482 37.7579 77.4852 38.0949 77.4852 38.5118Z" fill="white"/>
<path d="M86.7528 27.9848C87.0467 27.9848 87.2849 27.7465 87.2849 27.4526C87.2849 27.1588 87.0467 26.9205 86.7528 26.9205C86.4589 26.9205 86.2207 27.1588 86.2207 27.4526C86.2207 27.7465 86.4589 27.9848 86.7528 27.9848Z" fill="white"/>
</g>
<path d="M0.0265263 43.9482C2.6339 44.6134 5.42751 44.365 7.91072 43.3452C10.2343 42.3874 12.2209 40.7289 13.6132 38.6448C14.2961 37.6249 14.8371 36.5075 15.2096 35.3368C15.6353 33.9888 15.786 32.5875 15.9634 31.1952C16.1408 29.8028 16.3714 28.4016 16.9744 27.1156C17.4888 26.0248 18.2249 25.0492 19.1206 24.2511C20.0252 23.444 21.0806 22.8232 22.2424 22.4419C23.4042 22.0605 24.6635 21.8565 25.7278 21.2091C25.9938 21.0495 26.2155 20.8544 26.4195 20.6327C26.4638 20.5883 26.4638 20.5085 26.455 20.4464C26.455 20.4287 26.4284 20.3045 26.384 20.3489C25.914 20.7391 25.3819 21.0495 24.8143 21.2889C24.2378 21.5284 23.6259 21.6969 23.0228 21.8743C22.4464 22.0428 21.8699 22.2379 21.3201 22.4862C20.7791 22.7345 20.2558 23.0361 19.768 23.3908C18.8102 24.0914 17.9855 24.9783 17.3647 25.9804C16.664 27.1156 16.2738 28.375 16.0432 29.6786C15.7949 31.1065 15.7062 32.5698 15.4047 33.9888C15.1386 35.2215 14.6952 36.4188 14.0833 37.5185C12.8683 39.7002 11.0236 41.5182 8.80645 42.6711C6.41192 43.9128 3.65379 44.3384 0.993204 43.9837C0.673935 43.9394 0.354665 43.8861 0.0353949 43.8152C-7.95443e-05 43.8152 -7.95443e-05 43.9305 0.0353949 43.9394H0.0265263V43.9482Z" fill="#232323"/>
</svg>
