<svg width="24" height="25" viewBox="0 0 24 25" fill="none" xmlns="http://www.w3.org/2000/svg">
<path d="M19.9994 12.4522H3.99937C3.76937 12.4522 3.55937 12.3522 3.41937 12.1722C3.27937 12.0022 3.21937 11.7622 3.26937 11.5422L4.39937 6.14223C4.76937 4.39223 5.51937 2.78223 8.48937 2.78223H15.5194C18.4894 2.78223 19.2394 4.40223 19.6094 6.14223L20.7394 11.5522C20.7894 11.7722 20.7294 12.0022 20.5894 12.1822C20.4394 12.3522 20.2294 12.4522 19.9994 12.4522ZM4.91937 10.9522H19.0694L18.1294 6.45223C17.8494 5.14223 17.5194 4.28223 15.5094 4.28223H8.48937C6.47937 4.28223 6.14937 5.14223 5.86937 6.45223L4.91937 10.9522Z" fill="#1A1E51"/>
<path d="M19.9596 23.4521H18.0796C16.4596 23.4521 16.1496 22.5221 15.9496 21.9121L15.7496 21.3121C15.4896 20.5521 15.4596 20.4521 14.5596 20.4521H9.4396C8.5396 20.4521 8.4796 20.6221 8.2496 21.3121L8.0496 21.9121C7.8396 22.5321 7.5396 23.4521 5.9196 23.4521H4.0396C3.2496 23.4521 2.4896 23.1221 1.9596 22.5421C1.4396 21.9721 1.1896 21.2121 1.2596 20.4521L1.8196 14.3621C1.9696 12.7121 2.4096 10.9521 5.6196 10.9521H18.3796C21.5896 10.9521 22.0196 12.7121 22.1796 14.3621L22.7396 20.4521C22.8096 21.2121 22.5596 21.9721 22.0396 22.5421C21.5096 23.1221 20.7496 23.4521 19.9596 23.4521ZM9.4396 18.9521H14.5596C16.3796 18.9521 16.8096 19.7621 17.1696 20.8221L17.3796 21.4421C17.5496 21.9521 17.5496 21.9621 18.0896 21.9621H19.9696C20.3396 21.9621 20.6896 21.8121 20.9396 21.5421C21.1796 21.2821 21.2896 20.9521 21.2596 20.6021L20.6996 14.5121C20.5696 13.1621 20.4096 12.4621 18.3996 12.4621H5.6196C3.5996 12.4621 3.4396 13.1621 3.3196 14.5121L2.7596 20.6021C2.7296 20.9521 2.8396 21.2821 3.0796 21.5421C3.3196 21.8121 3.6796 21.9621 4.0496 21.9621H5.9296C6.4696 21.9621 6.4696 21.9521 6.6396 21.4521L6.8396 20.8421C7.0896 20.0421 7.4596 18.9521 9.4396 18.9521Z" fill="#1A1E51"/>
<path d="M4 9.45215H3C2.59 9.45215 2.25 9.11215 2.25 8.70215C2.25 8.29215 2.59 7.95215 3 7.95215H4C4.41 7.95215 4.75 8.29215 4.75 8.70215C4.75 9.11215 4.41 9.45215 4 9.45215Z" fill="#1A1E51"/>
<path d="M21 9.45215H20C19.59 9.45215 19.25 9.11215 19.25 8.70215C19.25 8.29215 19.59 7.95215 20 7.95215H21C21.41 7.95215 21.75 8.29215 21.75 8.70215C21.75 9.11215 21.41 9.45215 21 9.45215Z" fill="#1A1E51"/>
<path d="M12 6.45215C11.59 6.45215 11.25 6.11215 11.25 5.70215V3.70215C11.25 3.29215 11.59 2.95215 12 2.95215C12.41 2.95215 12.75 3.29215 12.75 3.70215V5.70215C12.75 6.11215 12.41 6.45215 12 6.45215Z" fill="#1A1E51"/>
<path d="M13.5 6.45215H10.5C10.09 6.45215 9.75 6.11215 9.75 5.70215C9.75 5.29215 10.09 4.95215 10.5 4.95215H13.5C13.91 4.95215 14.25 5.29215 14.25 5.70215C14.25 6.11215 13.91 6.45215 13.5 6.45215Z" fill="#1A1E51"/>
<path d="M9 16.4521H6C5.59 16.4521 5.25 16.1121 5.25 15.7021C5.25 15.2921 5.59 14.9521 6 14.9521H9C9.41 14.9521 9.75 15.2921 9.75 15.7021C9.75 16.1121 9.41 16.4521 9 16.4521Z" fill="#1A1E51"/>
<path d="M18 16.4521H15C14.59 16.4521 14.25 16.1121 14.25 15.7021C14.25 15.2921 14.59 14.9521 15 14.9521H18C18.41 14.9521 18.75 15.2921 18.75 15.7021C18.75 16.1121 18.41 16.4521 18 16.4521Z" fill="#1A1E51"/>
</svg>
