<svg width="24" height="25" viewBox="0 0 24 25" fill="none" xmlns="http://www.w3.org/2000/svg">
<path d="M11.9067 13.8379C7.69384 13.8379 4.227 17.0394 3.7956 21.1476C3.74449 21.6343 4.12695 22.0427 4.61492 22.081L7.35137 22.2945C10.3836 22.5315 13.4297 22.5315 16.462 22.2945L19.1984 22.081C19.6864 22.0427 20.0689 21.6343 20.0177 21.1476C19.5863 17.0394 16.1195 13.8379 11.9067 13.8379Z" stroke="#1A1E51" stroke-linecap="round"/>
<path d="M12 13.8379C14.2782 13.8379 16.125 11.9911 16.125 9.71289C16.125 7.43472 14.2782 5.58789 12 5.58789C9.72183 5.58789 7.875 7.43472 7.875 9.71289C7.875 11.9911 9.72183 13.8379 12 13.8379Z" stroke="#1A1E51"/>
<path d="M18.375 9.71289C18.375 6.08852 15.5208 3.15039 12 3.15039C8.47918 3.15039 5.625 6.08852 5.625 9.71289" stroke="#1A1E51"/>
<path d="M16.5 10.4537C16.5 9.87499 17.0192 9.42358 17.5901 9.5178L18.375 9.64731V10.4629C18.375 10.9807 17.9553 11.4004 17.4375 11.4004C16.9197 11.4004 16.5 10.9715 16.5 10.4537ZM7.5 10.3947C7.5 9.83261 7.00884 9.39686 6.45081 9.46384L5.625 9.56293V10.6504C5.625 11.1682 6.04474 11.5879 6.5625 11.5879C7.08026 11.5879 7.5 11.1682 7.5 10.6504V10.3947Z" stroke="#1A1E51"/>
<path d="M17.625 11.4004H13.125" stroke="#1A1E51" stroke-linecap="round"/>
<path d="M13.4062 10.8379H12.8438C12.6884 10.8379 12.5625 10.9638 12.5625 11.1191C12.5625 11.2745 12.6884 11.4004 12.8438 11.4004H13.4062C13.5616 11.4004 13.6875 11.2745 13.6875 11.1191C13.6875 10.9638 13.5616 10.8379 13.4062 10.8379Z" fill="#1A1E51" stroke="#1A1E51"/>
</svg>
