<svg width="24" height="25" viewBox="0 0 24 25" fill="none" xmlns="http://www.w3.org/2000/svg">
<path d="M20.6198 8.79961C19.5798 4.16961 15.5398 2.09961 11.9998 2.09961C11.9998 2.09961 11.9998 2.09961 11.9897 2.09961C8.45975 2.09961 4.42975 4.16961 3.37975 8.78961C2.19975 13.9496 5.35975 18.3196 8.21975 21.0796C9.27975 22.0996 10.6398 22.6096 11.9998 22.6096C13.3597 22.6096 14.7198 22.0996 15.7698 21.0796C18.6298 18.3196 21.7898 13.9596 20.6198 8.79961Z" fill="#1A1E51"/>
<path d="M14.75 10.3496H12.75V8.34961C12.75 7.93961 12.41 7.59961 12 7.59961C11.59 7.59961 11.25 7.93961 11.25 8.34961V10.3496H9.25C8.84 10.3496 8.5 10.6896 8.5 11.0996C8.5 11.5096 8.84 11.8496 9.25 11.8496H11.25V13.8496C11.25 14.2596 11.59 14.5996 12 14.5996C12.41 14.5996 12.75 14.2596 12.75 13.8496V11.8496H14.75C15.16 11.8496 15.5 11.5096 15.5 11.0996C15.5 10.6896 15.16 10.3496 14.75 10.3496Z" fill="white"/>
</svg>
