<svg width="24" height="25" viewBox="0 0 24 25" fill="none" xmlns="http://www.w3.org/2000/svg">
<path d="M15.2395 22.3701H15.1095C10.6695 22.3701 8.52953 20.6201 8.15953 16.7001C8.11953 16.2901 8.41953 15.9201 8.83953 15.8801C9.23953 15.8401 9.61953 16.1501 9.65953 16.5601C9.94953 19.7001 11.4295 20.8701 15.1195 20.8701H15.2495C19.3195 20.8701 20.7595 19.4301 20.7595 15.3601V8.84008C20.7595 4.77008 19.3195 3.33008 15.2495 3.33008H15.1195C11.4095 3.33008 9.92953 4.52008 9.65953 7.72008C9.60953 8.13008 9.25953 8.44008 8.83953 8.40008C8.41953 8.37008 8.11953 8.00008 8.14953 7.59008C8.48953 3.61008 10.6395 1.83008 15.1095 1.83008H15.2395C20.1495 1.83008 22.2495 3.93008 22.2495 8.84008V15.3601C22.2495 20.2701 20.1495 22.3701 15.2395 22.3701Z" fill="#FF0000"/>
<path d="M15.0001 12.8496H3.62012C3.21012 12.8496 2.87012 12.5096 2.87012 12.0996C2.87012 11.6896 3.21012 11.3496 3.62012 11.3496H15.0001C15.4101 11.3496 15.7501 11.6896 15.7501 12.0996C15.7501 12.5096 15.4101 12.8496 15.0001 12.8496Z" fill="#FF0000"/>
<path d="M5.85043 16.1995C5.66043 16.1995 5.47043 16.1295 5.32043 15.9795L1.97043 12.6295C1.68043 12.3395 1.68043 11.8595 1.97043 11.5695L5.32043 8.21945C5.61043 7.92945 6.09043 7.92945 6.38043 8.21945C6.67043 8.50945 6.67043 8.98945 6.38043 9.27945L3.56043 12.0995L6.38043 14.9195C6.67043 15.2095 6.67043 15.6895 6.38043 15.9795C6.24043 16.1295 6.04043 16.1995 5.85043 16.1995Z" fill="#FF0000"/>
</svg>
