<svg width="24" height="25" viewBox="0 0 24 25" fill="none" xmlns="http://www.w3.org/2000/svg">
<path d="M19 9.90039C19 11.3504 18.57 12.6804 17.83 13.7904C16.75 15.3904 15.04 16.5204 13.05 16.8104C12.71 16.8704 12.36 16.9004 12 16.9004C11.64 16.9004 11.29 16.8704 10.95 16.8104C8.96 16.5204 7.25 15.3904 6.17 13.7904C5.43 12.6804 5 11.3504 5 9.90039C5 6.03039 8.13 2.90039 12 2.90039C15.87 2.90039 19 6.03039 19 9.90039Z" stroke="#1A1E51" stroke-width="1.5" stroke-linecap="round" stroke-linejoin="round"/>
<path d="M21.2501 19.3708L19.6001 19.7608C19.2301 19.8508 18.9401 20.1308 18.8601 20.5008L18.5101 21.9708C18.3201 22.7708 17.3001 23.0108 16.7701 22.3808L12.0001 16.9008L7.23008 22.3908C6.70008 23.0208 5.68008 22.7808 5.49008 21.9808L5.14008 20.5108C5.05008 20.1408 4.76008 19.8508 4.40008 19.7708L2.75008 19.3808C1.99008 19.2008 1.72008 18.2508 2.27008 17.7008L6.17008 13.8008C7.25008 15.4008 8.96008 16.5308 10.9501 16.8208C11.2901 16.8808 11.6401 16.9108 12.0001 16.9108C12.3601 16.9108 12.7101 16.8808 13.0501 16.8208C15.0401 16.5308 16.7501 15.4008 17.8301 13.8008L21.7301 17.7008C22.2801 18.2408 22.0101 19.1908 21.2501 19.3708Z" stroke="#1A1E51" stroke-width="1.5" stroke-linecap="round" stroke-linejoin="round"/>
<path d="M12.58 6.88039L13.17 8.06038C13.25 8.22038 13.46 8.38039 13.65 8.41039L14.72 8.59038C15.4 8.70038 15.56 9.20039 15.07 9.69039L14.24 10.5204C14.1 10.6604 14.02 10.9304 14.07 11.1304L14.31 12.1604C14.5 12.9704 14.07 13.2904 13.35 12.8604L12.35 12.2704C12.17 12.1604 11.87 12.1604 11.69 12.2704L10.69 12.8604C9.96997 13.2804 9.53997 12.9704 9.72997 12.1604L9.96997 11.1304C10.01 10.9404 9.93997 10.6604 9.79997 10.5204L8.96997 9.69039C8.47997 9.20039 8.63997 8.71038 9.31997 8.59038L10.39 8.41039C10.57 8.38039 10.78 8.22038 10.86 8.06038L11.45 6.88039C11.74 6.24039 12.26 6.24039 12.58 6.88039Z" stroke="#1A1E51" stroke-width="1.5" stroke-linecap="round" stroke-linejoin="round"/>
</svg>
