<svg width="24" height="25" viewBox="0 0 24 25" fill="none" xmlns="http://www.w3.org/2000/svg">
<path d="M18.0003 8.2086C17.9703 8.2086 17.9503 8.2086 17.9203 8.2086H17.8703C15.9803 8.1486 14.5703 6.6886 14.5703 4.8886C14.5703 3.0486 16.0703 1.55859 17.9003 1.55859C19.7303 1.55859 21.2303 3.0586 21.2303 4.8886C21.2203 6.6986 19.8103 8.1586 18.0103 8.2186C18.0103 8.2086 18.0103 8.2086 18.0003 8.2086ZM17.9003 3.0486C16.8903 3.0486 16.0703 3.8686 16.0703 4.8786C16.0703 5.8686 16.8403 6.6686 17.8303 6.7086C17.8403 6.6986 17.9203 6.6986 18.0103 6.7086C18.9803 6.6586 19.7303 5.8586 19.7403 4.8786C19.7403 3.8686 18.9203 3.0486 17.9003 3.0486Z" fill="#1A1E51"/>
<path d="M18.0105 15.5785C17.6205 15.5785 17.2305 15.5485 16.8405 15.4785C16.4305 15.4085 16.1605 15.0185 16.2305 14.6085C16.3005 14.1985 16.6905 13.9285 17.1005 13.9985C18.3305 14.2085 19.6305 13.9785 20.5005 13.3985C20.9705 13.0885 21.2205 12.6985 21.2205 12.3085C21.2205 11.9185 20.9605 11.5385 20.5005 11.2285C19.6305 10.6485 18.3105 10.4185 17.0705 10.6385C16.6605 10.7185 16.2705 10.4385 16.2005 10.0285C16.1305 9.61849 16.4005 9.22849 16.8105 9.15849C18.4405 8.86849 20.1305 9.17848 21.3305 9.97848C22.2105 10.5685 22.7205 11.4085 22.7205 12.3085C22.7205 13.1985 22.2205 14.0485 21.3305 14.6485C20.4205 15.2485 19.2405 15.5785 18.0105 15.5785Z" fill="#1A1E51"/>
<path d="M5.97047 8.20883C5.96047 8.20883 5.95047 8.20883 5.95047 8.20883C4.15047 8.14883 2.74047 6.68882 2.73047 4.88882C2.73047 3.04882 4.23047 1.54883 6.06047 1.54883C7.89047 1.54883 9.39047 3.04883 9.39047 4.87883C9.39047 6.68883 7.98047 8.14883 6.18047 8.20883L5.97047 7.45883L6.04047 8.20883C6.02047 8.20883 5.99047 8.20883 5.97047 8.20883ZM6.07047 6.70883C6.13047 6.70883 6.18047 6.70883 6.24047 6.71883C7.13047 6.67883 7.91047 5.87882 7.91047 4.88882C7.91047 3.87882 7.09047 3.05882 6.08047 3.05882C5.07047 3.05882 4.25047 3.87882 4.25047 4.88882C4.25047 5.86882 5.01047 6.65883 5.98047 6.71883C5.99047 6.70883 6.03047 6.70883 6.07047 6.70883Z" fill="#1A1E51"/>
<path d="M5.96 15.5785C4.73 15.5785 3.55 15.2485 2.64 14.6485C1.76 14.0585 1.25 13.2085 1.25 12.3085C1.25 11.4185 1.76 10.5685 2.64 9.97848C3.84 9.17848 5.53 8.86849 7.16 9.15849C7.57 9.22849 7.84 9.61849 7.77 10.0285C7.7 10.4385 7.31 10.7185 6.9 10.6385C5.66 10.4185 4.35 10.6485 3.47 11.2285C3 11.5385 2.75 11.9185 2.75 12.3085C2.75 12.6985 3.01 13.0885 3.47 13.3985C4.34 13.9785 5.64 14.2085 6.87 13.9985C7.28 13.9285 7.67 14.2085 7.74 14.6085C7.81 15.0185 7.54 15.4085 7.13 15.4785C6.74 15.5485 6.35 15.5785 5.96 15.5785Z" fill="#1A1E51"/>
<path d="M12.0003 15.6793C11.9703 15.6793 11.9503 15.6793 11.9203 15.6793H11.8703C9.98031 15.6193 8.57031 14.1593 8.57031 12.3593C8.57031 10.5193 10.0703 9.0293 11.9003 9.0293C13.7303 9.0293 15.2303 10.5293 15.2303 12.3593C15.2203 14.1693 13.8103 15.6293 12.0103 15.6893C12.0103 15.6793 12.0103 15.6793 12.0003 15.6793ZM11.9003 10.5193C10.8903 10.5193 10.0703 11.3393 10.0703 12.3493C10.0703 13.3393 10.8403 14.1393 11.8303 14.1793C11.8403 14.1693 11.9203 14.1693 12.0103 14.1793C12.9803 14.1293 13.7303 13.3293 13.7403 12.3493C13.7403 11.3493 12.9203 10.5193 11.9003 10.5193Z" fill="#1A1E51"/>
<path d="M11.9993 23.0586C10.7993 23.0586 9.5993 22.7486 8.6693 22.1186C7.7893 21.5286 7.2793 20.6886 7.2793 19.7886C7.2793 18.8986 7.7793 18.0386 8.6693 17.4486C10.5393 16.2086 13.4693 16.2086 15.3293 17.4486C16.2093 18.0386 16.7193 18.8786 16.7193 19.7786C16.7193 20.6686 16.2193 21.5286 15.3293 22.1186C14.3993 22.7386 13.1993 23.0586 11.9993 23.0586ZM9.4993 18.7086C9.0293 19.0186 8.7793 19.4086 8.7793 19.7986C8.7793 20.1886 9.0393 20.5686 9.4993 20.8786C10.8493 21.7886 13.1393 21.7886 14.4893 20.8786C14.9593 20.5686 15.2093 20.1786 15.2093 19.7886C15.2093 19.3986 14.9493 19.0186 14.4893 18.7086C13.1493 17.7986 10.8593 17.8086 9.4993 18.7086Z" fill="#1A1E51"/>
</svg>
