<svg width="24" height="25" viewBox="0 0 24 25" fill="none" xmlns="http://www.w3.org/2000/svg">
<path d="M11.9998 23.0486C11.7598 23.0486 11.5199 23.0187 11.2899 22.9487C6.09986 21.5187 2.33984 16.6686 2.33984 11.4086V7.01861C2.33984 5.89861 3.14985 4.68866 4.18985 4.25866L9.75986 1.97863C11.2099 1.38863 12.7998 1.38863 14.2398 1.97863L19.8098 4.25866C20.8498 4.68866 21.6599 5.89861 21.6599 7.01861V11.4086C21.6599 16.6586 17.8898 21.5087 12.7098 22.9487C12.4798 23.0187 12.2398 23.0486 11.9998 23.0486ZM11.9998 3.04864C11.4298 3.04864 10.8698 3.15866 10.3298 3.37866L4.75986 5.65863C4.27986 5.85863 3.83984 6.50862 3.83984 7.02862V11.4186C3.83984 16.0086 7.13985 20.2487 11.6898 21.5087C11.8898 21.5687 12.1098 21.5687 12.3098 21.5087C16.8598 20.2487 20.1599 16.0086 20.1599 11.4186V7.02862C20.1599 6.50862 19.7198 5.85863 19.2398 5.65863L13.6699 3.37866C13.1299 3.15866 12.5698 3.04864 11.9998 3.04864Z" fill="#1A1E51"/>
<path d="M12 13.5488C10.48 13.5488 9.25 12.3188 9.25 10.7988C9.25 9.27883 10.48 8.04883 12 8.04883C13.52 8.04883 14.75 9.27883 14.75 10.7988C14.75 12.3188 13.52 13.5488 12 13.5488ZM12 9.54883C11.31 9.54883 10.75 10.1088 10.75 10.7988C10.75 11.4888 11.31 12.0488 12 12.0488C12.69 12.0488 13.25 11.4888 13.25 10.7988C13.25 10.1088 12.69 9.54883 12 9.54883Z" fill="#1A1E51"/>
<path d="M12 16.5488C11.59 16.5488 11.25 16.2088 11.25 15.7988V12.7988C11.25 12.3888 11.59 12.0488 12 12.0488C12.41 12.0488 12.75 12.3888 12.75 12.7988V15.7988C12.75 16.2088 12.41 16.5488 12 16.5488Z" fill="#1A1E51"/>
</svg>
