<svg width="20" height="20" viewBox="0 0 20 20" fill="none" xmlns="http://www.w3.org/2000/svg">
<path d="M19.3357 12.2117C18.7597 11.6597 18.4477 10.8917 18.4477 10.0997C18.4477 9.30768 18.7597 8.56368 19.3357 7.98768C19.4317 7.89168 19.5277 7.81968 19.6477 7.72368C19.8157 7.60368 19.8637 7.38768 19.8157 7.19568C19.6237 6.49968 19.3357 5.82768 18.9997 5.20368C18.9037 5.03568 18.7117 4.93968 18.5197 4.96368C18.3517 4.98768 18.2317 4.98768 18.1117 4.98768C16.4557 4.98768 15.1117 3.64368 15.1117 2.01168C15.1117 1.89168 15.1117 1.74768 15.1357 1.60368C15.1597 1.41168 15.0637 1.21968 14.8957 1.12368C14.2717 0.787681 13.5997 0.499681 12.9037 0.307681C12.7117 0.259681 12.4957 0.331681 12.3757 0.475681C12.2797 0.595681 12.1837 0.715681 12.1117 0.787681C11.5357 1.33968 10.7917 1.65168 9.99966 1.65168C9.20766 1.65168 8.43966 1.33968 7.88766 0.787681C7.79166 0.691681 7.71966 0.595681 7.62366 0.475681C7.50366 0.307681 7.28766 0.259681 7.09566 0.307681C6.39966 0.523681 5.72766 0.787681 5.10366 1.12368C4.93566 1.21968 4.83966 1.41168 4.86366 1.60368C4.88766 1.77168 4.88766 1.89168 4.88766 2.01168C4.88766 3.66768 3.54366 4.98768 1.88766 4.98768C1.76766 4.98768 1.62366 4.98768 1.47966 4.96368C1.28766 4.93968 1.09566 5.03568 0.999657 5.20368C0.663657 5.82768 0.375657 6.49968 0.183657 7.19568C0.135657 7.38768 0.183657 7.60368 0.351657 7.72368C0.495657 7.81968 0.591657 7.91568 0.663657 7.98768C1.83966 9.13968 1.83966 11.0357 0.663657 12.2117C0.567657 12.3077 0.471657 12.3797 0.351657 12.4757C0.183657 12.5957 0.135657 12.8117 0.183657 13.0037C0.399657 13.6997 0.663657 14.3717 0.999657 14.9957C1.09566 15.1637 1.28766 15.2597 1.47966 15.2357C1.64766 15.2117 1.76766 15.2117 1.88766 15.2117C3.54366 15.2117 4.88766 16.5557 4.88766 18.1877C4.88766 18.3077 4.88766 18.4517 4.86366 18.5957C4.83966 18.7877 4.93566 18.9797 5.10366 19.0757C5.72766 19.4117 6.39966 19.6997 7.09566 19.8917C7.28766 19.9397 7.50366 19.8917 7.62366 19.7237C7.71966 19.6037 7.81566 19.4837 7.88766 19.4117C8.46366 18.8597 9.20766 18.5477 9.99966 18.5477C10.7917 18.5477 11.5597 18.8597 12.1117 19.4117C12.2077 19.5077 12.2797 19.6037 12.3757 19.7237C12.4717 19.8437 12.6157 19.9157 12.7597 19.9157C12.8077 19.9157 12.8557 19.9157 12.9037 19.8917C13.5997 19.6757 14.2717 19.4117 14.8957 19.0757C15.0637 18.9797 15.1597 18.7877 15.1357 18.5957C15.1117 18.4277 15.1117 18.3077 15.1117 18.1877C15.1117 16.5317 16.4557 15.2117 18.1117 15.2117C18.2317 15.2117 18.3757 15.2117 18.5197 15.2357C18.7117 15.2597 18.9037 15.1637 18.9997 14.9957C19.3357 14.3717 19.6237 13.6997 19.8157 13.0037C19.8637 12.8117 19.8157 12.5957 19.6477 12.4757C19.5277 12.3797 19.4077 12.3077 19.3357 12.2117ZM18.3037 14.2517H18.0877C15.9037 14.2517 14.1277 16.0277 14.1277 18.1877V18.4037C13.7437 18.5957 13.3357 18.7637 12.9037 18.9077L12.7597 18.7637C12.0157 18.0197 11.0317 17.6117 9.97566 17.6117C8.91966 17.6117 7.93566 18.0197 7.19166 18.7637L7.04766 18.9077C6.63966 18.7637 6.23166 18.5957 5.82366 18.4037V18.1877C5.82366 16.0037 4.04766 14.2517 1.86366 14.2517H1.64766C1.45566 13.8677 1.28766 13.4597 1.14366 13.0277L1.28766 12.8837C2.82366 11.3477 2.82366 8.85168 1.28766 7.29168L1.14366 7.14768C1.28766 6.73968 1.45566 6.33168 1.64766 5.92368H1.86366C4.04766 5.92368 5.82366 4.14768 5.82366 1.98768V1.77168C6.20766 1.57968 6.61566 1.41168 7.04766 1.26768L7.19166 1.41168C7.93566 2.15568 8.91966 2.56368 9.97566 2.56368C11.0317 2.56368 12.0157 2.15568 12.7597 1.41168L12.9037 1.26768C13.3117 1.41168 13.7197 1.57968 14.1277 1.77168V1.98768C14.1277 4.17168 15.9037 5.92368 18.0877 5.92368H18.3037C18.4957 6.30768 18.6637 6.71568 18.8077 7.14768L18.6637 7.29168C17.9197 8.03568 17.5117 9.01968 17.5117 10.0757C17.5117 11.1317 17.9197 12.1157 18.6637 12.8597L18.8077 13.0037C18.6637 13.4597 18.4957 13.8677 18.3037 14.2517ZM9.99966 4.38768C6.85566 4.38768 4.28766 6.95568 4.28766 10.0997C4.28766 13.2437 6.85566 15.8117 9.99966 15.8117C13.1437 15.8117 15.7117 13.2437 15.7117 10.0997C15.7117 6.95568 13.1437 4.38768 9.99966 4.38768ZM9.99966 14.8517C7.38366 14.8517 5.24766 12.7157 5.24766 10.0997C5.24766 7.48368 7.38366 5.34768 9.99966 5.34768C12.6157 5.34768 14.7517 7.48368 14.7517 10.0997C14.7517 12.7157 12.6157 14.8517 9.99966 14.8517Z" fill="#1A1E51"/>
</svg>
