<svg width="24" height="25" viewBox="0 0 24 25" fill="none" xmlns="http://www.w3.org/2000/svg">
<path d="M8 6.04785C7.59 6.04785 7.25 5.70785 7.25 5.29785V2.29785C7.25 1.88785 7.59 1.54785 8 1.54785C8.41 1.54785 8.75 1.88785 8.75 2.29785V5.29785C8.75 5.70785 8.41 6.04785 8 6.04785Z" fill="#1A1E51"/>
<path d="M16 6.04785C15.59 6.04785 15.25 5.70785 15.25 5.29785V2.29785C15.25 1.88785 15.59 1.54785 16 1.54785C16.41 1.54785 16.75 1.88785 16.75 2.29785V5.29785C16.75 5.70785 16.41 6.04785 16 6.04785Z" fill="#1A1E51"/>
<path d="M15 12.0479H7C6.59 12.0479 6.25 11.7079 6.25 11.2979C6.25 10.8879 6.59 10.5479 7 10.5479H15C15.41 10.5479 15.75 10.8879 15.75 11.2979C15.75 11.7079 15.41 12.0479 15 12.0479Z" fill="#1A1E51"/>
<path d="M12 16.0479H7C6.59 16.0479 6.25 15.7079 6.25 15.2979C6.25 14.8879 6.59 14.5479 7 14.5479H12C12.41 14.5479 12.75 14.8879 12.75 15.2979C12.75 15.7079 12.41 16.0479 12 16.0479Z" fill="#1A1E51"/>
<path d="M15 23.0479H9C3.38 23.0479 2.25 20.3979 2.25 16.1179V9.94785C2.25 5.20785 3.85 3.27785 7.96 3.04785H16C20.15 3.27785 21.75 5.20785 21.75 9.94785V16.2979C21.75 16.7079 21.41 17.0479 21 17.0479C20.59 17.0479 20.25 16.7079 20.25 16.2979V9.94785C20.25 5.58785 18.8 4.70785 15.96 4.54785H8C5.2 4.70785 3.75 5.58785 3.75 9.94785V16.1179C3.75 19.9479 4.48 21.5479 9 21.5479H15C15.41 21.5479 15.75 21.8879 15.75 22.2979C15.75 22.7079 15.41 23.0479 15 23.0479Z" fill="#1A1E51"/>
<path d="M15 23.0479C14.9 23.0479 14.81 23.0279 14.71 22.9879C14.43 22.8679 14.25 22.5979 14.25 22.2979V19.2979C14.25 16.8779 15.58 15.5479 18 15.5479H21C21.3 15.5479 21.58 15.7279 21.69 16.0079C21.81 16.2879 21.74 16.6079 21.53 16.8279L15.53 22.8279C15.39 22.9679 15.2 23.0479 15 23.0479ZM18 17.0479C16.42 17.0479 15.75 17.7179 15.75 19.2979V20.4879L19.19 17.0479H18Z" fill="#1A1E51"/>
</svg>
