<svg width="27" height="27" viewBox="0 0 27 27" fill="none" xmlns="http://www.w3.org/2000/svg">
<path d="M8.87554 6.43367C8.42694 6.43367 8.05493 6.06166 8.05493 5.61306V2.33062C8.05493 1.88202 8.42694 1.51001 8.87554 1.51001C9.32414 1.51001 9.69615 1.88202 9.69615 2.33062V5.61306C9.69615 6.06166 9.32414 6.43367 8.87554 6.43367Z" fill="black"/>
<path d="M17.6287 6.43367C17.1801 6.43367 16.8081 6.06166 16.8081 5.61306V2.33062C16.8081 1.88202 17.1801 1.51001 17.6287 1.51001C18.0773 1.51001 18.4493 1.88202 18.4493 2.33062V5.61306C18.4493 6.06166 18.0773 6.43367 17.6287 6.43367Z" fill="black"/>
<path d="M9.42252 16.0077C9.28028 16.0077 9.13804 15.9749 9.00674 15.9201C8.8645 15.8654 8.75509 15.7888 8.64567 15.6904C8.44873 15.4825 8.32837 15.2089 8.32837 14.9135C8.32837 14.7713 8.3612 14.629 8.4159 14.4977C8.47061 14.3664 8.5472 14.2461 8.64567 14.1367C8.75509 14.0382 8.8645 13.9616 9.00674 13.9069C9.40063 13.7428 9.893 13.8303 10.1994 14.1367C10.3963 14.3446 10.5167 14.629 10.5167 14.9135C10.5167 14.9792 10.5057 15.0558 10.4948 15.1324C10.4838 15.198 10.462 15.2636 10.4291 15.3293C10.4072 15.3949 10.3744 15.4606 10.3307 15.5262C10.2978 15.5809 10.2431 15.6356 10.1994 15.6904C9.99147 15.8873 9.707 16.0077 9.42252 16.0077Z" fill="black"/>
<path d="M13.2521 16.0076C13.1099 16.0076 12.9676 15.9748 12.8363 15.9201C12.6941 15.8654 12.5847 15.7888 12.4753 15.6903C12.2783 15.4824 12.158 15.2089 12.158 14.9135C12.158 14.7713 12.1908 14.629 12.2455 14.4977C12.3002 14.3664 12.3768 14.2461 12.4753 14.1367C12.5847 14.0382 12.6941 13.9616 12.8363 13.9069C13.2302 13.7318 13.7226 13.8303 14.029 14.1367C14.2259 14.3445 14.3463 14.629 14.3463 14.9135C14.3463 14.9791 14.3353 15.0557 14.3244 15.1323C14.3134 15.198 14.2915 15.2636 14.2587 15.3293C14.2368 15.3949 14.204 15.4606 14.1603 15.5262C14.1274 15.5809 14.0727 15.6356 14.029 15.6903C13.8211 15.8873 13.5366 16.0076 13.2521 16.0076Z" fill="black"/>
<path d="M17.0817 16.0076C16.9395 16.0076 16.7972 15.9748 16.6659 15.9201C16.5237 15.8654 16.4143 15.7888 16.3049 15.6903C16.2611 15.6356 16.2173 15.5809 16.1736 15.5262C16.1298 15.4606 16.097 15.3949 16.0751 15.3293C16.0423 15.2636 16.0204 15.198 16.0094 15.1323C15.9985 15.0557 15.9875 14.9791 15.9875 14.9135C15.9875 14.629 16.1079 14.3445 16.3049 14.1367C16.4143 14.0382 16.5237 13.9616 16.6659 13.9069C17.0708 13.7318 17.5522 13.8303 17.8585 14.1367C18.0555 14.3445 18.1758 14.629 18.1758 14.9135C18.1758 14.9791 18.1649 15.0557 18.154 15.1323C18.143 15.198 18.1211 15.2636 18.0883 15.3293C18.0664 15.3949 18.0336 15.4606 17.9898 15.5262C17.957 15.5809 17.9023 15.6356 17.8585 15.6903C17.6507 15.8873 17.3662 16.0076 17.0817 16.0076Z" fill="black"/>
<path d="M9.42252 19.837C9.28028 19.837 9.13804 19.8042 9.00674 19.7494C8.87544 19.6947 8.75509 19.6181 8.64567 19.5197C8.44873 19.3118 8.32837 19.0273 8.32837 18.7428C8.32837 18.6006 8.3612 18.4583 8.4159 18.327C8.47061 18.1848 8.5472 18.0645 8.64567 17.966C9.05051 17.5611 9.79453 17.5611 10.1994 17.966C10.3963 18.1739 10.5167 18.4583 10.5167 18.7428C10.5167 19.0273 10.3963 19.3118 10.1994 19.5197C9.99147 19.7166 9.707 19.837 9.42252 19.837Z" fill="black"/>
<path d="M13.2521 19.837C12.9676 19.837 12.6832 19.7166 12.4753 19.5197C12.2783 19.3118 12.158 19.0273 12.158 18.7428C12.158 18.6006 12.1908 18.4583 12.2455 18.327C12.3002 18.1848 12.3768 18.0645 12.4753 17.966C12.8801 17.5611 13.6241 17.5611 14.029 17.966C14.1274 18.0645 14.204 18.1848 14.2587 18.327C14.3134 18.4583 14.3463 18.6006 14.3463 18.7428C14.3463 19.0273 14.2259 19.3118 14.029 19.5197C13.8211 19.7166 13.5366 19.837 13.2521 19.837Z" fill="black"/>
<path d="M17.0817 19.8372C16.7972 19.8372 16.5127 19.7169 16.3049 19.5199C16.2064 19.4214 16.1298 19.3011 16.0751 19.1589C16.0204 19.0276 15.9875 18.8853 15.9875 18.7431C15.9875 18.6008 16.0204 18.4586 16.0751 18.3273C16.1298 18.185 16.2064 18.0647 16.3049 17.9662C16.5565 17.7146 16.9395 17.5942 17.2896 17.6708C17.3662 17.6817 17.4318 17.7036 17.4975 17.7364C17.5631 17.7583 17.6288 17.7912 17.6944 17.8349C17.7491 17.8678 17.8038 17.9225 17.8585 17.9662C18.0555 18.1741 18.1758 18.4586 18.1758 18.7431C18.1758 19.0275 18.0555 19.312 17.8585 19.5199C17.6507 19.7169 17.3662 19.8372 17.0817 19.8372Z" fill="black"/>
<path d="M22.5522 10.9088H3.95171C3.50311 10.9088 3.1311 10.5368 3.1311 10.0882C3.1311 9.63959 3.50311 9.26758 3.95171 9.26758H22.5522C23.0008 9.26758 23.3728 9.63959 23.3728 10.0882C23.3728 10.5368 23.0008 10.9088 22.5522 10.9088Z" fill="black"/>
<path d="M17.6288 25.0341H8.87558C4.88194 25.0341 2.58423 22.7364 2.58423 18.7427V9.44247C2.58423 5.44883 4.88194 3.15112 8.87558 3.15112H17.6288C21.6224 3.15112 23.9201 5.44883 23.9201 9.44247V18.7427C23.9201 22.7364 21.6224 25.0341 17.6288 25.0341ZM8.87558 4.79234C5.74632 4.79234 4.22545 6.31321 4.22545 9.44247V18.7427C4.22545 21.872 5.74632 23.3929 8.87558 23.3929H17.6288C20.758 23.3929 22.2789 21.872 22.2789 18.7427V9.44247C22.2789 6.31321 20.758 4.79234 17.6288 4.79234H8.87558Z" fill="black"/>
</svg>
