<svg width="23" height="23" viewBox="0 0 23 23" fill="none" xmlns="http://www.w3.org/2000/svg">
<path d="M20.3009 5.85115L13.9986 1.44174C12.2808 0.238176 9.64388 0.303825 7.99172 1.58398L2.51004 5.86209C1.41589 6.71553 0.551514 8.46617 0.551514 9.84479V17.3944C0.551514 20.1845 2.8164 22.4603 5.60648 22.4603H17.4014C20.1915 22.4603 22.4563 20.1954 22.4563 17.4053V9.98703C22.4563 8.50993 21.5044 6.69365 20.3009 5.85115ZM12.3245 18.0837C12.3245 18.5323 11.9525 18.9043 11.5039 18.9043C11.0553 18.9043 10.6833 18.5323 10.6833 18.0837V14.8013C10.6833 14.3527 11.0553 13.9807 11.5039 13.9807C11.9525 13.9807 12.3245 14.3527 12.3245 14.8013V18.0837Z" fill="white"/>
</svg>
