<svg width="27" height="27" viewBox="0 0 27 27" fill="none" xmlns="http://www.w3.org/2000/svg">
<path d="M22.8263 23.4242C22.6064 23.4242 22.3975 23.3363 22.2436 23.1824L15.2291 16.1679C14.9103 15.849 14.9103 15.3213 15.2291 15.0025L23.7279 6.50374C23.9368 6.29484 24.2556 6.21788 24.5414 6.29484C24.8273 6.38279 25.0472 6.61368 25.1131 6.89954C25.322 7.83407 25.432 8.87854 25.432 10.0879V16.6846C25.432 19.7301 24.7943 21.7861 23.409 23.1824C23.2551 23.3363 23.0242 23.3693 22.8263 23.4242ZM16.9772 15.5852L22.7603 21.3683C23.453 20.3018 23.7828 18.7846 23.7828 16.6846V10.0879C23.7828 9.63716 23.7718 9.21937 23.7388 8.82357L16.9772 15.5852Z" fill="white"/>
<path d="M7.31316 24.9086C7.24719 24.9086 7.19224 24.8977 7.12627 24.8867C3.4871 24.0511 1.79395 21.4454 1.79395 16.6848V10.0881C1.79395 4.1181 4.34466 1.56738 10.3147 1.56738H16.9113C21.672 1.56738 24.2776 3.26054 25.1132 6.89971C25.1792 7.17457 25.0912 7.47142 24.8933 7.66932L7.89587 24.6668C7.74194 24.8207 7.53305 24.9086 7.31316 24.9086ZM10.3147 3.21655C5.24621 3.21655 3.44312 5.01965 3.44312 10.0881V16.6848C3.44312 20.4999 4.4986 22.4129 7.06031 23.1715L23.3871 6.84473C22.6395 4.28302 20.7154 3.22754 16.9003 3.22754H10.3147V3.21655Z" fill="white"/>
<path d="M16.9112 25.2066H10.3146C9.10516 25.2066 8.07169 25.1077 7.12616 24.8878C6.82931 24.8219 6.59841 24.602 6.52145 24.3161C6.43349 24.0302 6.52145 23.7224 6.73034 23.5025L15.2291 15.0038C15.5479 14.6849 16.0757 14.6849 16.3945 15.0038L23.409 22.0183C23.5629 22.1722 23.6509 22.3811 23.6509 22.601C23.6509 22.8209 23.5629 23.0297 23.409 23.1837C22.0127 24.569 19.9567 25.2066 16.9112 25.2066ZM9.05019 23.5135C9.446 23.5465 9.86378 23.5575 10.3146 23.5575H16.9112C19.0222 23.5575 20.5284 23.2277 21.5949 22.535L15.8118 16.7519L9.05019 23.5135Z" fill="white"/>
<path d="M10.4466 14.8268C9.75393 14.8268 9.06127 14.5739 8.51154 14.0572C6.76342 12.397 6.0598 10.572 6.47759 8.79085C6.89538 6.96577 8.48956 5.73438 10.4466 5.73438C12.4036 5.73438 13.9978 6.96577 14.4156 8.79085C14.8224 10.583 14.1187 12.397 12.3706 14.0572C11.8319 14.5629 11.1392 14.8268 10.4466 14.8268ZM8.08278 9.15366C7.73095 10.6489 8.74244 11.9902 9.65498 12.8588C10.1058 13.2876 10.7984 13.2876 11.2382 12.8588C12.1397 12.0012 13.1512 10.6599 12.8104 9.15366C12.5135 7.84531 11.3481 7.37256 10.4466 7.37256C9.54503 7.37256 8.39062 7.84531 8.08278 9.15366Z" fill="white"/>
<path d="M10.4796 10.6276C9.87488 10.6276 9.38013 10.1329 9.38013 9.52816C9.38013 8.92346 9.86388 8.42871 10.4796 8.42871H10.4906C11.0953 8.42871 11.59 8.92346 11.59 9.52816C11.59 10.1329 11.0843 10.6276 10.4796 10.6276Z" fill="white"/>
</svg>
