<svg width="27" height="27" viewBox="0 0 27 27" fill="none" xmlns="http://www.w3.org/2000/svg">
<path opacity="0.4" d="M24.3294 9.63194V4.7136C24.3294 3.1861 23.6361 2.5686 21.9136 2.5686H17.5369C15.8144 2.5686 15.1211 3.1861 15.1211 4.7136V9.6211C15.1211 11.1594 15.8144 11.7661 17.5369 11.7661H21.9136C23.6361 11.7769 24.3294 11.1594 24.3294 9.63194Z" fill="black"/>
<path d="M24.3294 21.8194V17.4427C24.3294 15.7202 23.6361 15.0269 21.9136 15.0269H17.5369C15.8144 15.0269 15.1211 15.7202 15.1211 17.4427V21.8194C15.1211 23.5419 15.8144 24.2352 17.5369 24.2352H21.9136C23.6361 24.2352 24.3294 23.5419 24.3294 21.8194Z" fill="black"/>
<path d="M11.8712 9.63194V4.7136C11.8712 3.1861 11.1778 2.5686 9.45534 2.5686H5.07868C3.35618 2.5686 2.66284 3.1861 2.66284 4.7136V9.6211C2.66284 11.1594 3.35618 11.7661 5.07868 11.7661H9.45534C11.1778 11.7769 11.8712 11.1594 11.8712 9.63194Z" fill="black"/>
<path opacity="0.4" d="M11.8712 21.8194V17.4427C11.8712 15.7202 11.1778 15.0269 9.45534 15.0269H5.07868C3.35618 15.0269 2.66284 15.7202 2.66284 17.4427V21.8194C2.66284 23.5419 3.35618 24.2352 5.07868 24.2352H9.45534C11.1778 24.2352 11.8712 23.5419 11.8712 21.8194Z" fill="black"/>
</svg>
